{"glyphs":{"0":{"ha":833,"x_min":51,"x_max":782,"o":"m 417 -12 q 145 117 239 -12 q 51 490 51 246 q 145 863 51 733 q 417 992 239 992 q 688 863 594 992 q 782 490 782 733 q 688 117 782 246 q 417 -12 594 -12 m 417 153 q 534 233 497 153 q 571 490 571 314 q 534 747 571 668 q 417 826 497 826 q 299 747 336 826 q 263 490 263 667 q 299 233 263 314 q 417 153 336 153 z "},"1":{"ha":833,"x_min":110,"x_max":804,"o":"m 703 174 q 804 88 804 174 q 703 0 804 0 l 228 0 q 125 88 125 0 q 228 174 125 174 l 357 174 l 357 742 l 235 668 q 193 656 214 656 q 134 685 158 656 q 110 750 110 714 q 153 824 110 799 l 372 956 q 469 985 421 985 q 544 956 515 985 q 574 879 574 928 l 574 174 l 703 174 z "},"2":{"ha":835,"x_min":60,"x_max":786,"o":"m 683 174 q 786 88 786 174 q 683 0 786 0 l 167 0 q 98 26 124 0 q 72 90 72 51 q 113 182 72 140 l 418 506 q 521 706 521 614 q 489 792 521 763 q 396 822 457 822 q 299 804 343 822 q 196 751 254 786 q 160 732 172 738 q 131 726 147 726 q 81 753 101 726 q 60 817 60 781 q 69 860 60 843 q 99 892 78 878 q 242 965 161 938 q 406 992 324 992 q 578 958 504 992 q 693 863 653 925 q 733 721 733 801 q 698 564 733 636 q 579 403 663 492 l 361 174 l 683 174 z "},"3":{"ha":833,"x_min":44,"x_max":758,"o":"m 579 504 q 712 417 665 479 q 758 267 758 356 q 715 119 758 182 q 589 23 671 57 q 399 -11 507 -11 q 226 15 308 -11 q 83 89 143 42 q 53 122 63 104 q 44 164 44 140 q 65 226 44 200 q 115 251 86 251 q 146 247 132 251 q 181 229 160 242 q 286 176 242 194 q 390 158 331 158 q 514 190 475 158 q 553 288 553 221 q 513 382 553 353 q 383 411 472 411 l 301 411 q 244 436 265 411 q 224 496 224 461 q 244 554 224 529 q 301 579 265 579 l 360 579 q 485 608 444 579 q 526 699 526 638 q 492 790 526 757 q 394 822 457 822 q 299 804 343 822 q 196 751 254 786 q 161 734 175 739 q 131 729 147 729 q 81 755 101 729 q 60 817 60 781 q 69 859 60 842 q 99 892 78 876 q 238 965 157 939 q 404 992 319 992 q 578 959 503 992 q 693 867 653 926 q 733 728 733 807 q 692 590 733 649 q 579 504 651 531 z "},"4":{"ha":833,"x_min":29,"x_max":824,"o":"m 722 344 q 824 263 824 344 q 722 179 824 179 l 671 179 l 671 100 q 642 19 671 47 q 565 -8 613 -8 q 489 19 518 -8 q 460 100 460 47 l 460 179 l 122 179 q 54 205 79 179 q 29 269 29 231 q 56 347 29 308 l 469 939 q 511 974 486 963 q 564 986 536 986 q 639 958 607 986 q 671 879 671 929 l 671 344 l 722 344 m 460 344 l 460 650 l 247 344 l 460 344 z "},"5":{"ha":833,"x_min":74,"x_max":786,"o":"m 476 633 q 638 594 567 633 q 747 483 708 554 q 786 319 786 413 q 740 147 786 222 q 612 31 694 72 q 421 -11 529 -11 q 253 15 335 -11 q 111 89 171 42 q 82 122 90 104 q 74 164 74 139 q 94 226 74 200 q 143 251 114 251 q 174 247 160 251 q 210 229 188 242 q 311 177 265 196 q 411 158 357 158 q 540 197 496 158 q 583 313 583 236 q 538 426 583 385 q 417 468 493 468 q 331 456 369 468 q 246 417 292 444 q 188 400 217 400 q 131 420 154 400 q 108 474 108 440 l 108 878 q 135 953 108 926 q 210 979 161 979 l 657 979 q 760 897 760 979 q 657 814 760 814 l 319 814 l 319 596 q 476 633 386 633 z "},"6":{"ha":833,"x_min":51,"x_max":786,"o":"m 488 636 q 641 596 574 636 q 747 483 708 556 q 785 319 785 411 q 742 148 785 224 q 622 30 699 72 q 450 -12 546 -12 q 156 114 260 -12 q 51 475 51 240 q 100 749 51 632 q 240 929 149 867 q 451 992 331 992 q 611 965 531 992 q 749 892 692 939 q 777 859 768 876 q 786 817 786 842 q 766 755 786 781 q 717 729 746 729 q 685 734 699 729 q 650 751 672 739 q 551 803 594 785 q 461 822 507 822 q 324 743 375 822 q 267 521 274 664 q 357 605 299 574 q 488 636 415 636 m 438 156 q 542 199 503 156 q 582 313 582 242 q 542 425 582 382 q 438 468 503 468 q 332 425 372 468 q 292 313 292 382 q 332 199 292 243 q 438 156 372 156 z "},"7":{"ha":833,"x_min":46,"x_max":788,"o":"m 697 979 q 764 954 740 979 q 788 890 788 929 q 765 811 788 850 l 332 44 q 292 1 317 15 q 242 -12 268 -12 q 169 16 201 -12 q 138 86 138 44 q 153 142 138 115 l 532 806 l 147 806 q 46 892 46 806 q 147 979 46 979 l 697 979 z "},"8":{"ha":833,"x_min":40,"x_max":793,"o":"m 617 504 q 747 417 701 479 q 793 267 793 356 q 693 63 793 136 q 417 -11 593 -11 q 140 63 240 -11 q 40 267 40 136 q 86 419 40 358 q 218 504 132 481 q 106 590 146 532 q 65 726 65 649 q 160 920 65 849 q 417 992 254 992 q 674 921 581 992 q 768 726 768 850 q 728 588 768 647 q 617 504 688 528 m 417 826 q 268 703 268 826 q 417 578 268 578 q 565 703 565 578 q 417 826 565 826 m 417 154 q 592 283 592 154 q 417 413 592 413 q 242 283 242 413 q 417 154 242 154 z "},"9":{"ha":833,"x_min":47,"x_max":782,"o":"m 383 992 q 678 865 574 992 q 782 504 782 739 q 733 230 782 347 q 594 50 685 113 q 382 -12 503 -12 q 222 14 303 -12 q 85 88 142 40 q 56 120 65 103 q 47 163 47 138 q 67 224 47 199 q 117 250 88 250 q 148 245 135 250 q 183 228 161 240 q 283 176 239 194 q 372 157 326 157 q 509 236 458 157 q 567 458 560 315 q 476 374 535 406 q 346 343 418 343 q 192 383 260 343 q 87 496 125 424 q 49 660 49 568 q 92 831 49 756 q 211 949 135 907 q 383 992 288 992 m 396 511 q 501 554 461 511 q 542 667 542 597 q 501 780 542 736 q 396 824 461 824 q 291 781 331 824 q 251 667 251 738 q 291 554 251 597 q 396 511 331 511 z "},"\u0000":{"ha":0,"x_min":0,"x_max":0,"o":""},"\r":{"ha":388,"x_min":0,"x_max":0,"o":""}," ":{"ha":388,"x_min":0,"x_max":0,"o":""},"A":{"ha":1043,"x_min":24,"x_max":1021,"o":"m 1010 132 q 1021 88 1021 107 q 990 22 1021 49 q 918 -6 958 -6 q 868 9 892 -6 q 832 53 844 24 l 758 217 l 288 217 l 214 53 q 178 9 201 24 q 128 -6 156 -6 q 56 22 88 -6 q 24 88 24 49 q 35 132 24 107 l 410 919 q 456 970 425 953 q 521 988 486 988 q 588 969 557 988 q 635 919 618 951 l 1010 132 m 685 381 l 524 742 l 361 381 l 685 381 z "},"Á":{"ha":1043,"x_min":24,"x_max":1021,"o":"m 1010 132 q 1021 88 1021 107 q 990 22 1021 49 q 918 -6 958 -6 q 868 9 892 -6 q 832 53 844 24 l 758 217 l 288 217 l 214 53 q 178 9 201 24 q 128 -6 156 -6 q 56 22 88 -6 q 24 88 24 49 q 35 132 24 107 l 410 919 q 456 970 425 953 q 521 988 486 988 q 588 969 557 988 q 635 919 618 951 l 1010 132 m 685 381 l 524 742 l 361 381 l 685 381 m 546 1061 q 519 1056 535 1056 q 485 1069 500 1056 q 471 1100 471 1082 q 489 1136 471 1118 l 608 1254 q 676 1286 640 1286 q 730 1263 707 1286 q 753 1210 753 1240 q 739 1169 753 1189 q 697 1136 725 1150 l 546 1061 z "},"Ă":{"ha":1043,"x_min":24,"x_max":1021,"o":"m 1010 132 q 1021 88 1021 107 q 990 22 1021 49 q 918 -6 958 -6 q 868 9 892 -6 q 832 53 844 24 l 758 217 l 288 217 l 214 53 q 178 9 201 24 q 128 -6 156 -6 q 56 22 88 -6 q 24 88 24 49 q 35 132 24 107 l 410 919 q 456 970 425 953 q 521 988 486 988 q 588 969 557 988 q 635 919 618 951 l 1010 132 m 685 381 l 524 742 l 361 381 l 685 381 m 521 1074 q 378 1103 440 1074 q 290 1181 317 1132 q 279 1218 279 1203 q 295 1253 279 1239 q 333 1268 311 1268 q 386 1244 363 1268 q 444 1210 408 1222 q 521 1199 481 1199 q 597 1210 561 1199 q 656 1244 633 1222 q 708 1267 679 1267 q 747 1253 731 1267 q 763 1217 763 1239 q 751 1181 763 1203 q 663 1103 725 1132 q 521 1074 601 1074 z "},"Ắ":{"ha":1043,"x_min":24,"x_max":1021,"o":"m 1010 132 q 1021 88 1021 107 q 990 22 1021 49 q 918 -6 958 -6 q 868 9 892 -6 q 832 53 844 24 l 758 217 l 288 217 l 214 53 q 178 9 201 24 q 128 -6 156 -6 q 56 22 88 -6 q 24 88 24 49 q 35 132 24 107 l 410 919 q 456 970 425 953 q 521 988 486 988 q 588 969 557 988 q 635 919 618 951 l 1010 132 m 685 381 l 524 742 l 361 381 l 685 381 m 539 1208 q 518 1203 529 1203 q 485 1215 499 1203 q 472 1246 472 1228 q 496 1289 472 1267 l 607 1386 q 669 1414 639 1414 q 716 1394 697 1414 q 735 1347 735 1374 q 686 1281 735 1304 l 539 1208 m 521 1056 q 378 1085 440 1056 q 290 1163 317 1114 q 279 1201 279 1181 q 292 1233 279 1221 q 324 1244 304 1244 q 372 1224 350 1244 q 438 1179 400 1197 q 521 1161 475 1161 q 604 1179 567 1161 q 669 1224 642 1197 q 718 1244 692 1244 q 751 1233 738 1244 q 764 1201 764 1221 q 751 1163 764 1183 q 663 1085 725 1114 q 521 1056 601 1056 z "},"Ặ":{"ha":1043,"x_min":24,"x_max":1021,"o":"m 1010 132 q 1021 88 1021 107 q 990 22 1021 49 q 918 -6 958 -6 q 868 9 892 -6 q 832 53 844 24 l 758 217 l 288 217 l 214 53 q 178 9 201 24 q 128 -6 156 -6 q 56 22 88 -6 q 24 88 24 49 q 35 132 24 107 l 410 919 q 456 970 425 953 q 521 988 486 988 q 588 969 557 988 q 635 919 618 951 l 1010 132 m 685 381 l 524 742 l 361 381 l 685 381 m 522 -283 q 448 -256 476 -283 q 419 -183 419 -228 q 448 -112 419 -139 q 522 -86 476 -86 q 597 -112 568 -86 q 625 -183 625 -139 q 597 -256 625 -228 q 522 -283 568 -283 m 521 1074 q 378 1103 440 1074 q 290 1181 317 1132 q 279 1218 279 1203 q 295 1253 279 1239 q 333 1268 311 1268 q 386 1244 363 1268 q 444 1210 408 1222 q 521 1199 481 1199 q 597 1210 561 1199 q 656 1244 633 1222 q 708 1267 679 1267 q 747 1253 731 1267 q 763 1217 763 1239 q 751 1181 763 1203 q 663 1103 725 1132 q 521 1074 601 1074 z "},"Ằ":{"ha":1043,"x_min":24,"x_max":1021,"o":"m 1010 132 q 1021 88 1021 107 q 990 22 1021 49 q 918 -6 958 -6 q 868 9 892 -6 q 832 53 844 24 l 758 217 l 288 217 l 214 53 q 178 9 201 24 q 128 -6 156 -6 q 56 22 88 -6 q 24 88 24 49 q 35 132 24 107 l 410 919 q 456 970 425 953 q 521 988 486 988 q 588 969 557 988 q 635 919 618 951 l 1010 132 m 685 381 l 524 742 l 361 381 l 685 381 m 356 1281 q 307 1347 307 1304 q 326 1394 307 1374 q 372 1414 344 1414 q 435 1386 403 1414 l 546 1289 q 569 1246 569 1269 q 556 1215 569 1228 q 524 1203 543 1203 q 503 1208 517 1203 l 356 1281 m 521 1056 q 378 1085 440 1056 q 290 1163 317 1114 q 279 1200 279 1181 q 292 1232 279 1219 q 324 1244 304 1244 q 372 1224 350 1244 q 438 1179 400 1197 q 521 1161 475 1161 q 604 1179 567 1161 q 669 1224 642 1197 q 718 1246 693 1246 q 751 1233 738 1246 q 764 1201 764 1221 q 751 1163 764 1183 q 663 1085 725 1114 q 521 1056 601 1056 z "},"Ẳ":{"ha":1043,"x_min":24,"x_max":1021,"o":"m 1010 132 q 1021 88 1021 107 q 990 22 1021 49 q 918 -6 958 -6 q 868 9 892 -6 q 832 53 844 24 l 758 217 l 288 217 l 214 53 q 178 9 201 24 q 128 -6 156 -6 q 56 22 88 -6 q 24 88 24 49 q 35 132 24 107 l 410 919 q 456 970 425 953 q 521 988 486 988 q 588 969 557 988 q 635 919 618 951 l 1010 132 m 685 381 l 524 742 l 361 381 l 685 381 m 574 1228 q 556 1210 571 1217 q 524 1204 542 1204 q 486 1214 501 1204 q 471 1242 471 1224 q 489 1280 471 1267 q 536 1303 507 1293 q 563 1318 563 1310 q 514 1333 563 1333 q 481 1331 506 1333 q 443 1328 456 1328 q 412 1340 424 1328 q 400 1365 400 1351 q 425 1397 400 1388 q 531 1414 469 1414 q 646 1390 604 1414 q 688 1331 688 1367 q 671 1290 688 1304 q 624 1264 654 1276 q 589 1247 600 1253 q 574 1228 578 1240 m 521 1056 q 378 1085 440 1056 q 290 1163 317 1114 q 279 1200 279 1181 q 292 1232 279 1219 q 324 1244 304 1244 q 372 1224 350 1244 q 438 1179 400 1197 q 521 1161 475 1161 q 604 1179 567 1161 q 669 1224 642 1197 q 718 1246 693 1246 q 751 1233 738 1246 q 764 1201 764 1221 q 751 1163 764 1183 q 663 1085 725 1114 q 521 1056 601 1056 z "},"Ẵ":{"ha":1043,"x_min":24,"x_max":1021,"o":"m 1010 132 q 1021 88 1021 107 q 990 22 1021 49 q 918 -6 958 -6 q 868 9 892 -6 q 832 53 844 24 l 758 217 l 288 217 l 214 53 q 178 9 201 24 q 128 -6 156 -6 q 56 22 88 -6 q 24 88 24 49 q 35 132 24 107 l 410 919 q 456 970 425 953 q 521 988 486 988 q 588 969 557 988 q 635 919 618 951 l 1010 132 m 685 381 l 524 742 l 361 381 l 685 381 m 625 1264 q 574 1269 600 1264 q 506 1288 547 1275 q 418 1306 443 1306 q 393 1300 403 1306 q 372 1283 383 1294 q 351 1267 360 1272 q 326 1261 342 1261 q 295 1272 307 1261 q 283 1303 283 1283 q 301 1348 283 1322 q 349 1392 318 1374 q 417 1410 379 1410 q 468 1404 442 1410 q 536 1386 494 1399 q 624 1368 599 1368 q 648 1374 639 1368 q 669 1392 657 1379 q 690 1408 681 1403 q 715 1414 700 1414 q 747 1402 736 1414 q 758 1371 758 1390 q 741 1326 758 1351 q 693 1282 724 1300 q 625 1264 663 1264 m 521 1056 q 378 1085 440 1056 q 290 1163 317 1114 q 281 1196 281 1181 q 296 1228 281 1215 q 331 1240 311 1240 q 372 1224 356 1240 q 438 1179 400 1197 q 521 1161 475 1161 q 604 1179 567 1161 q 669 1224 642 1197 q 711 1240 689 1240 q 747 1228 732 1240 q 763 1196 763 1215 q 751 1163 763 1182 q 663 1085 725 1114 q 521 1056 601 1056 z "},"Â":{"ha":1043,"x_min":24,"x_max":1021,"o":"m 1010 132 q 1021 88 1021 107 q 990 22 1021 49 q 918 -6 958 -6 q 868 9 892 -6 q 832 53 844 24 l 758 217 l 288 217 l 214 53 q 178 9 201 24 q 128 -6 156 -6 q 56 22 88 -6 q 24 88 24 49 q 35 132 24 107 l 410 919 q 456 970 425 953 q 521 988 486 988 q 588 969 557 988 q 635 919 618 951 l 1010 132 m 685 381 l 524 742 l 361 381 l 685 381 m 425 1078 q 376 1057 404 1057 q 332 1074 350 1057 q 314 1115 314 1092 q 339 1163 314 1142 l 450 1257 q 521 1285 482 1285 q 592 1257 560 1285 l 703 1163 q 728 1115 728 1142 q 710 1074 728 1092 q 667 1057 692 1057 q 617 1078 639 1057 l 521 1171 l 425 1078 z "},"Ấ":{"ha":1043,"x_min":24,"x_max":1021,"o":"m 1010 132 q 1021 88 1021 107 q 990 22 1021 49 q 918 -6 958 -6 q 868 9 892 -6 q 832 53 844 24 l 758 217 l 288 217 l 214 53 q 178 9 201 24 q 128 -6 156 -6 q 56 22 88 -6 q 24 88 24 49 q 35 132 24 107 l 410 919 q 456 970 425 953 q 521 988 486 988 q 588 969 557 988 q 635 919 618 951 l 1010 132 m 685 381 l 524 742 l 361 381 l 685 381 m 725 1210 q 701 1204 714 1204 q 668 1218 682 1204 q 654 1251 654 1232 q 667 1285 654 1268 l 743 1381 q 806 1415 769 1415 q 861 1390 838 1415 q 885 1333 885 1365 q 833 1263 885 1289 l 725 1210 m 415 1071 q 376 1057 397 1057 q 333 1074 351 1057 q 314 1115 314 1092 q 349 1169 314 1146 l 450 1239 q 521 1264 489 1264 q 592 1239 553 1264 l 693 1169 q 728 1114 728 1146 q 709 1073 728 1090 q 667 1056 690 1056 q 631 1068 647 1056 l 521 1151 l 415 1071 z "},"Ậ":{"ha":1043,"x_min":24,"x_max":1021,"o":"m 1010 132 q 1021 88 1021 107 q 990 22 1021 49 q 918 -6 958 -6 q 868 9 892 -6 q 832 53 844 24 l 758 217 l 288 217 l 214 53 q 178 9 201 24 q 128 -6 156 -6 q 56 22 88 -6 q 24 88 24 49 q 35 132 24 107 l 410 919 q 456 970 425 953 q 521 988 486 988 q 588 969 557 988 q 635 919 618 951 l 1010 132 m 685 381 l 524 742 l 361 381 l 685 381 m 522 -283 q 448 -256 476 -283 q 419 -183 419 -228 q 448 -112 419 -139 q 522 -86 476 -86 q 597 -112 568 -86 q 625 -183 625 -139 q 597 -256 625 -228 q 522 -283 568 -283 m 425 1078 q 376 1057 404 1057 q 332 1074 350 1057 q 314 1115 314 1092 q 339 1163 314 1142 l 450 1257 q 521 1285 482 1285 q 592 1257 560 1285 l 703 1163 q 728 1115 728 1142 q 710 1074 728 1092 q 667 1057 692 1057 q 617 1078 639 1057 l 521 1171 l 425 1078 z "},"Ầ":{"ha":1043,"x_min":24,"x_max":1021,"o":"m 1010 132 q 1021 88 1021 107 q 990 22 1021 49 q 918 -6 958 -6 q 868 9 892 -6 q 832 53 844 24 l 758 217 l 288 217 l 214 53 q 178 9 201 24 q 128 -6 156 -6 q 56 22 88 -6 q 24 88 24 49 q 35 132 24 107 l 410 919 q 456 970 425 953 q 521 988 486 988 q 588 969 557 988 q 635 919 618 951 l 1010 132 m 685 381 l 524 742 l 361 381 l 685 381 m 617 1268 q 571 1333 571 1293 q 597 1389 571 1364 q 654 1414 622 1414 q 715 1378 693 1414 l 783 1276 q 793 1246 793 1261 q 780 1215 793 1228 q 747 1203 767 1203 q 711 1214 731 1203 l 617 1268 m 415 1071 q 376 1057 397 1057 q 333 1074 351 1057 q 314 1115 314 1092 q 349 1169 314 1146 l 450 1239 q 521 1264 489 1264 q 592 1239 553 1264 l 693 1169 q 728 1114 728 1146 q 709 1073 728 1090 q 667 1056 690 1056 q 631 1068 647 1056 l 521 1151 l 415 1071 z "},"Ẩ":{"ha":1043,"x_min":24,"x_max":1021,"o":"m 1010 132 q 1021 88 1021 107 q 990 22 1021 49 q 918 -6 958 -6 q 868 9 892 -6 q 832 53 844 24 l 758 217 l 288 217 l 214 53 q 178 9 201 24 q 128 -6 156 -6 q 56 22 88 -6 q 24 88 24 49 q 35 132 24 107 l 410 919 q 456 970 425 953 q 521 988 486 988 q 588 969 557 988 q 635 919 618 951 l 1010 132 m 685 381 l 524 742 l 361 381 l 685 381 m 756 1228 q 738 1210 753 1217 q 706 1204 724 1204 q 667 1214 683 1204 q 651 1242 651 1224 q 669 1280 651 1267 q 717 1303 688 1293 q 743 1318 743 1310 q 732 1330 743 1326 q 696 1333 721 1333 q 654 1331 685 1333 q 626 1328 635 1328 q 594 1340 607 1328 q 582 1367 582 1351 q 607 1397 582 1388 q 711 1414 651 1414 q 826 1390 785 1414 q 868 1331 868 1367 q 851 1290 868 1304 q 804 1264 835 1276 q 771 1248 783 1256 q 756 1228 758 1240 m 415 1071 q 376 1057 397 1057 q 333 1074 351 1057 q 314 1115 314 1092 q 349 1169 314 1146 l 450 1239 q 521 1264 489 1264 q 592 1239 553 1264 l 693 1169 q 728 1114 728 1146 q 709 1073 728 1090 q 667 1056 690 1056 q 631 1068 647 1056 l 521 1151 l 415 1071 z "},"Ẫ":{"ha":1043,"x_min":24,"x_max":1021,"o":"m 1010 132 q 1021 88 1021 107 q 990 22 1021 49 q 918 -6 958 -6 q 868 9 892 -6 q 832 53 844 24 l 758 217 l 288 217 l 214 53 q 178 9 201 24 q 128 -6 156 -6 q 56 22 88 -6 q 24 88 24 49 q 35 132 24 107 l 410 919 q 456 970 425 953 q 521 988 486 988 q 588 969 557 988 q 635 919 618 951 l 1010 132 m 685 381 l 524 742 l 361 381 l 685 381 m 625 1264 q 574 1269 600 1264 q 506 1288 547 1275 q 418 1306 443 1306 q 393 1300 403 1306 q 372 1283 383 1294 q 351 1267 360 1272 q 326 1261 342 1261 q 295 1272 307 1261 q 283 1303 283 1283 q 301 1348 283 1322 q 349 1392 318 1374 q 417 1410 379 1410 q 468 1404 442 1410 q 536 1386 494 1399 q 624 1368 599 1368 q 648 1374 639 1368 q 669 1392 657 1379 q 690 1408 681 1403 q 715 1414 700 1414 q 747 1402 736 1414 q 758 1371 758 1390 q 741 1326 758 1351 q 693 1282 724 1300 q 625 1264 663 1264 m 415 1071 q 376 1057 397 1057 q 333 1074 351 1057 q 314 1115 314 1092 q 349 1169 314 1146 l 450 1239 q 521 1264 489 1264 q 592 1239 553 1264 l 693 1169 q 728 1114 728 1146 q 709 1073 728 1090 q 667 1056 690 1056 q 631 1068 647 1056 l 521 1151 l 415 1071 z "},"Ȁ":{"ha":1043,"x_min":24,"x_max":1021,"o":"m 1010 132 q 1021 88 1021 107 q 990 22 1021 49 q 918 -6 958 -6 q 868 9 892 -6 q 832 53 844 24 l 758 217 l 288 217 l 214 53 q 178 9 201 24 q 128 -6 156 -6 q 56 22 88 -6 q 24 88 24 49 q 35 132 24 107 l 410 919 q 456 970 425 953 q 521 988 486 988 q 588 969 557 988 q 635 919 618 951 l 1010 132 m 685 381 l 524 742 l 361 381 l 685 381 m 297 1165 q 275 1214 275 1188 q 299 1264 275 1243 q 353 1285 324 1285 q 414 1240 394 1285 l 465 1125 q 469 1101 469 1113 q 456 1069 469 1082 q 425 1056 443 1056 q 386 1074 404 1056 l 297 1165 m 489 1165 q 467 1214 467 1188 q 491 1264 467 1243 q 544 1285 515 1285 q 606 1240 586 1285 l 657 1125 q 663 1101 663 1114 q 649 1069 663 1082 q 618 1056 636 1056 q 579 1074 597 1056 l 489 1165 z "},"Ä":{"ha":1043,"x_min":24,"x_max":1021,"o":"m 1010 132 q 1021 88 1021 107 q 990 22 1021 49 q 918 -6 958 -6 q 868 9 892 -6 q 832 53 844 24 l 758 217 l 288 217 l 214 53 q 178 9 201 24 q 128 -6 156 -6 q 56 22 88 -6 q 24 88 24 49 q 35 132 24 107 l 410 919 q 456 970 425 953 q 521 988 486 988 q 588 969 557 988 q 635 919 618 951 l 1010 132 m 685 381 l 524 742 l 361 381 l 685 381 m 389 1074 q 314 1101 343 1074 q 285 1172 285 1128 q 314 1243 285 1217 q 389 1269 343 1269 q 464 1243 435 1269 q 493 1172 493 1217 q 465 1101 493 1128 q 389 1074 436 1074 m 653 1074 q 578 1101 607 1074 q 550 1172 550 1128 q 578 1243 550 1217 q 653 1269 607 1269 q 728 1243 699 1269 q 757 1172 757 1217 q 728 1101 757 1128 q 653 1074 699 1074 z "},"Ạ":{"ha":1043,"x_min":24,"x_max":1021,"o":"m 1010 132 q 1021 88 1021 107 q 990 22 1021 49 q 918 -6 958 -6 q 868 9 892 -6 q 832 53 844 24 l 758 217 l 288 217 l 214 53 q 178 9 201 24 q 128 -6 156 -6 q 56 22 88 -6 q 24 88 24 49 q 35 132 24 107 l 410 919 q 456 970 425 953 q 521 988 486 988 q 588 969 557 988 q 635 919 618 951 l 1010 132 m 685 381 l 524 742 l 361 381 l 685 381 m 522 -283 q 448 -256 476 -283 q 419 -183 419 -228 q 448 -112 419 -139 q 522 -86 476 -86 q 597 -112 568 -86 q 625 -183 625 -139 q 597 -256 625 -228 q 522 -283 568 -283 z "},"À":{"ha":1043,"x_min":24,"x_max":1021,"o":"m 1010 132 q 1021 88 1021 107 q 990 22 1021 49 q 918 -6 958 -6 q 868 9 892 -6 q 832 53 844 24 l 758 217 l 288 217 l 214 53 q 178 9 201 24 q 128 -6 156 -6 q 56 22 88 -6 q 24 88 24 49 q 35 132 24 107 l 410 919 q 456 970 425 953 q 521 988 486 988 q 588 969 557 988 q 635 919 618 951 l 1010 132 m 685 381 l 524 742 l 361 381 l 685 381 m 344 1136 q 289 1211 289 1163 q 311 1263 289 1240 q 365 1286 333 1286 q 433 1254 401 1286 l 553 1136 q 569 1100 569 1121 q 556 1068 569 1081 q 521 1056 542 1056 q 496 1061 507 1056 l 344 1136 z "},"Ả":{"ha":1043,"x_min":24,"x_max":1021,"o":"m 1010 132 q 1021 88 1021 107 q 990 22 1021 49 q 918 -6 958 -6 q 868 9 892 -6 q 832 53 844 24 l 758 217 l 288 217 l 214 53 q 178 9 201 24 q 128 -6 156 -6 q 56 22 88 -6 q 24 88 24 49 q 35 132 24 107 l 410 919 q 456 970 425 953 q 521 988 486 988 q 588 969 557 988 q 635 919 618 951 l 1010 132 m 685 381 l 524 742 l 361 381 l 685 381 m 575 1086 q 557 1063 571 1071 q 525 1056 543 1056 q 487 1067 503 1056 q 471 1097 471 1078 q 488 1137 471 1124 q 532 1160 504 1150 q 544 1165 535 1161 q 556 1172 553 1168 q 560 1179 560 1175 q 514 1203 560 1203 q 444 1192 489 1203 q 413 1201 426 1188 q 400 1232 400 1214 q 425 1268 400 1258 q 531 1285 469 1285 q 645 1260 603 1285 q 688 1197 688 1235 q 672 1155 688 1169 q 622 1124 656 1140 q 590 1107 601 1115 q 575 1086 579 1099 z "},"Ȃ":{"ha":1043,"x_min":24,"x_max":1021,"o":"m 1010 132 q 1021 88 1021 107 q 990 22 1021 49 q 918 -6 958 -6 q 868 9 892 -6 q 832 53 844 24 l 758 217 l 288 217 l 214 53 q 178 9 201 24 q 128 -6 156 -6 q 56 22 88 -6 q 24 88 24 49 q 35 132 24 107 l 410 919 q 456 970 425 953 q 521 988 486 988 q 588 969 557 988 q 635 919 618 951 l 1010 132 m 685 381 l 524 742 l 361 381 l 685 381 m 386 1096 q 335 1074 363 1074 q 296 1088 313 1074 q 279 1125 279 1103 q 290 1161 279 1142 q 378 1239 317 1210 q 521 1268 440 1268 q 663 1239 601 1268 q 751 1161 725 1210 q 763 1124 763 1139 q 747 1088 763 1101 q 708 1074 731 1074 q 656 1096 679 1074 q 596 1131 632 1118 q 521 1143 560 1143 q 446 1131 482 1143 q 386 1096 410 1118 z "},"Ā":{"ha":1043,"x_min":24,"x_max":1021,"o":"m 1010 132 q 1021 88 1021 107 q 990 22 1021 49 q 918 -6 958 -6 q 868 9 892 -6 q 832 53 844 24 l 758 217 l 288 217 l 214 53 q 178 9 201 24 q 128 -6 156 -6 q 56 22 88 -6 q 24 88 24 49 q 35 132 24 107 l 410 919 q 456 970 425 953 q 521 988 486 988 q 588 969 557 988 q 635 919 618 951 l 1010 132 m 685 381 l 524 742 l 361 381 l 685 381 m 353 1106 q 303 1123 322 1106 q 283 1171 283 1140 q 303 1219 283 1201 q 353 1236 322 1236 l 689 1236 q 739 1219 719 1236 q 758 1171 758 1201 q 739 1123 758 1140 q 689 1106 719 1106 l 353 1106 z "},"Ą":{"ha":1043,"x_min":24,"x_max":1074,"o":"m 1024 -153 q 1036 -151 1028 -151 q 1063 -165 1053 -151 q 1074 -197 1074 -179 q 1049 -242 1074 -228 q 926 -274 996 -274 q 800 -230 850 -274 q 750 -117 750 -186 q 774 -33 750 -72 q 843 32 797 6 q 832 53 833 47 l 758 217 l 288 217 l 214 53 q 178 9 201 24 q 128 -6 156 -6 q 56 22 88 -6 q 24 88 24 49 q 35 132 24 107 l 410 919 q 456 970 425 953 q 521 988 486 988 q 588 969 557 988 q 635 919 618 951 l 1010 132 q 1021 88 1021 106 q 1005 38 1021 60 q 965 6 989 17 q 907 -33 929 -11 q 885 -90 885 -56 q 906 -145 885 -125 q 957 -165 926 -165 q 1024 -153 986 -165 m 685 381 l 524 742 l 361 381 l 685 381 z "},"Å":{"ha":1043,"x_min":24,"x_max":1021,"o":"m 1010 132 q 1021 88 1021 107 q 990 22 1021 49 q 918 -6 958 -6 q 868 9 892 -6 q 832 53 844 24 l 758 217 l 288 217 l 214 53 q 178 9 201 24 q 128 -6 154 -6 q 56 21 88 -6 q 24 88 24 47 q 35 132 24 107 l 429 961 q 386 1012 401 981 q 371 1081 371 1043 q 415 1186 371 1143 q 522 1229 458 1229 q 631 1186 586 1229 q 675 1081 675 1143 q 659 1013 675 1044 q 615 961 643 982 l 1010 132 m 522 1143 q 479 1125 496 1143 q 463 1081 463 1107 q 479 1035 463 1053 q 522 1017 496 1017 q 565 1035 549 1017 q 582 1081 582 1053 q 565 1125 582 1107 q 522 1143 549 1143 m 685 381 l 524 742 l 361 381 l 685 381 z "},"Ǻ":{"ha":1043,"x_min":24,"x_max":1021,"o":"m 1010 132 q 1021 88 1021 107 q 990 22 1021 49 q 918 -6 958 -6 q 868 9 892 -6 q 832 53 844 24 l 758 217 l 288 217 l 214 53 q 178 9 201 24 q 128 -6 154 -6 q 56 21 88 -6 q 24 88 24 47 q 35 132 24 107 l 429 961 q 386 1012 401 981 q 371 1081 371 1043 q 415 1186 371 1143 q 522 1229 458 1229 q 593 1213 563 1229 l 719 1300 q 779 1321 750 1321 q 833 1298 811 1321 q 856 1244 856 1275 q 839 1199 856 1219 q 788 1168 822 1178 l 665 1132 q 675 1081 675 1108 q 659 1013 675 1044 q 615 961 643 982 l 1010 132 m 522 1143 q 479 1125 496 1143 q 463 1081 463 1107 q 479 1035 463 1053 q 522 1017 496 1017 q 565 1035 549 1017 q 582 1081 582 1053 q 565 1125 582 1107 q 522 1143 549 1143 m 685 381 l 524 742 l 361 381 l 685 381 z "},"Ã":{"ha":1043,"x_min":24,"x_max":1021,"o":"m 1010 132 q 1021 88 1021 107 q 990 22 1021 49 q 918 -6 958 -6 q 868 9 892 -6 q 832 53 844 24 l 758 217 l 288 217 l 214 53 q 178 9 201 24 q 128 -6 156 -6 q 56 22 88 -6 q 24 88 24 49 q 35 132 24 107 l 410 919 q 456 970 425 953 q 521 988 486 988 q 588 969 557 988 q 635 919 618 951 l 1010 132 m 685 381 l 524 742 l 361 381 l 685 381 m 625 1085 q 558 1094 593 1085 q 517 1106 522 1104 q 418 1126 454 1126 q 393 1121 403 1126 q 372 1104 383 1115 q 351 1086 360 1092 q 326 1081 342 1081 q 295 1094 307 1081 q 283 1129 283 1107 q 301 1189 283 1158 q 349 1240 318 1219 q 417 1260 379 1260 q 484 1250 449 1260 q 525 1239 519 1240 q 624 1218 588 1218 q 648 1224 639 1218 q 669 1240 657 1229 q 690 1257 681 1251 q 715 1263 700 1263 q 747 1250 736 1263 q 758 1215 758 1238 q 741 1156 758 1186 q 693 1105 724 1125 q 625 1085 663 1085 z "},"Æ":{"ha":1389,"x_min":6,"x_max":1358,"o":"m 1257 168 q 1358 83 1358 168 q 1257 0 1358 0 l 865 0 q 802 17 828 0 q 769 61 776 33 l 735 217 l 303 217 l 201 53 q 156 7 182 22 q 100 -8 129 -8 q 33 15 61 -8 q 6 74 6 38 q 25 132 6 103 l 535 919 q 585 963 553 947 q 656 979 617 979 l 1257 979 q 1358 896 1358 979 q 1332 833 1358 854 q 1257 811 1306 811 l 800 811 l 851 582 l 1229 582 q 1331 497 1331 582 q 1229 414 1331 414 l 889 414 l 943 168 l 1257 168 m 699 381 l 622 731 l 406 381 l 699 381 z "},"Ǽ":{"ha":1389,"x_min":6,"x_max":1358,"o":"m 1257 168 q 1358 83 1358 168 q 1257 0 1358 0 l 865 0 q 802 17 828 0 q 769 61 776 33 l 735 217 l 303 217 l 201 53 q 156 7 182 22 q 100 -8 129 -8 q 33 15 61 -8 q 6 74 6 38 q 25 132 6 103 l 535 919 q 585 963 553 947 q 656 979 617 979 l 1257 979 q 1358 896 1358 979 q 1332 833 1358 854 q 1257 811 1306 811 l 800 811 l 851 582 l 1229 582 q 1331 497 1331 582 q 1229 414 1331 414 l 889 414 l 943 168 l 1257 168 m 699 381 l 622 731 l 406 381 l 699 381 m 726 1061 q 700 1056 715 1056 q 666 1069 681 1056 q 651 1100 651 1082 q 669 1136 651 1118 l 789 1254 q 857 1286 821 1286 q 910 1263 888 1286 q 933 1210 933 1240 q 919 1169 933 1189 q 878 1136 906 1150 l 726 1061 z "},"B":{"ha":957,"x_min":97,"x_max":904,"o":"m 726 507 q 858 420 811 482 q 904 268 904 358 q 813 72 904 144 q 563 0 722 0 l 199 0 q 124 26 150 0 q 97 101 97 53 l 97 878 q 124 953 97 926 q 199 979 150 979 l 549 979 q 791 911 701 979 q 881 725 881 843 q 840 591 881 649 q 726 507 799 533 m 308 581 l 513 581 q 635 609 596 581 q 675 696 675 638 q 635 785 675 757 q 513 814 596 814 l 308 814 l 308 581 m 538 165 q 663 194 624 165 q 701 289 701 224 q 663 385 701 354 q 538 415 624 415 l 308 415 l 308 165 l 538 165 z "},"C":{"ha":942,"x_min":69,"x_max":899,"o":"m 547 -12 q 294 49 403 -12 q 128 224 186 110 q 69 490 69 338 q 128 756 69 643 q 294 931 186 869 q 547 992 403 992 q 861 892 729 992 q 890 858 882 875 q 899 817 899 842 q 878 755 899 781 q 829 729 858 729 q 795 734 810 729 q 763 751 781 739 q 660 803 707 788 q 558 819 613 819 q 358 737 425 819 q 290 490 290 654 q 558 160 290 160 q 656 176 610 160 q 763 228 701 192 q 797 245 783 240 q 829 250 811 250 q 878 224 858 250 q 899 163 899 199 q 890 120 899 138 q 861 88 881 103 q 547 -12 729 -12 z "},"Ć":{"ha":942,"x_min":69,"x_max":899,"o":"m 547 -12 q 294 49 403 -12 q 128 224 186 110 q 69 490 69 338 q 128 756 69 643 q 294 931 186 869 q 547 992 403 992 q 861 892 729 992 q 890 858 882 875 q 899 817 899 842 q 878 755 899 781 q 829 729 858 729 q 795 734 810 729 q 763 751 781 739 q 660 803 707 788 q 558 819 613 819 q 358 737 425 819 q 290 490 290 654 q 558 160 290 160 q 656 176 610 160 q 763 228 701 192 q 797 245 783 240 q 829 250 811 250 q 878 224 858 250 q 899 163 899 199 q 890 120 899 138 q 861 88 881 103 q 547 -12 729 -12 m 572 1061 q 546 1056 561 1056 q 512 1069 526 1056 q 497 1100 497 1082 q 515 1136 497 1118 l 635 1254 q 703 1286 667 1286 q 756 1263 733 1286 q 779 1210 779 1240 q 765 1169 779 1189 q 724 1136 751 1150 l 572 1061 z "},"Č":{"ha":942,"x_min":69,"x_max":899,"o":"m 547 -12 q 294 49 403 -12 q 128 224 186 110 q 69 490 69 338 q 128 756 69 643 q 294 931 186 869 q 547 992 403 992 q 861 892 729 992 q 890 858 882 875 q 899 817 899 842 q 878 755 899 781 q 829 729 858 729 q 795 734 810 729 q 763 751 781 739 q 660 803 707 788 q 558 819 613 819 q 358 737 425 819 q 290 490 290 654 q 558 160 290 160 q 656 176 610 160 q 763 228 701 192 q 797 245 783 240 q 829 250 811 250 q 878 224 858 250 q 899 163 899 199 q 890 120 899 138 q 861 88 881 103 q 547 -12 729 -12 m 547 1056 q 476 1083 508 1056 l 365 1176 q 340 1225 340 1197 q 358 1266 340 1249 q 401 1283 376 1283 q 451 1263 429 1283 l 547 1169 l 643 1263 q 692 1283 664 1283 q 736 1266 718 1283 q 754 1225 754 1249 q 729 1176 754 1200 l 618 1083 q 547 1056 586 1056 z "},"Ç":{"ha":942,"x_min":69,"x_max":899,"o":"m 829 250 q 878 224 858 250 q 899 163 899 199 q 890 120 899 138 q 861 88 881 103 q 588 -11 746 -1 l 582 -58 q 613 -56 604 -56 q 685 -82 656 -56 q 715 -151 715 -108 q 667 -240 715 -206 q 528 -274 618 -274 q 429 -260 469 -274 q 401 -218 401 -250 q 414 -185 401 -199 q 444 -176 426 -171 q 522 -187 492 -187 q 586 -151 586 -187 q 577 -132 586 -139 q 553 -125 568 -125 q 521 -129 540 -125 q 492 -133 501 -133 q 470 -126 478 -133 q 464 -104 463 -118 l 476 -8 q 260 71 351 6 q 119 243 168 136 q 69 490 69 350 q 128 756 69 643 q 294 931 186 869 q 547 992 403 992 q 861 892 729 992 q 890 858 882 875 q 899 817 899 842 q 878 755 899 781 q 829 729 858 729 q 795 734 810 729 q 763 751 781 739 q 660 803 707 788 q 558 819 613 819 q 358 737 425 819 q 290 490 290 654 q 558 160 290 160 q 656 176 610 160 q 763 228 701 192 q 797 245 783 240 q 829 250 811 250 z "},"Ḉ":{"ha":942,"x_min":69,"x_max":899,"o":"m 572 1061 q 546 1056 561 1056 q 512 1069 526 1056 q 497 1100 497 1082 q 515 1136 497 1118 l 635 1254 q 703 1286 667 1286 q 756 1263 733 1286 q 779 1210 779 1240 q 765 1169 779 1189 q 724 1136 751 1150 l 572 1061 m 829 250 q 878 224 858 250 q 899 163 899 199 q 890 120 899 138 q 861 88 881 103 q 588 -11 746 -1 l 582 -58 q 613 -56 604 -56 q 685 -82 656 -56 q 715 -151 715 -108 q 667 -240 715 -206 q 528 -274 618 -274 q 429 -260 469 -274 q 401 -218 401 -250 q 414 -185 401 -199 q 444 -176 426 -171 q 522 -187 492 -187 q 586 -151 586 -187 q 577 -132 586 -139 q 553 -125 568 -125 q 521 -129 540 -125 q 492 -133 501 -133 q 470 -126 478 -133 q 464 -104 463 -118 l 476 -8 q 260 71 351 6 q 119 243 168 136 q 69 490 69 350 q 128 756 69 643 q 294 931 186 869 q 547 992 403 992 q 861 892 729 992 q 890 858 882 875 q 899 817 899 842 q 878 755 899 781 q 829 729 858 729 q 795 734 810 729 q 763 751 781 739 q 660 803 707 788 q 558 819 613 819 q 358 737 425 819 q 290 490 290 654 q 558 160 290 160 q 656 176 610 160 q 763 228 701 192 q 797 245 783 240 q 829 250 811 250 z "},"Ĉ":{"ha":942,"x_min":69,"x_max":899,"o":"m 547 -12 q 294 49 403 -12 q 128 224 186 110 q 69 490 69 338 q 128 756 69 643 q 294 931 186 869 q 547 992 403 992 q 861 892 729 992 q 890 858 882 875 q 899 817 899 842 q 878 755 899 781 q 829 729 858 729 q 795 734 810 729 q 763 751 781 739 q 660 803 707 788 q 558 819 613 819 q 358 737 425 819 q 290 490 290 654 q 558 160 290 160 q 656 176 610 160 q 763 228 701 192 q 797 245 783 240 q 829 250 811 250 q 878 224 858 250 q 899 163 899 199 q 890 120 899 138 q 861 88 881 103 q 547 -12 729 -12 m 451 1078 q 403 1057 431 1057 q 358 1074 376 1057 q 340 1115 340 1092 q 365 1163 340 1142 l 476 1257 q 547 1285 508 1285 q 618 1257 586 1285 l 729 1163 q 754 1115 754 1142 q 736 1074 754 1092 q 693 1057 718 1057 q 643 1078 665 1057 l 547 1171 l 451 1078 z "},"Ċ":{"ha":942,"x_min":69,"x_max":899,"o":"m 547 -12 q 294 49 403 -12 q 128 224 186 110 q 69 490 69 338 q 128 756 69 643 q 294 931 186 869 q 547 992 403 992 q 861 892 729 992 q 890 858 882 875 q 899 817 899 842 q 878 755 899 781 q 829 729 858 729 q 795 734 810 729 q 763 751 781 739 q 660 803 707 788 q 558 819 613 819 q 358 737 425 819 q 290 490 290 654 q 558 160 290 160 q 656 176 610 160 q 763 228 701 192 q 797 245 783 240 q 829 250 811 250 q 878 224 858 250 q 899 163 899 199 q 890 120 899 138 q 861 88 881 103 q 547 -12 729 -12 m 547 1067 q 460 1095 492 1067 q 428 1172 428 1124 q 460 1249 428 1221 q 547 1276 492 1276 q 634 1248 601 1276 q 667 1172 667 1219 q 635 1095 667 1124 q 547 1067 603 1067 z "},"D":{"ha":1060,"x_min":97,"x_max":990,"o":"m 199 0 q 124 26 150 0 q 97 101 97 53 l 97 878 q 124 953 97 926 q 199 979 150 979 l 478 979 q 753 921 638 979 q 929 753 868 863 q 990 490 990 643 q 930 227 990 338 q 754 58 869 117 q 478 0 639 0 l 199 0 m 463 175 q 775 490 775 175 q 463 804 775 804 l 314 804 l 314 175 l 463 175 z "},"Ǆ":{"ha":1886,"x_min":97,"x_max":1858,"o":"m 199 0 q 124 26 150 0 q 97 101 97 53 l 97 878 q 124 953 97 926 q 199 979 150 979 l 478 979 q 753 921 638 979 q 929 753 868 863 q 990 490 990 643 q 930 227 990 338 q 754 58 869 117 q 478 0 639 0 l 199 0 m 463 175 q 775 490 775 175 q 463 804 775 804 l 314 804 l 314 175 l 463 175 m 1756 171 q 1833 150 1808 171 q 1858 86 1858 129 q 1833 21 1858 42 q 1756 0 1808 0 l 1182 0 q 1113 26 1139 0 q 1088 90 1088 51 q 1115 168 1088 131 l 1578 808 l 1192 808 q 1114 829 1139 808 q 1089 893 1089 850 q 1114 958 1089 938 q 1192 979 1139 979 l 1744 979 q 1813 953 1788 979 q 1839 889 1839 928 q 1813 811 1839 847 l 1349 171 l 1756 171 m 1464 1056 q 1393 1083 1425 1056 l 1282 1176 q 1257 1225 1257 1197 q 1275 1266 1257 1249 q 1318 1283 1293 1283 q 1368 1263 1346 1283 l 1464 1169 l 1560 1263 q 1608 1283 1581 1283 q 1653 1266 1635 1283 q 1671 1225 1671 1249 q 1646 1176 1671 1200 l 1535 1083 q 1464 1056 1503 1056 z "},"Ð":{"ha":1101,"x_min":0,"x_max":1032,"o":"m 518 979 q 794 921 679 979 q 971 753 910 863 q 1032 490 1032 643 q 972 227 1032 338 q 795 58 911 117 q 518 0 679 0 l 240 0 q 165 26 192 0 q 139 101 139 53 l 139 413 l 97 413 q 25 434 50 413 q 0 494 0 456 q 25 555 0 533 q 97 576 50 576 l 139 576 l 139 878 q 165 953 139 926 q 240 979 192 979 l 518 979 m 504 175 q 815 490 815 175 q 738 726 815 649 q 504 804 661 804 l 356 804 l 356 576 l 536 576 q 608 555 583 576 q 633 494 633 533 q 608 434 633 456 q 536 413 583 413 l 356 413 l 356 175 l 504 175 z "},"Ď":{"ha":1060,"x_min":97,"x_max":990,"o":"m 199 0 q 124 26 150 0 q 97 101 97 53 l 97 878 q 124 953 97 926 q 199 979 150 979 l 478 979 q 753 921 638 979 q 929 753 868 863 q 990 490 990 643 q 930 227 990 338 q 754 58 869 117 q 478 0 639 0 l 199 0 m 463 175 q 775 490 775 175 q 463 804 775 804 l 314 804 l 314 175 l 463 175 m 529 1056 q 458 1083 490 1056 l 347 1176 q 322 1225 322 1197 q 340 1266 322 1249 q 383 1283 358 1283 q 433 1263 411 1283 l 529 1169 l 625 1263 q 674 1283 646 1283 q 718 1266 700 1283 q 736 1225 736 1249 q 711 1176 736 1200 l 600 1083 q 529 1056 568 1056 z "},"Đ":{"ha":1101,"x_min":0,"x_max":1032,"o":"m 518 979 q 794 921 679 979 q 971 753 910 863 q 1032 490 1032 643 q 972 227 1032 338 q 795 58 911 117 q 518 0 679 0 l 240 0 q 165 26 192 0 q 139 101 139 53 l 139 413 l 97 413 q 25 434 50 413 q 0 494 0 456 q 25 555 0 533 q 97 576 50 576 l 139 576 l 139 878 q 165 953 139 926 q 240 979 192 979 l 518 979 m 504 175 q 815 490 815 175 q 738 726 815 649 q 504 804 661 804 l 356 804 l 356 576 l 536 576 q 608 555 583 576 q 633 494 633 533 q 608 434 633 456 q 536 413 583 413 l 356 413 l 356 175 l 504 175 z "},"Ḍ":{"ha":1060,"x_min":97,"x_max":990,"o":"m 199 0 q 124 26 150 0 q 97 101 97 53 l 97 878 q 124 953 97 926 q 199 979 150 979 l 478 979 q 753 921 638 979 q 929 753 868 863 q 990 490 990 643 q 930 227 990 338 q 754 58 869 117 q 478 0 639 0 l 199 0 m 463 175 q 775 490 775 175 q 463 804 775 804 l 314 804 l 314 175 l 463 175 m 529 -283 q 455 -256 483 -283 q 426 -183 426 -228 q 455 -112 426 -139 q 529 -86 483 -86 q 603 -112 575 -86 q 632 -183 632 -139 q 603 -256 632 -228 q 529 -283 575 -283 z "},"Ḏ":{"ha":1060,"x_min":97,"x_max":990,"o":"m 199 0 q 124 26 150 0 q 97 101 97 53 l 97 878 q 124 953 97 926 q 199 979 150 979 l 478 979 q 753 921 638 979 q 929 753 868 863 q 990 490 990 643 q 930 227 990 338 q 754 58 869 117 q 478 0 639 0 l 199 0 m 463 175 q 775 490 775 175 q 463 804 775 804 l 314 804 l 314 175 l 463 175 m 361 -246 q 311 -230 331 -246 q 292 -185 292 -214 q 311 -140 292 -157 q 361 -124 331 -124 l 697 -124 q 747 -140 728 -124 q 767 -185 767 -157 q 747 -230 767 -214 q 697 -246 728 -246 l 361 -246 z "},"ǅ":{"ha":1774,"x_min":97,"x_max":1747,"o":"m 199 0 q 124 26 150 0 q 97 101 97 53 l 97 878 q 124 953 97 926 q 199 979 150 979 l 478 979 q 753 921 638 979 q 929 753 868 863 q 990 490 990 643 q 930 227 990 338 q 754 58 869 117 q 478 0 639 0 l 199 0 m 463 175 q 775 490 775 175 q 463 804 775 804 l 314 804 l 314 175 l 463 175 m 1653 157 q 1747 78 1747 157 q 1653 0 1747 0 l 1203 0 q 1135 26 1161 0 q 1108 89 1108 53 q 1138 161 1108 131 l 1463 525 l 1196 525 q 1101 603 1101 525 q 1196 682 1101 682 l 1629 682 q 1698 656 1672 682 q 1724 592 1724 629 q 1694 519 1724 550 l 1371 157 l 1653 157 m 1428 764 q 1385 774 1401 764 q 1347 810 1368 785 l 1231 958 q 1215 1000 1215 978 q 1235 1043 1215 1025 q 1281 1061 1254 1061 q 1336 1029 1315 1061 l 1428 894 l 1519 1029 q 1575 1061 1540 1061 q 1621 1043 1601 1061 q 1640 1000 1640 1025 q 1625 958 1640 978 l 1508 808 q 1471 774 1489 785 q 1428 764 1453 764 z "},"E":{"ha":824,"x_min":97,"x_max":793,"o":"m 199 0 q 124 26 150 0 q 97 101 97 53 l 97 878 q 124 953 97 926 q 199 979 150 979 l 690 979 q 793 896 793 979 q 690 811 793 811 l 308 811 l 308 582 l 663 582 q 765 497 765 582 q 663 414 765 414 l 308 414 l 308 168 l 690 168 q 793 83 793 168 q 690 0 793 0 l 199 0 z "},"É":{"ha":824,"x_min":97,"x_max":793,"o":"m 199 0 q 124 26 150 0 q 97 101 97 53 l 97 878 q 124 953 97 926 q 199 979 150 979 l 690 979 q 793 896 793 979 q 690 811 793 811 l 308 811 l 308 582 l 663 582 q 765 497 765 582 q 663 414 765 414 l 308 414 l 308 168 l 690 168 q 793 83 793 168 q 690 0 793 0 l 199 0 m 485 1061 q 458 1056 474 1056 q 424 1069 439 1056 q 410 1100 410 1082 q 428 1136 410 1118 l 547 1254 q 615 1286 579 1286 q 669 1263 646 1286 q 692 1210 692 1240 q 678 1169 692 1189 q 636 1136 664 1150 l 485 1061 z "},"Ĕ":{"ha":824,"x_min":97,"x_max":793,"o":"m 199 0 q 124 26 150 0 q 97 101 97 53 l 97 878 q 124 953 97 926 q 199 979 150 979 l 690 979 q 793 896 793 979 q 690 811 793 811 l 308 811 l 308 582 l 663 582 q 765 497 765 582 q 663 414 765 414 l 308 414 l 308 168 l 690 168 q 793 83 793 168 q 690 0 793 0 l 199 0 m 460 1074 q 317 1103 379 1074 q 229 1181 256 1132 q 218 1218 218 1203 q 234 1253 218 1239 q 272 1268 250 1268 q 325 1244 301 1268 q 383 1210 347 1222 q 460 1199 419 1199 q 536 1210 500 1199 q 594 1244 572 1222 q 647 1267 618 1267 q 685 1253 669 1267 q 701 1217 701 1239 q 690 1181 701 1203 q 602 1103 664 1132 q 460 1074 540 1074 z "},"Ě":{"ha":824,"x_min":97,"x_max":793,"o":"m 199 0 q 124 26 150 0 q 97 101 97 53 l 97 878 q 124 953 97 926 q 199 979 150 979 l 690 979 q 793 896 793 979 q 690 811 793 811 l 308 811 l 308 582 l 663 582 q 765 497 765 582 q 663 414 765 414 l 308 414 l 308 168 l 690 168 q 793 83 793 168 q 690 0 793 0 l 199 0 m 460 1056 q 389 1083 421 1056 l 278 1176 q 253 1225 253 1197 q 271 1266 253 1249 q 314 1283 289 1283 q 364 1263 342 1283 l 460 1169 l 556 1263 q 604 1283 576 1283 q 649 1266 631 1283 q 667 1225 667 1249 q 642 1176 667 1200 l 531 1083 q 460 1056 499 1056 z "},"Ȩ":{"ha":824,"x_min":97,"x_max":793,"o":"m 690 168 q 793 83 793 168 q 690 0 793 0 l 501 0 l 494 -58 q 525 -56 517 -56 q 598 -82 568 -56 q 628 -151 628 -108 q 579 -240 628 -206 q 440 -274 531 -274 q 342 -260 382 -274 q 314 -218 314 -250 q 326 -185 314 -199 q 357 -176 339 -171 q 435 -187 404 -187 q 499 -151 499 -187 q 490 -132 499 -139 q 465 -125 481 -125 q 433 -129 453 -125 q 404 -133 414 -133 q 383 -126 390 -133 q 376 -104 375 -118 l 389 0 l 199 0 q 124 26 150 0 q 97 101 97 53 l 97 878 q 124 953 97 926 q 199 979 150 979 l 690 979 q 793 896 793 979 q 690 811 793 811 l 308 811 l 308 582 l 663 582 q 765 497 765 582 q 663 414 765 414 l 308 414 l 308 168 l 690 168 z "},"Ḝ":{"ha":824,"x_min":97,"x_max":793,"o":"m 460 1074 q 317 1103 379 1074 q 229 1181 256 1132 q 218 1218 218 1203 q 234 1253 218 1239 q 272 1268 250 1268 q 325 1244 301 1268 q 383 1210 347 1222 q 460 1199 419 1199 q 536 1210 500 1199 q 594 1244 572 1222 q 647 1267 618 1267 q 685 1253 669 1267 q 701 1217 701 1239 q 690 1181 701 1203 q 602 1103 664 1132 q 460 1074 540 1074 m 690 168 q 793 83 793 168 q 690 0 793 0 l 501 0 l 494 -58 q 525 -56 517 -56 q 598 -82 568 -56 q 628 -151 628 -108 q 579 -240 628 -206 q 440 -274 531 -274 q 342 -260 382 -274 q 314 -218 314 -250 q 326 -185 314 -199 q 357 -176 339 -171 q 435 -187 404 -187 q 499 -151 499 -187 q 490 -132 499 -139 q 465 -125 481 -125 q 433 -129 453 -125 q 404 -133 414 -133 q 383 -126 390 -133 q 376 -104 375 -118 l 389 0 l 199 0 q 124 26 150 0 q 97 101 97 53 l 97 878 q 124 953 97 926 q 199 979 150 979 l 690 979 q 793 896 793 979 q 690 811 793 811 l 308 811 l 308 582 l 663 582 q 765 497 765 582 q 663 414 765 414 l 308 414 l 308 168 l 690 168 z "},"Ê":{"ha":824,"x_min":97,"x_max":793,"o":"m 199 0 q 124 26 150 0 q 97 101 97 53 l 97 878 q 124 953 97 926 q 199 979 150 979 l 690 979 q 793 896 793 979 q 690 811 793 811 l 308 811 l 308 582 l 663 582 q 765 497 765 582 q 663 414 765 414 l 308 414 l 308 168 l 690 168 q 793 83 793 168 q 690 0 793 0 l 199 0 m 364 1078 q 315 1057 343 1057 q 271 1074 289 1057 q 253 1115 253 1092 q 278 1163 253 1142 l 389 1257 q 460 1285 421 1285 q 531 1257 499 1285 l 642 1163 q 667 1115 667 1142 q 649 1074 667 1092 q 606 1057 631 1057 q 556 1078 578 1057 l 460 1171 l 364 1078 z "},"Ế":{"ha":824,"x_min":97,"x_max":824,"o":"m 199 0 q 124 26 150 0 q 97 101 97 53 l 97 878 q 124 953 97 926 q 199 979 150 979 l 690 979 q 793 896 793 979 q 690 811 793 811 l 308 811 l 308 582 l 663 582 q 765 497 765 582 q 663 414 765 414 l 308 414 l 308 168 l 690 168 q 793 83 793 168 q 690 0 793 0 l 199 0 m 664 1210 q 640 1204 653 1204 q 607 1218 621 1204 q 593 1251 593 1232 q 606 1285 593 1268 l 682 1381 q 744 1415 708 1415 q 800 1390 776 1415 q 824 1333 824 1365 q 772 1263 824 1289 l 664 1210 m 354 1071 q 315 1057 336 1057 q 272 1074 290 1057 q 253 1115 253 1092 q 288 1169 253 1146 l 389 1239 q 460 1264 428 1264 q 531 1239 492 1264 l 632 1169 q 667 1114 667 1146 q 648 1073 667 1090 q 606 1056 629 1056 q 569 1068 586 1056 l 460 1151 l 354 1071 z "},"Ệ":{"ha":824,"x_min":97,"x_max":793,"o":"m 199 0 q 124 26 150 0 q 97 101 97 53 l 97 878 q 124 953 97 926 q 199 979 150 979 l 690 979 q 793 896 793 979 q 690 811 793 811 l 308 811 l 308 582 l 663 582 q 765 497 765 582 q 663 414 765 414 l 308 414 l 308 168 l 690 168 q 793 83 793 168 q 690 0 793 0 l 199 0 m 460 -283 q 385 -256 414 -283 q 357 -183 357 -228 q 385 -112 357 -139 q 460 -86 414 -86 q 534 -112 506 -86 q 563 -183 563 -139 q 534 -256 563 -228 q 460 -283 506 -283 m 364 1078 q 315 1057 343 1057 q 271 1074 289 1057 q 253 1115 253 1092 q 278 1163 253 1142 l 389 1257 q 460 1285 421 1285 q 531 1257 499 1285 l 642 1163 q 667 1115 667 1142 q 649 1074 667 1092 q 606 1057 631 1057 q 556 1078 578 1057 l 460 1171 l 364 1078 z "},"Ề":{"ha":824,"x_min":97,"x_max":793,"o":"m 199 0 q 124 26 150 0 q 97 101 97 53 l 97 878 q 124 953 97 926 q 199 979 150 979 l 690 979 q 793 896 793 979 q 690 811 793 811 l 308 811 l 308 582 l 663 582 q 765 497 765 582 q 663 414 765 414 l 308 414 l 308 168 l 690 168 q 793 83 793 168 q 690 0 793 0 l 199 0 m 556 1268 q 510 1333 510 1293 q 535 1389 510 1364 q 593 1414 561 1414 q 654 1378 632 1414 l 722 1276 q 732 1246 732 1261 q 719 1215 732 1228 q 686 1203 706 1203 q 650 1214 669 1203 l 556 1268 m 354 1071 q 315 1057 336 1057 q 272 1074 290 1057 q 253 1115 253 1092 q 288 1169 253 1146 l 389 1239 q 460 1264 428 1264 q 531 1239 492 1264 l 632 1169 q 667 1114 667 1146 q 648 1073 667 1090 q 606 1056 629 1056 q 569 1068 586 1056 l 460 1151 l 354 1071 z "},"Ể":{"ha":824,"x_min":97,"x_max":807,"o":"m 199 0 q 124 26 150 0 q 97 101 97 53 l 97 878 q 124 953 97 926 q 199 979 150 979 l 690 979 q 793 896 793 979 q 690 811 793 811 l 308 811 l 308 582 l 663 582 q 765 497 765 582 q 663 414 765 414 l 308 414 l 308 168 l 690 168 q 793 83 793 168 q 690 0 793 0 l 199 0 m 694 1228 q 677 1210 692 1217 q 644 1204 663 1204 q 606 1214 622 1204 q 590 1242 590 1224 q 608 1280 590 1267 q 656 1303 626 1293 q 682 1318 682 1310 q 671 1330 682 1326 q 635 1333 660 1333 q 593 1331 624 1333 q 565 1328 574 1328 q 533 1340 546 1328 q 521 1367 521 1351 q 546 1397 521 1388 q 650 1414 590 1414 q 765 1390 724 1414 q 807 1331 807 1367 q 790 1290 807 1304 q 743 1264 774 1276 q 710 1248 722 1256 q 694 1228 697 1240 m 354 1071 q 315 1057 336 1057 q 272 1074 290 1057 q 253 1115 253 1092 q 288 1169 253 1146 l 389 1239 q 460 1264 428 1264 q 531 1239 492 1264 l 632 1169 q 667 1114 667 1146 q 648 1073 667 1090 q 606 1056 629 1056 q 569 1068 586 1056 l 460 1151 l 354 1071 z "},"Ễ":{"ha":824,"x_min":97,"x_max":793,"o":"m 199 0 q 124 26 150 0 q 97 101 97 53 l 97 878 q 124 953 97 926 q 199 979 150 979 l 690 979 q 793 896 793 979 q 690 811 793 811 l 308 811 l 308 582 l 663 582 q 765 497 765 582 q 663 414 765 414 l 308 414 l 308 168 l 690 168 q 793 83 793 168 q 690 0 793 0 l 199 0 m 564 1264 q 513 1269 539 1264 q 444 1288 486 1275 q 357 1306 382 1306 q 332 1300 342 1306 q 311 1283 322 1294 q 290 1267 299 1272 q 265 1261 281 1261 q 234 1272 246 1261 q 222 1303 222 1283 q 240 1348 222 1322 q 288 1392 257 1374 q 356 1410 318 1410 q 407 1404 381 1410 q 475 1386 433 1399 q 563 1368 538 1368 q 587 1374 578 1368 q 608 1392 596 1379 q 629 1408 619 1403 q 654 1414 639 1414 q 686 1402 675 1414 q 697 1371 697 1390 q 680 1326 697 1351 q 632 1282 663 1300 q 564 1264 601 1264 m 354 1071 q 315 1057 336 1057 q 272 1074 290 1057 q 253 1115 253 1092 q 288 1169 253 1146 l 389 1239 q 460 1264 428 1264 q 531 1239 492 1264 l 632 1169 q 667 1114 667 1146 q 648 1073 667 1090 q 606 1056 629 1056 q 569 1068 586 1056 l 460 1151 l 354 1071 z "},"Ȅ":{"ha":824,"x_min":97,"x_max":793,"o":"m 199 0 q 124 26 150 0 q 97 101 97 53 l 97 878 q 124 953 97 926 q 199 979 150 979 l 690 979 q 793 896 793 979 q 690 811 793 811 l 308 811 l 308 582 l 663 582 q 765 497 765 582 q 663 414 765 414 l 308 414 l 308 168 l 690 168 q 793 83 793 168 q 690 0 793 0 l 199 0 m 236 1165 q 214 1214 214 1188 q 238 1264 214 1243 q 292 1285 263 1285 q 353 1240 333 1285 l 404 1125 q 408 1101 408 1113 q 395 1069 408 1082 q 364 1056 382 1056 q 325 1074 343 1056 l 236 1165 m 428 1165 q 406 1214 406 1188 q 430 1264 406 1243 q 483 1285 454 1285 q 544 1240 525 1285 l 596 1125 q 601 1101 601 1114 q 588 1069 601 1082 q 557 1056 575 1056 q 518 1074 536 1056 l 428 1165 z "},"Ë":{"ha":824,"x_min":97,"x_max":793,"o":"m 199 0 q 124 26 150 0 q 97 101 97 53 l 97 878 q 124 953 97 926 q 199 979 150 979 l 690 979 q 793 896 793 979 q 690 811 793 811 l 308 811 l 308 582 l 663 582 q 765 497 765 582 q 663 414 765 414 l 308 414 l 308 168 l 690 168 q 793 83 793 168 q 690 0 793 0 l 199 0 m 328 1074 q 253 1101 282 1074 q 224 1172 224 1128 q 253 1243 224 1217 q 328 1269 282 1269 q 403 1243 374 1269 q 432 1172 432 1217 q 403 1101 432 1128 q 328 1074 375 1074 m 592 1074 q 517 1101 546 1074 q 489 1172 489 1128 q 517 1243 489 1217 q 592 1269 546 1269 q 667 1243 638 1269 q 696 1172 696 1217 q 667 1101 696 1128 q 592 1074 638 1074 z "},"Ė":{"ha":824,"x_min":97,"x_max":793,"o":"m 199 0 q 124 26 150 0 q 97 101 97 53 l 97 878 q 124 953 97 926 q 199 979 150 979 l 690 979 q 793 896 793 979 q 690 811 793 811 l 308 811 l 308 582 l 663 582 q 765 497 765 582 q 663 414 765 414 l 308 414 l 308 168 l 690 168 q 793 83 793 168 q 690 0 793 0 l 199 0 m 460 1067 q 372 1095 404 1067 q 340 1172 340 1124 q 372 1249 340 1221 q 460 1276 404 1276 q 547 1248 514 1276 q 579 1172 579 1219 q 547 1095 579 1124 q 460 1067 515 1067 z "},"Ẹ":{"ha":824,"x_min":97,"x_max":793,"o":"m 199 0 q 124 26 150 0 q 97 101 97 53 l 97 878 q 124 953 97 926 q 199 979 150 979 l 690 979 q 793 896 793 979 q 690 811 793 811 l 308 811 l 308 582 l 663 582 q 765 497 765 582 q 663 414 765 414 l 308 414 l 308 168 l 690 168 q 793 83 793 168 q 690 0 793 0 l 199 0 m 460 -283 q 385 -256 414 -283 q 357 -183 357 -228 q 385 -112 357 -139 q 460 -86 414 -86 q 534 -112 506 -86 q 563 -183 563 -139 q 534 -256 563 -228 q 460 -283 506 -283 z "},"È":{"ha":824,"x_min":97,"x_max":793,"o":"m 199 0 q 124 26 150 0 q 97 101 97 53 l 97 878 q 124 953 97 926 q 199 979 150 979 l 690 979 q 793 896 793 979 q 690 811 793 811 l 308 811 l 308 582 l 663 582 q 765 497 765 582 q 663 414 765 414 l 308 414 l 308 168 l 690 168 q 793 83 793 168 q 690 0 793 0 l 199 0 m 283 1136 q 228 1211 228 1163 q 250 1263 228 1240 q 304 1286 272 1286 q 372 1254 340 1286 l 492 1136 q 508 1100 508 1121 q 494 1068 508 1081 q 460 1056 481 1056 q 435 1061 446 1056 l 283 1136 z "},"Ẻ":{"ha":824,"x_min":97,"x_max":793,"o":"m 199 0 q 124 26 150 0 q 97 101 97 53 l 97 878 q 124 953 97 926 q 199 979 150 979 l 690 979 q 793 896 793 979 q 690 811 793 811 l 308 811 l 308 582 l 663 582 q 765 497 765 582 q 663 414 765 414 l 308 414 l 308 168 l 690 168 q 793 83 793 168 q 690 0 793 0 l 199 0 m 514 1086 q 496 1063 510 1071 q 464 1056 482 1056 q 426 1067 442 1056 q 410 1097 410 1078 q 426 1137 410 1124 q 471 1160 443 1150 q 483 1165 474 1161 q 495 1172 492 1168 q 499 1179 499 1175 q 453 1203 499 1203 q 383 1192 428 1203 q 352 1201 365 1188 q 339 1232 339 1214 q 364 1268 339 1258 q 469 1285 408 1285 q 584 1260 542 1285 q 626 1197 626 1235 q 610 1155 626 1169 q 561 1124 594 1140 q 529 1107 540 1115 q 514 1086 518 1099 z "},"Ȇ":{"ha":824,"x_min":97,"x_max":793,"o":"m 199 0 q 124 26 150 0 q 97 101 97 53 l 97 878 q 124 953 97 926 q 199 979 150 979 l 690 979 q 793 896 793 979 q 690 811 793 811 l 308 811 l 308 582 l 663 582 q 765 497 765 582 q 663 414 765 414 l 308 414 l 308 168 l 690 168 q 793 83 793 168 q 690 0 793 0 l 199 0 m 325 1096 q 274 1074 301 1074 q 235 1088 251 1074 q 218 1125 218 1103 q 229 1161 218 1142 q 317 1239 256 1210 q 460 1268 379 1268 q 602 1239 540 1268 q 690 1161 664 1210 q 701 1124 701 1139 q 685 1088 701 1101 q 647 1074 669 1074 q 594 1096 618 1074 q 535 1131 571 1118 q 460 1143 499 1143 q 385 1131 421 1143 q 325 1096 349 1118 z "},"Ē":{"ha":824,"x_min":97,"x_max":793,"o":"m 199 0 q 124 26 150 0 q 97 101 97 53 l 97 878 q 124 953 97 926 q 199 979 150 979 l 690 979 q 793 896 793 979 q 690 811 793 811 l 308 811 l 308 582 l 663 582 q 765 497 765 582 q 663 414 765 414 l 308 414 l 308 168 l 690 168 q 793 83 793 168 q 690 0 793 0 l 199 0 m 292 1106 q 242 1123 261 1106 q 222 1171 222 1140 q 242 1219 222 1201 q 292 1236 261 1236 l 628 1236 q 678 1219 658 1236 q 697 1171 697 1201 q 678 1123 697 1140 q 628 1106 658 1106 l 292 1106 z "},"Ḗ":{"ha":824,"x_min":97,"x_max":793,"o":"m 199 0 q 124 26 150 0 q 97 101 97 53 l 97 878 q 124 953 97 926 q 199 979 150 979 l 690 979 q 793 896 793 979 q 690 811 793 811 l 308 811 l 308 582 l 663 582 q 765 497 765 582 q 663 414 765 414 l 308 414 l 308 168 l 690 168 q 793 83 793 168 q 690 0 793 0 l 199 0 m 292 1106 q 242 1123 261 1106 q 222 1171 222 1140 q 242 1219 222 1201 q 292 1236 261 1236 l 628 1236 q 678 1219 658 1236 q 697 1171 697 1201 q 678 1123 697 1140 q 628 1106 658 1106 l 292 1106 m 485 1283 q 458 1278 474 1278 q 424 1291 439 1278 q 410 1322 410 1304 q 428 1358 410 1340 l 547 1476 q 615 1508 579 1508 q 669 1485 646 1508 q 692 1432 692 1463 q 678 1392 692 1411 q 636 1358 664 1372 l 485 1283 z "},"Ḕ":{"ha":824,"x_min":97,"x_max":793,"o":"m 199 0 q 124 26 150 0 q 97 101 97 53 l 97 878 q 124 953 97 926 q 199 979 150 979 l 690 979 q 793 896 793 979 q 690 811 793 811 l 308 811 l 308 582 l 663 582 q 765 497 765 582 q 663 414 765 414 l 308 414 l 308 168 l 690 168 q 793 83 793 168 q 690 0 793 0 l 199 0 m 292 1106 q 242 1123 261 1106 q 222 1171 222 1140 q 242 1219 222 1201 q 292 1236 261 1236 l 628 1236 q 678 1219 658 1236 q 697 1171 697 1201 q 678 1123 697 1140 q 628 1106 658 1106 l 292 1106 m 283 1358 q 228 1433 228 1385 q 250 1485 228 1463 q 304 1508 272 1508 q 372 1476 340 1508 l 492 1358 q 508 1322 508 1343 q 494 1290 508 1303 q 460 1278 481 1278 q 435 1283 446 1278 l 283 1358 z "},"Ę":{"ha":824,"x_min":97,"x_max":835,"o":"m 785 -153 q 797 -151 789 -151 q 824 -165 814 -151 q 835 -197 835 -179 q 810 -242 835 -228 q 688 -274 756 -274 q 560 -231 610 -274 q 511 -121 511 -187 q 564 0 511 -49 l 199 0 q 124 26 150 0 q 97 101 97 53 l 97 878 q 124 953 97 926 q 199 979 150 979 l 690 979 q 793 896 793 979 q 690 811 793 811 l 308 811 l 308 582 l 663 582 q 765 497 765 582 q 663 414 765 414 l 308 414 l 308 168 l 690 168 q 793 83 793 168 q 775 29 793 49 q 718 0 757 10 q 664 -32 683 -8 q 644 -90 644 -56 q 665 -144 644 -124 q 718 -165 686 -165 q 755 -160 733 -165 q 785 -153 776 -156 z "},"Ẽ":{"ha":824,"x_min":97,"x_max":793,"o":"m 199 0 q 124 26 150 0 q 97 101 97 53 l 97 878 q 124 953 97 926 q 199 979 150 979 l 690 979 q 793 896 793 979 q 690 811 793 811 l 308 811 l 308 582 l 663 582 q 765 497 765 582 q 663 414 765 414 l 308 414 l 308 168 l 690 168 q 793 83 793 168 q 690 0 793 0 l 199 0 m 564 1085 q 497 1094 532 1085 q 456 1106 461 1104 q 357 1126 393 1126 q 332 1121 342 1126 q 311 1104 322 1115 q 290 1086 299 1092 q 265 1081 281 1081 q 234 1094 246 1081 q 222 1129 222 1107 q 240 1189 222 1158 q 288 1240 257 1219 q 356 1260 318 1260 q 423 1250 388 1260 q 464 1239 458 1240 q 563 1218 526 1218 q 587 1224 578 1218 q 608 1240 596 1229 q 629 1257 619 1251 q 654 1263 639 1263 q 686 1250 675 1263 q 697 1215 697 1238 q 680 1156 697 1186 q 632 1105 663 1125 q 564 1085 601 1085 z "},"F":{"ha":794,"x_min":97,"x_max":779,"o":"m 206 -8 q 127 22 157 -8 q 97 100 97 51 l 97 878 q 124 953 97 926 q 199 979 150 979 l 676 979 q 754 958 729 979 q 779 893 779 938 q 754 829 779 850 q 676 808 729 808 l 311 808 l 311 583 l 649 583 q 726 563 701 583 q 751 497 751 542 q 726 433 751 454 q 649 413 701 413 l 311 413 l 311 100 q 283 21 311 50 q 206 -8 254 -8 z "},"G":{"ha":1025,"x_min":69,"x_max":939,"o":"m 854 540 q 916 519 893 540 q 939 460 939 497 l 939 189 q 930 103 939 133 q 899 54 921 72 q 832 24 876 36 q 708 -3 778 7 q 575 -12 638 -12 q 306 48 419 -12 q 131 222 192 108 q 69 490 69 335 q 130 756 69 643 q 303 931 190 869 q 565 992 415 992 q 885 892 758 992 q 914 858 906 875 q 922 817 922 842 q 902 755 922 781 q 854 729 882 729 q 822 735 836 729 q 786 753 807 740 q 679 804 728 789 q 572 819 631 819 q 289 490 289 819 q 363 238 289 321 q 585 154 436 154 q 744 175 665 154 l 744 390 l 617 390 q 554 410 576 390 q 532 465 532 429 q 554 521 532 501 q 617 540 576 540 l 854 540 z "},"Ğ":{"ha":1025,"x_min":69,"x_max":939,"o":"m 854 540 q 916 519 893 540 q 939 460 939 497 l 939 189 q 930 103 939 133 q 899 54 921 72 q 832 24 876 36 q 708 -3 778 7 q 575 -12 638 -12 q 306 48 419 -12 q 131 222 192 108 q 69 490 69 335 q 130 756 69 643 q 303 931 190 869 q 565 992 415 992 q 885 892 758 992 q 914 858 906 875 q 922 817 922 842 q 902 755 922 781 q 854 729 882 729 q 822 735 836 729 q 786 753 807 740 q 679 804 728 789 q 572 819 631 819 q 289 490 289 819 q 363 238 289 321 q 585 154 436 154 q 744 175 665 154 l 744 390 l 617 390 q 554 410 576 390 q 532 465 532 429 q 554 521 532 501 q 617 540 576 540 l 854 540 m 565 1074 q 423 1103 485 1074 q 335 1181 361 1132 q 324 1218 324 1203 q 340 1253 324 1239 q 378 1268 356 1268 q 431 1244 407 1268 q 489 1210 453 1222 q 565 1199 525 1199 q 642 1210 606 1199 q 700 1244 678 1222 q 753 1267 724 1267 q 791 1253 775 1267 q 807 1217 807 1239 q 796 1181 807 1203 q 708 1103 769 1132 q 565 1074 646 1074 z "},"Ǧ":{"ha":1025,"x_min":69,"x_max":939,"o":"m 854 540 q 916 519 893 540 q 939 460 939 497 l 939 189 q 930 103 939 133 q 899 54 921 72 q 832 24 876 36 q 708 -3 778 7 q 575 -12 638 -12 q 306 48 419 -12 q 131 222 192 108 q 69 490 69 335 q 130 756 69 643 q 303 931 190 869 q 565 992 415 992 q 885 892 758 992 q 914 858 906 875 q 922 817 922 842 q 902 755 922 781 q 854 729 882 729 q 822 735 836 729 q 786 753 807 740 q 679 804 728 789 q 572 819 631 819 q 289 490 289 819 q 363 238 289 321 q 585 154 436 154 q 744 175 665 154 l 744 390 l 617 390 q 554 410 576 390 q 532 465 532 429 q 554 521 532 501 q 617 540 576 540 l 854 540 m 565 1056 q 494 1083 526 1056 l 383 1176 q 358 1225 358 1197 q 376 1266 358 1249 q 419 1283 394 1283 q 469 1263 447 1283 l 565 1169 l 661 1263 q 710 1283 682 1283 q 754 1266 736 1283 q 772 1225 772 1249 q 747 1176 772 1200 l 636 1083 q 565 1056 604 1056 z "},"Ĝ":{"ha":1025,"x_min":69,"x_max":939,"o":"m 854 540 q 916 519 893 540 q 939 460 939 497 l 939 189 q 930 103 939 133 q 899 54 921 72 q 832 24 876 36 q 708 -3 778 7 q 575 -12 638 -12 q 306 48 419 -12 q 131 222 192 108 q 69 490 69 335 q 130 756 69 643 q 303 931 190 869 q 565 992 415 992 q 885 892 758 992 q 914 858 906 875 q 922 817 922 842 q 902 755 922 781 q 854 729 882 729 q 822 735 836 729 q 786 753 807 740 q 679 804 728 789 q 572 819 631 819 q 289 490 289 819 q 363 238 289 321 q 585 154 436 154 q 744 175 665 154 l 744 390 l 617 390 q 554 410 576 390 q 532 465 532 429 q 554 521 532 501 q 617 540 576 540 l 854 540 m 469 1078 q 421 1057 449 1057 q 376 1074 394 1057 q 358 1115 358 1092 q 383 1163 358 1142 l 494 1257 q 565 1285 526 1285 q 636 1257 604 1285 l 747 1163 q 772 1115 772 1142 q 754 1074 772 1092 q 711 1057 736 1057 q 661 1078 683 1057 l 565 1171 l 469 1078 z "},"Ģ":{"ha":1025,"x_min":69,"x_max":939,"o":"m 854 540 q 916 519 893 540 q 939 460 939 497 l 939 189 q 930 103 939 133 q 899 54 921 72 q 832 24 876 36 q 708 -3 778 7 q 575 -12 638 -12 q 306 48 419 -12 q 131 222 192 108 q 69 490 69 335 q 130 756 69 643 q 303 931 190 869 q 565 992 415 992 q 885 892 758 992 q 914 858 906 875 q 922 817 922 842 q 902 755 922 781 q 854 729 882 729 q 822 735 836 729 q 786 753 807 740 q 679 804 728 789 q 572 819 631 819 q 289 490 289 819 q 363 238 289 321 q 585 154 436 154 q 744 175 665 154 l 744 390 l 617 390 q 554 410 576 390 q 532 465 532 429 q 554 521 532 501 q 617 540 576 540 l 854 540 m 572 -83 q 656 -115 625 -83 q 688 -208 688 -147 q 674 -290 688 -253 q 638 -353 660 -328 q 611 -372 626 -365 q 582 -379 596 -379 q 548 -369 561 -379 q 535 -343 535 -360 q 546 -315 535 -328 q 574 -257 568 -282 l 567 -257 q 500 -235 528 -257 q 472 -176 472 -214 q 501 -109 472 -135 q 572 -83 529 -83 z "},"Ġ":{"ha":1025,"x_min":69,"x_max":939,"o":"m 854 540 q 916 519 893 540 q 939 460 939 497 l 939 189 q 930 103 939 133 q 899 54 921 72 q 832 24 876 36 q 708 -3 778 7 q 575 -12 638 -12 q 306 48 419 -12 q 131 222 192 108 q 69 490 69 335 q 130 756 69 643 q 303 931 190 869 q 565 992 415 992 q 885 892 758 992 q 914 858 906 875 q 922 817 922 842 q 902 755 922 781 q 854 729 882 729 q 822 735 836 729 q 786 753 807 740 q 679 804 728 789 q 572 819 631 819 q 289 490 289 819 q 363 238 289 321 q 585 154 436 154 q 744 175 665 154 l 744 390 l 617 390 q 554 410 576 390 q 532 465 532 429 q 554 521 532 501 q 617 540 576 540 l 854 540 m 565 1067 q 478 1095 510 1067 q 446 1172 446 1124 q 478 1249 446 1221 q 565 1276 510 1276 q 652 1248 619 1276 q 685 1172 685 1219 q 653 1095 685 1124 q 565 1067 621 1067 z "},"Ḡ":{"ha":1025,"x_min":69,"x_max":939,"o":"m 854 540 q 916 519 893 540 q 939 460 939 497 l 939 189 q 930 103 939 133 q 899 54 921 72 q 832 24 876 36 q 708 -3 778 7 q 575 -12 638 -12 q 306 48 419 -12 q 131 222 192 108 q 69 490 69 335 q 130 756 69 643 q 303 931 190 869 q 565 992 415 992 q 885 892 758 992 q 914 858 906 875 q 922 817 922 842 q 902 755 922 781 q 854 729 882 729 q 822 735 836 729 q 786 753 807 740 q 679 804 728 789 q 572 819 631 819 q 289 490 289 819 q 363 238 289 321 q 585 154 436 154 q 744 175 665 154 l 744 390 l 617 390 q 554 410 576 390 q 532 465 532 429 q 554 521 532 501 q 617 540 576 540 l 854 540 m 397 1106 q 347 1123 367 1106 q 328 1171 328 1140 q 347 1219 328 1201 q 397 1236 367 1236 l 733 1236 q 783 1219 764 1236 q 803 1171 803 1201 q 783 1123 803 1140 q 733 1106 764 1106 l 397 1106 z "},"H":{"ha":1071,"x_min":97,"x_max":974,"o":"m 867 986 q 944 957 915 986 q 974 879 974 928 l 974 100 q 944 22 974 51 q 867 -8 915 -8 q 790 21 818 -8 q 761 100 761 50 l 761 411 l 310 411 l 310 100 q 281 22 310 51 q 204 -8 251 -8 q 126 21 156 -8 q 97 100 97 50 l 97 879 q 126 957 97 928 q 204 986 156 986 q 281 957 253 986 q 310 879 310 928 l 310 583 l 761 583 l 761 879 q 790 957 761 928 q 867 986 818 986 z "},"Ħ":{"ha":1154,"x_min":0,"x_max":1154,"o":"m 1057 861 q 1129 840 1104 861 q 1154 782 1154 818 q 1129 724 1154 746 q 1057 703 1104 703 l 1015 703 l 1015 100 q 985 19 1015 47 q 908 -8 954 -8 q 833 19 863 -8 q 803 100 803 47 l 803 411 l 351 411 l 351 100 q 321 19 351 47 q 244 -8 290 -8 q 169 19 199 -8 q 139 100 139 47 l 139 703 l 97 703 q 25 724 50 703 q 0 782 0 746 q 25 840 0 818 q 97 861 50 861 l 139 861 l 139 879 q 169 958 139 931 q 244 986 199 986 q 321 958 290 986 q 351 879 351 931 l 351 861 l 803 861 l 803 879 q 833 958 803 931 q 908 986 863 986 q 985 958 954 986 q 1015 879 1015 931 l 1015 861 l 1057 861 m 803 703 l 351 703 l 351 583 l 803 583 l 803 703 z "},"Ḫ":{"ha":1071,"x_min":97,"x_max":974,"o":"m 867 986 q 944 957 915 986 q 974 879 974 928 l 974 100 q 944 22 974 51 q 867 -8 915 -8 q 790 21 818 -8 q 761 100 761 50 l 761 411 l 310 411 l 310 100 q 281 22 310 51 q 204 -8 251 -8 q 126 21 156 -8 q 97 100 97 50 l 97 879 q 126 957 97 928 q 204 986 156 986 q 281 957 253 986 q 310 879 310 928 l 310 583 l 761 583 l 761 879 q 790 957 761 928 q 867 986 818 986 m 536 -315 q 388 -274 454 -315 q 296 -165 321 -232 q 290 -139 290 -153 q 307 -99 290 -114 q 347 -83 324 -83 q 403 -114 381 -83 q 536 -179 449 -179 q 669 -114 624 -179 q 724 -83 692 -83 q 765 -99 747 -83 q 782 -139 782 -115 q 776 -165 782 -153 q 685 -274 751 -232 q 536 -315 618 -315 z "},"Ĥ":{"ha":1071,"x_min":97,"x_max":974,"o":"m 867 986 q 944 957 915 986 q 974 879 974 928 l 974 100 q 944 22 974 51 q 867 -8 915 -8 q 790 21 818 -8 q 761 100 761 50 l 761 411 l 310 411 l 310 100 q 281 22 310 51 q 204 -8 251 -8 q 126 21 156 -8 q 97 100 97 50 l 97 879 q 126 957 97 928 q 204 986 156 986 q 281 957 253 986 q 310 879 310 928 l 310 583 l 761 583 l 761 879 q 790 957 761 928 q 867 986 818 986 m 440 1078 q 392 1057 419 1057 q 347 1074 365 1057 q 329 1115 329 1092 q 354 1163 329 1142 l 465 1257 q 536 1285 497 1285 q 607 1257 575 1285 l 718 1163 q 743 1115 743 1142 q 725 1074 743 1092 q 682 1057 707 1057 q 632 1078 654 1057 l 536 1171 l 440 1078 z "},"Ḥ":{"ha":1071,"x_min":97,"x_max":974,"o":"m 867 986 q 944 957 915 986 q 974 879 974 928 l 974 100 q 944 22 974 51 q 867 -8 915 -8 q 790 21 818 -8 q 761 100 761 50 l 761 411 l 310 411 l 310 100 q 281 22 310 51 q 204 -8 251 -8 q 126 21 156 -8 q 97 100 97 50 l 97 879 q 126 957 97 928 q 204 986 156 986 q 281 957 253 986 q 310 879 310 928 l 310 583 l 761 583 l 761 879 q 790 957 761 928 q 867 986 818 986 m 536 -283 q 462 -256 490 -283 q 433 -183 433 -228 q 462 -112 433 -139 q 536 -86 490 -86 q 610 -112 582 -86 q 639 -183 639 -139 q 610 -256 639 -228 q 536 -283 582 -283 z "},"I":{"ha":411,"x_min":97,"x_max":314,"o":"m 206 -8 q 126 21 156 -8 q 97 100 97 50 l 97 879 q 126 957 97 928 q 206 986 156 986 q 285 957 256 986 q 314 879 314 928 l 314 100 q 285 21 314 50 q 206 -8 256 -8 z "},"Í":{"ha":411,"x_min":97,"x_max":438,"o":"m 206 -8 q 126 21 156 -8 q 97 100 97 50 l 97 879 q 126 957 97 928 q 206 986 156 986 q 285 957 256 986 q 314 879 314 928 l 314 100 q 285 21 314 50 q 206 -8 256 -8 m 231 1061 q 204 1056 219 1056 q 170 1069 185 1056 q 156 1100 156 1082 q 174 1136 156 1118 l 293 1254 q 361 1286 325 1286 q 415 1263 392 1286 q 438 1210 438 1240 q 424 1169 438 1189 q 382 1136 410 1150 l 231 1061 z "},"Ĭ":{"ha":411,"x_min":-36,"x_max":447,"o":"m 206 -8 q 126 21 156 -8 q 97 100 97 50 l 97 879 q 126 957 97 928 q 206 986 156 986 q 285 957 256 986 q 314 879 314 928 l 314 100 q 285 21 314 50 q 206 -8 256 -8 m 206 1074 q 63 1103 125 1074 q -25 1181 1 1132 q -36 1218 -36 1203 q -20 1253 -36 1239 q 18 1268 -4 1268 q 71 1244 47 1268 q 129 1210 93 1222 q 206 1199 165 1199 q 282 1210 246 1199 q 340 1244 318 1222 q 393 1267 364 1267 q 431 1253 415 1267 q 447 1217 447 1239 q 436 1181 447 1203 q 348 1103 410 1132 q 206 1074 286 1074 z "},"Î":{"ha":411,"x_min":-1,"x_max":413,"o":"m 206 -8 q 126 21 156 -8 q 97 100 97 50 l 97 879 q 126 957 97 928 q 206 986 156 986 q 285 957 256 986 q 314 879 314 928 l 314 100 q 285 21 314 50 q 206 -8 256 -8 m 110 1078 q 61 1057 89 1057 q 17 1074 35 1057 q -1 1115 -1 1092 q 24 1163 -1 1142 l 135 1257 q 206 1285 167 1285 q 276 1257 244 1285 l 388 1163 q 413 1115 413 1142 q 394 1074 413 1092 q 351 1057 376 1057 q 301 1078 324 1057 l 206 1171 l 110 1078 z "},"Ȉ":{"ha":411,"x_min":-40,"x_max":347,"o":"m 206 -8 q 126 21 156 -8 q 97 100 97 50 l 97 879 q 126 957 97 928 q 206 986 156 986 q 285 957 256 986 q 314 879 314 928 l 314 100 q 285 21 314 50 q 206 -8 256 -8 m -18 1165 q -40 1214 -40 1188 q -16 1264 -40 1243 q 38 1285 8 1285 q 99 1240 79 1285 l 150 1125 q 154 1101 154 1113 q 141 1069 154 1082 q 110 1056 128 1056 q 71 1074 89 1056 l -18 1165 m 174 1165 q 151 1214 151 1188 q 176 1264 151 1243 q 229 1285 200 1285 q 290 1240 271 1285 l 342 1125 q 347 1101 347 1114 q 334 1069 347 1082 q 303 1056 321 1056 q 264 1074 282 1056 l 174 1165 z "},"Ï":{"ha":411,"x_min":-31,"x_max":442,"o":"m 206 -8 q 126 21 156 -8 q 97 100 97 50 l 97 879 q 126 957 97 928 q 206 986 156 986 q 285 957 256 986 q 314 879 314 928 l 314 100 q 285 21 314 50 q 206 -8 256 -8 m 74 1074 q -1 1101 28 1074 q -31 1172 -31 1128 q -1 1243 -31 1217 q 74 1269 28 1269 q 149 1243 119 1269 q 178 1172 178 1217 q 149 1101 178 1128 q 74 1074 121 1074 m 338 1074 q 263 1101 292 1074 q 235 1172 235 1128 q 263 1243 235 1217 q 338 1269 292 1269 q 413 1243 383 1269 q 442 1172 442 1217 q 413 1101 442 1128 q 338 1074 383 1074 z "},"Ḯ":{"ha":411,"x_min":-31,"x_max":442,"o":"m 206 -8 q 126 21 156 -8 q 97 100 97 50 l 97 879 q 126 957 97 928 q 206 986 156 986 q 285 957 256 986 q 314 879 314 928 l 314 100 q 285 21 314 50 q 206 -8 256 -8 m 74 1074 q -1 1101 28 1074 q -31 1172 -31 1128 q -1 1243 -31 1217 q 74 1269 28 1269 q 149 1243 119 1269 q 178 1172 178 1217 q 149 1101 178 1128 q 74 1074 121 1074 m 338 1074 q 263 1101 292 1074 q 235 1172 235 1128 q 263 1243 235 1217 q 338 1269 292 1269 q 413 1243 383 1269 q 442 1172 442 1217 q 413 1101 442 1128 q 338 1074 383 1074 m 231 1283 q 204 1278 219 1278 q 170 1291 185 1278 q 156 1322 156 1304 q 174 1358 156 1340 l 293 1476 q 361 1508 325 1508 q 415 1485 392 1508 q 438 1432 438 1463 q 424 1392 438 1411 q 382 1358 410 1372 l 231 1283 z "},"İ":{"ha":411,"x_min":86,"x_max":325,"o":"m 206 -8 q 126 21 156 -8 q 97 100 97 50 l 97 879 q 126 957 97 928 q 206 986 156 986 q 285 957 256 986 q 314 879 314 928 l 314 100 q 285 21 314 50 q 206 -8 256 -8 m 206 1067 q 118 1095 150 1067 q 86 1172 86 1124 q 118 1249 86 1221 q 206 1276 150 1276 q 292 1248 260 1276 q 325 1172 325 1219 q 293 1095 325 1124 q 206 1067 261 1067 z "},"Ị":{"ha":411,"x_min":97,"x_max":314,"o":"m 206 -8 q 126 21 156 -8 q 97 100 97 50 l 97 879 q 126 957 97 928 q 206 986 156 986 q 285 957 256 986 q 314 879 314 928 l 314 100 q 285 21 314 50 q 206 -8 256 -8 m 206 -283 q 131 -256 160 -283 q 103 -183 103 -228 q 131 -112 103 -139 q 206 -86 160 -86 q 280 -112 251 -86 q 308 -183 308 -139 q 280 -256 308 -228 q 206 -283 251 -283 z "},"Ì":{"ha":411,"x_min":-26,"x_max":314,"o":"m 206 -8 q 126 21 156 -8 q 97 100 97 50 l 97 879 q 126 957 97 928 q 206 986 156 986 q 285 957 256 986 q 314 879 314 928 l 314 100 q 285 21 314 50 q 206 -8 256 -8 m 29 1136 q -26 1211 -26 1163 q -4 1263 -26 1240 q 50 1286 18 1286 q 118 1254 86 1286 l 238 1136 q 254 1100 254 1121 q 240 1068 254 1081 q 206 1056 226 1056 q 181 1061 192 1056 l 29 1136 z "},"Ỉ":{"ha":411,"x_min":85,"x_max":372,"o":"m 206 -8 q 126 21 156 -8 q 97 100 97 50 l 97 879 q 126 957 97 928 q 206 986 156 986 q 285 957 256 986 q 314 879 314 928 l 314 100 q 285 21 314 50 q 206 -8 256 -8 m 260 1086 q 242 1063 256 1071 q 210 1056 228 1056 q 172 1067 188 1056 q 156 1097 156 1078 q 172 1137 156 1124 q 217 1160 189 1150 q 228 1165 219 1161 q 241 1172 238 1168 q 244 1179 244 1175 q 199 1203 244 1203 q 129 1192 174 1203 q 98 1201 111 1188 q 85 1232 85 1214 q 110 1268 85 1258 q 215 1285 154 1285 q 330 1260 288 1285 q 372 1197 372 1235 q 356 1155 372 1169 q 307 1124 340 1140 q 275 1107 286 1115 q 260 1086 264 1099 z "},"Ȋ":{"ha":411,"x_min":-36,"x_max":447,"o":"m 206 -8 q 126 21 156 -8 q 97 100 97 50 l 97 879 q 126 957 97 928 q 206 986 156 986 q 285 957 256 986 q 314 879 314 928 l 314 100 q 285 21 314 50 q 206 -8 256 -8 m 71 1096 q 19 1074 47 1074 q -19 1088 -3 1074 q -36 1125 -36 1103 q -25 1161 -36 1142 q 63 1239 1 1210 q 206 1268 125 1268 q 348 1239 286 1268 q 436 1161 410 1210 q 447 1124 447 1139 q 431 1088 447 1101 q 393 1074 415 1074 q 340 1096 364 1074 q 281 1131 317 1118 q 206 1143 244 1143 q 131 1131 167 1143 q 71 1096 94 1118 z "},"Ī":{"ha":411,"x_min":-32,"x_max":443,"o":"m 206 -8 q 126 21 156 -8 q 97 100 97 50 l 97 879 q 126 957 97 928 q 206 986 156 986 q 285 957 256 986 q 314 879 314 928 l 314 100 q 285 21 314 50 q 206 -8 256 -8 m 38 1106 q -12 1123 7 1106 q -32 1171 -32 1140 q -12 1219 -32 1201 q 38 1236 7 1236 l 374 1236 q 424 1219 404 1236 q 443 1171 443 1201 q 424 1123 443 1140 q 374 1106 404 1106 l 38 1106 z "},"Į":{"ha":411,"x_min":50,"x_max":374,"o":"m 325 -153 q 338 -151 329 -151 q 364 -165 354 -151 q 374 -197 374 -179 q 349 -242 374 -228 q 226 -274 297 -274 q 99 -230 149 -274 q 50 -117 50 -186 q 70 -40 50 -75 q 126 22 90 -4 q 97 100 97 51 l 97 879 q 126 957 97 928 q 206 986 156 986 q 285 957 256 986 q 314 879 314 928 l 314 100 q 301 42 314 67 q 265 8 288 18 q 185 -90 185 -29 q 205 -144 185 -124 q 258 -165 225 -165 q 325 -153 283 -165 z "},"Ĩ":{"ha":411,"x_min":-32,"x_max":443,"o":"m 206 -8 q 126 21 156 -8 q 97 100 97 50 l 97 879 q 126 957 97 928 q 206 986 156 986 q 285 957 256 986 q 314 879 314 928 l 314 100 q 285 21 314 50 q 206 -8 256 -8 m 310 1085 q 242 1094 278 1085 q 201 1106 207 1104 q 103 1126 139 1126 q 78 1121 88 1126 q 57 1104 68 1115 q 35 1086 44 1092 q 11 1081 26 1081 q -20 1094 -8 1081 q -32 1129 -32 1107 q -15 1189 -32 1158 q 33 1240 3 1219 q 101 1260 64 1260 q 169 1250 133 1260 q 210 1239 204 1240 q 308 1218 272 1218 q 333 1224 324 1218 q 354 1240 342 1229 q 375 1257 365 1251 q 400 1263 385 1263 q 432 1250 421 1263 q 443 1215 443 1238 q 426 1156 443 1186 q 378 1105 408 1125 q 310 1085 347 1085 z "},"J":{"ha":524,"x_min":-22,"x_max":426,"o":"m 107 -8 q 10 11 43 -11 q -22 79 -22 33 q -1 141 -22 121 q 64 164 19 161 l 108 167 q 208 285 208 171 l 208 879 q 239 957 208 928 q 318 986 269 986 q 397 957 367 986 q 426 879 426 928 l 426 288 q 151 -6 426 13 l 107 -8 z "},"Ĵ":{"ha":524,"x_min":-22,"x_max":525,"o":"m 107 -8 q 10 11 43 -11 q -22 79 -22 33 q -1 141 -22 121 q 64 164 19 161 l 108 167 q 208 285 208 171 l 208 879 q 239 957 208 928 q 318 986 269 986 q 397 957 367 986 q 426 879 426 928 l 426 288 q 151 -6 426 13 l 107 -8 m 222 1078 q 174 1057 201 1057 q 129 1074 147 1057 q 111 1115 111 1092 q 136 1163 111 1142 l 247 1257 q 318 1285 279 1285 q 389 1257 357 1285 l 500 1163 q 525 1115 525 1142 q 507 1074 525 1092 q 464 1057 489 1057 q 414 1078 436 1057 l 318 1171 l 222 1078 z "},"K":{"ha":942,"x_min":97,"x_max":922,"o":"m 890 163 q 922 93 922 131 q 892 25 922 54 q 824 -4 863 -4 q 744 32 779 -4 l 314 453 l 314 100 q 285 21 314 50 q 206 -8 256 -8 q 126 21 156 -8 q 97 100 97 50 l 97 879 q 126 957 97 928 q 206 986 156 986 q 285 957 256 986 q 314 879 314 928 l 314 547 l 733 954 q 803 985 764 985 q 871 956 842 985 q 900 889 900 928 q 867 817 900 849 l 536 507 l 890 163 z "},"Ķ":{"ha":942,"x_min":97,"x_max":922,"o":"m 890 163 q 922 93 922 131 q 892 25 922 54 q 824 -4 863 -4 q 744 32 779 -4 l 314 453 l 314 100 q 285 21 314 50 q 206 -8 256 -8 q 126 21 156 -8 q 97 100 97 50 l 97 879 q 126 957 97 928 q 206 986 156 986 q 285 957 256 986 q 314 879 314 928 l 314 547 l 733 954 q 803 985 764 985 q 871 956 842 985 q 900 889 900 928 q 867 817 900 849 l 536 507 l 890 163 m 471 -83 q 555 -115 524 -83 q 586 -208 586 -147 q 572 -290 586 -253 q 536 -353 558 -328 q 510 -372 525 -365 q 481 -379 494 -379 q 447 -369 460 -379 q 433 -343 433 -360 q 444 -315 433 -328 q 472 -257 467 -282 l 465 -257 q 399 -235 426 -257 q 371 -176 371 -214 q 399 -109 371 -135 q 471 -83 428 -83 z "},"L":{"ha":782,"x_min":97,"x_max":771,"o":"m 199 0 q 124 26 150 0 q 97 101 97 53 l 97 879 q 126 957 97 928 q 206 986 156 986 q 285 957 256 986 q 314 879 314 928 l 314 176 l 669 176 q 771 88 771 176 q 669 0 771 0 l 199 0 z "},"Ǉ":{"ha":1310,"x_min":97,"x_max":1213,"o":"m 199 0 q 124 26 150 0 q 97 101 97 53 l 97 879 q 126 957 97 928 q 206 986 156 986 q 285 957 256 986 q 314 879 314 928 l 314 176 l 628 176 q 729 88 729 176 q 628 0 729 0 l 199 0 m 893 -8 q 797 10 831 -12 q 764 79 764 33 q 785 141 764 121 q 850 164 806 161 l 894 167 q 996 285 996 174 l 996 879 q 1026 957 996 928 q 1104 986 1056 986 q 1183 957 1153 986 q 1213 879 1213 928 l 1213 288 q 1144 76 1213 150 q 938 -6 1075 3 l 893 -8 z "},"Ĺ":{"ha":782,"x_min":97,"x_max":771,"o":"m 199 0 q 124 26 150 0 q 97 101 97 53 l 97 879 q 126 957 97 928 q 206 986 156 986 q 285 957 256 986 q 314 879 314 928 l 314 176 l 669 176 q 771 88 771 176 q 669 0 771 0 l 199 0 m 231 1061 q 204 1056 219 1056 q 170 1069 185 1056 q 156 1100 156 1082 q 174 1136 156 1118 l 293 1254 q 361 1286 325 1286 q 415 1263 392 1286 q 438 1210 438 1240 q 424 1169 438 1189 q 382 1136 410 1150 l 231 1061 z "},"Ľ":{"ha":782,"x_min":97,"x_max":771,"o":"m 199 0 q 124 26 150 0 q 97 101 97 53 l 97 879 q 126 957 97 928 q 206 986 156 986 q 285 957 256 986 q 314 879 314 928 l 314 176 l 669 176 q 771 88 771 176 q 669 0 771 0 l 199 0 m 532 724 q 514 698 526 707 q 485 689 501 689 q 449 701 464 689 q 435 733 435 713 l 435 915 q 457 969 435 950 q 510 989 479 989 q 562 972 540 989 q 583 924 583 954 q 581 901 583 910 l 532 724 z "},"Ļ":{"ha":782,"x_min":97,"x_max":771,"o":"m 199 0 q 124 26 150 0 q 97 101 97 53 l 97 879 q 126 957 97 928 q 206 986 156 986 q 285 957 256 986 q 314 879 314 928 l 314 176 l 669 176 q 771 88 771 176 q 669 0 771 0 l 199 0 m 432 -83 q 516 -115 485 -83 q 547 -208 547 -147 q 533 -290 547 -253 q 497 -353 519 -328 q 471 -372 486 -365 q 442 -379 456 -379 q 408 -369 421 -379 q 394 -343 394 -360 q 406 -315 394 -328 q 433 -257 428 -282 l 426 -257 q 360 -235 388 -257 q 332 -176 332 -214 q 360 -109 332 -135 q 432 -83 389 -83 z "},"Ŀ":{"ha":782,"x_min":97,"x_max":771,"o":"m 199 0 q 124 26 150 0 q 97 101 97 53 l 97 879 q 126 957 97 928 q 206 986 156 986 q 285 957 256 986 q 314 879 314 928 l 314 176 l 669 176 q 771 88 771 176 q 669 0 771 0 l 199 0 m 543 386 q 456 415 488 386 q 424 492 424 443 q 456 568 424 540 q 543 596 488 596 q 630 567 597 596 q 663 492 663 539 q 631 415 663 443 q 543 386 599 386 z "},"Ḷ":{"ha":782,"x_min":97,"x_max":771,"o":"m 199 0 q 124 26 150 0 q 97 101 97 53 l 97 879 q 126 957 97 928 q 206 986 156 986 q 285 957 256 986 q 314 879 314 928 l 314 176 l 669 176 q 771 88 771 176 q 669 0 771 0 l 199 0 m 435 -283 q 360 -256 389 -283 q 332 -183 332 -228 q 360 -112 332 -139 q 435 -86 389 -86 q 509 -112 481 -86 q 538 -183 538 -139 q 509 -256 538 -228 q 435 -283 481 -283 z "},"ǈ":{"ha":1153,"x_min":97,"x_max":1086,"o":"m 199 0 q 124 26 150 0 q 97 101 97 53 l 97 879 q 126 957 97 928 q 206 986 156 986 q 285 957 256 986 q 314 879 314 928 l 314 176 l 669 176 q 771 88 771 176 q 669 0 771 0 l 199 0 m 792 -253 q 700 -237 733 -257 q 667 -175 667 -217 q 749 -101 667 -107 l 788 -99 q 843 -74 824 -96 q 863 -11 863 -53 l 863 597 q 893 671 863 646 q 968 696 924 696 q 1042 671 1013 696 q 1072 597 1072 646 l 1072 4 q 831 -250 1072 -232 l 792 -253 m 967 807 q 879 835 911 807 q 847 913 847 864 q 879 989 847 961 q 967 1017 911 1017 q 1053 988 1021 1017 q 1086 913 1086 960 q 1054 835 1086 864 q 967 807 1022 807 z "},"Ḻ":{"ha":782,"x_min":97,"x_max":771,"o":"m 199 0 q 124 26 150 0 q 97 101 97 53 l 97 879 q 126 957 97 928 q 206 986 156 986 q 285 957 256 986 q 314 879 314 928 l 314 176 l 669 176 q 771 88 771 176 q 669 0 771 0 l 199 0 m 267 -246 q 217 -230 236 -246 q 197 -185 197 -214 q 217 -140 197 -157 q 267 -124 236 -124 l 603 -124 q 653 -140 633 -124 q 672 -185 672 -157 q 653 -230 672 -214 q 603 -246 633 -246 l 267 -246 z "},"Ł":{"ha":824,"x_min":0,"x_max":813,"o":"m 711 176 q 813 88 813 176 q 711 0 813 0 l 240 0 q 165 26 192 0 q 139 101 139 53 l 139 340 l 128 333 q 76 318 103 318 q 22 342 44 318 q 0 396 0 365 q 13 438 0 418 q 49 472 25 458 l 139 524 l 139 879 q 168 957 139 928 q 246 986 197 986 q 326 957 297 986 q 356 879 356 928 l 356 649 l 496 729 q 544 743 519 743 q 601 719 578 743 q 624 665 624 696 q 611 625 624 644 q 575 592 599 606 l 356 465 l 356 176 l 711 176 z "},"M":{"ha":1169,"x_min":100,"x_max":1069,"o":"m 967 986 q 1041 956 1013 986 q 1069 879 1069 926 l 1069 90 q 1043 18 1069 44 q 974 -8 1017 -8 q 906 18 932 -8 q 879 90 879 44 l 879 581 l 682 210 q 640 157 663 174 q 585 140 617 140 q 531 157 554 140 q 488 210 507 174 l 290 574 l 290 90 q 264 19 290 46 q 194 -8 238 -8 q 126 18 153 -8 q 100 90 100 44 l 100 879 q 128 956 100 926 q 203 986 157 986 q 304 915 269 986 l 586 381 l 867 915 q 967 986 904 986 z "},"Ṃ":{"ha":1169,"x_min":100,"x_max":1069,"o":"m 967 986 q 1041 956 1013 986 q 1069 879 1069 926 l 1069 90 q 1043 18 1069 44 q 974 -8 1017 -8 q 906 18 932 -8 q 879 90 879 44 l 879 581 l 682 210 q 640 157 663 174 q 585 140 617 140 q 531 157 554 140 q 488 210 507 174 l 290 574 l 290 90 q 264 19 290 46 q 194 -8 238 -8 q 126 18 153 -8 q 100 90 100 44 l 100 879 q 128 956 100 926 q 203 986 157 986 q 304 915 269 986 l 586 381 l 867 915 q 967 986 904 986 m 585 -283 q 510 -256 539 -283 q 482 -183 482 -228 q 510 -112 482 -139 q 585 -86 539 -86 q 659 -112 631 -86 q 688 -183 688 -139 q 659 -256 688 -228 q 585 -283 631 -283 z "},"N":{"ha":1044,"x_min":97,"x_max":947,"o":"m 844 986 q 919 956 890 986 q 947 879 947 926 l 947 100 q 919 22 947 51 q 844 -8 890 -8 q 764 28 794 -8 l 299 624 l 299 100 q 272 22 299 51 q 199 -8 244 -8 q 125 22 153 -8 q 97 100 97 51 l 97 879 q 126 956 97 926 q 200 986 154 986 q 279 950 251 986 l 744 358 l 744 879 q 772 956 744 926 q 844 986 800 986 z "},"Ǌ":{"ha":1568,"x_min":97,"x_max":1471,"o":"m 844 986 q 919 956 890 986 q 947 879 947 926 l 947 100 q 919 22 947 51 q 844 -8 890 -8 q 764 28 794 -8 l 299 624 l 299 100 q 272 22 299 51 q 199 -8 244 -8 q 125 22 153 -8 q 97 100 97 51 l 97 879 q 126 956 97 926 q 200 986 154 986 q 279 950 251 986 l 744 358 l 744 879 q 772 956 744 926 q 844 986 800 986 m 1151 -8 q 1055 11 1088 -11 q 1022 79 1022 33 q 1043 141 1022 121 q 1108 164 1064 161 l 1153 167 q 1253 285 1253 171 l 1253 879 q 1283 957 1253 928 q 1363 986 1314 986 q 1441 957 1411 986 q 1471 879 1471 928 l 1471 288 q 1196 -6 1471 13 l 1151 -8 z "},"Ń":{"ha":1044,"x_min":97,"x_max":947,"o":"m 844 986 q 919 956 890 986 q 947 879 947 926 l 947 100 q 919 22 947 51 q 844 -8 890 -8 q 764 28 794 -8 l 299 624 l 299 100 q 272 22 299 51 q 199 -8 244 -8 q 125 22 153 -8 q 97 100 97 51 l 97 879 q 126 956 97 926 q 200 986 154 986 q 279 950 251 986 l 744 358 l 744 879 q 772 956 744 926 q 844 986 800 986 m 547 1061 q 521 1056 536 1056 q 487 1069 501 1056 q 472 1100 472 1082 q 490 1136 472 1118 l 610 1254 q 678 1286 642 1286 q 731 1263 708 1286 q 754 1210 754 1240 q 740 1169 754 1189 q 699 1136 726 1150 l 547 1061 z "},"Ň":{"ha":1044,"x_min":97,"x_max":947,"o":"m 844 986 q 919 956 890 986 q 947 879 947 926 l 947 100 q 919 22 947 51 q 844 -8 890 -8 q 764 28 794 -8 l 299 624 l 299 100 q 272 22 299 51 q 199 -8 244 -8 q 125 22 153 -8 q 97 100 97 51 l 97 879 q 126 956 97 926 q 200 986 154 986 q 279 950 251 986 l 744 358 l 744 879 q 772 956 744 926 q 844 986 800 986 m 522 1056 q 451 1083 483 1056 l 340 1176 q 315 1225 315 1197 q 333 1266 315 1249 q 376 1283 351 1283 q 426 1263 404 1283 l 522 1169 l 618 1263 q 667 1283 639 1283 q 711 1266 693 1283 q 729 1225 729 1249 q 704 1176 729 1200 l 593 1083 q 522 1056 561 1056 z "},"Ņ":{"ha":1044,"x_min":97,"x_max":947,"o":"m 844 986 q 919 956 890 986 q 947 879 947 926 l 947 100 q 919 22 947 51 q 844 -8 890 -8 q 764 28 794 -8 l 299 624 l 299 100 q 272 22 299 51 q 199 -8 244 -8 q 125 22 153 -8 q 97 100 97 51 l 97 879 q 126 956 97 926 q 200 986 154 986 q 279 950 251 986 l 744 358 l 744 879 q 772 956 744 926 q 844 986 800 986 m 521 -83 q 605 -115 574 -83 q 636 -208 636 -147 q 622 -290 636 -253 q 586 -353 608 -328 q 560 -372 575 -365 q 531 -379 544 -379 q 497 -369 510 -379 q 483 -343 483 -360 q 494 -315 483 -328 q 522 -257 517 -282 l 515 -257 q 449 -235 476 -257 q 421 -176 421 -214 q 449 -109 421 -135 q 521 -83 478 -83 z "},"Ṅ":{"ha":1044,"x_min":97,"x_max":947,"o":"m 844 986 q 919 956 890 986 q 947 879 947 926 l 947 100 q 919 22 947 51 q 844 -8 890 -8 q 764 28 794 -8 l 299 624 l 299 100 q 272 22 299 51 q 199 -8 244 -8 q 125 22 153 -8 q 97 100 97 51 l 97 879 q 126 956 97 926 q 200 986 154 986 q 279 950 251 986 l 744 358 l 744 879 q 772 956 744 926 q 844 986 800 986 m 522 1067 q 435 1095 467 1067 q 403 1172 403 1124 q 435 1249 403 1221 q 522 1276 467 1276 q 609 1248 576 1276 q 642 1172 642 1219 q 610 1095 642 1124 q 522 1067 578 1067 z "},"Ṇ":{"ha":1044,"x_min":97,"x_max":947,"o":"m 844 986 q 919 956 890 986 q 947 879 947 926 l 947 100 q 919 22 947 51 q 844 -8 890 -8 q 764 28 794 -8 l 299 624 l 299 100 q 272 22 299 51 q 199 -8 244 -8 q 125 22 153 -8 q 97 100 97 51 l 97 879 q 126 956 97 926 q 200 986 154 986 q 279 950 251 986 l 744 358 l 744 879 q 772 956 744 926 q 844 986 800 986 m 524 -283 q 449 -256 478 -283 q 421 -183 421 -228 q 449 -112 421 -139 q 524 -86 478 -86 q 598 -112 569 -86 q 626 -183 626 -139 q 598 -256 626 -228 q 524 -283 569 -283 z "},"Ŋ":{"ha":1044,"x_min":97,"x_max":947,"o":"m 844 986 q 919 956 890 986 q 947 879 947 926 l 947 40 q 672 -253 947 -235 l 628 -256 q 533 -238 567 -260 q 499 -174 499 -217 q 583 -94 499 -100 l 629 -92 q 713 -57 682 -89 q 743 26 743 -25 l 743 56 l 299 624 l 299 100 q 271 22 299 51 q 199 -8 243 -8 q 125 22 153 -8 q 97 100 97 51 l 97 879 q 126 956 97 926 q 200 986 154 986 q 279 950 251 986 l 744 358 l 744 879 q 772 956 744 926 q 844 986 800 986 z "},"ǋ":{"ha":1415,"x_min":97,"x_max":1349,"o":"m 844 986 q 919 956 890 986 q 947 879 947 926 l 947 100 q 919 22 947 51 q 844 -8 890 -8 q 764 28 794 -8 l 299 624 l 299 100 q 272 22 299 51 q 199 -8 244 -8 q 125 22 153 -8 q 97 100 97 51 l 97 879 q 126 956 97 926 q 200 986 154 986 q 279 950 251 986 l 744 358 l 744 879 q 772 956 744 926 q 844 986 800 986 m 1054 -253 q 963 -237 996 -257 q 929 -175 929 -217 q 1011 -101 929 -107 l 1050 -99 q 1106 -74 1086 -96 q 1125 -11 1125 -53 l 1125 597 q 1156 671 1125 646 q 1231 696 1186 696 q 1305 671 1275 696 q 1335 597 1335 646 l 1335 4 q 1093 -250 1335 -232 l 1054 -253 m 1229 807 q 1142 835 1174 807 q 1110 913 1110 864 q 1142 989 1110 961 q 1229 1017 1174 1017 q 1316 988 1283 1017 q 1349 913 1349 960 q 1317 835 1349 864 q 1229 807 1285 807 z "},"Ṉ":{"ha":1044,"x_min":97,"x_max":947,"o":"m 844 986 q 919 956 890 986 q 947 879 947 926 l 947 100 q 919 22 947 51 q 844 -8 890 -8 q 764 28 794 -8 l 299 624 l 299 100 q 272 22 299 51 q 199 -8 244 -8 q 125 22 153 -8 q 97 100 97 51 l 97 879 q 126 956 97 926 q 200 986 154 986 q 279 950 251 986 l 744 358 l 744 879 q 772 956 744 926 q 844 986 800 986 m 356 -246 q 306 -230 325 -246 q 286 -185 286 -214 q 306 -140 286 -157 q 356 -124 325 -124 l 692 -124 q 742 -140 722 -124 q 761 -185 761 -157 q 742 -230 761 -214 q 692 -246 722 -246 l 356 -246 z "},"Ñ":{"ha":1044,"x_min":97,"x_max":947,"o":"m 844 986 q 919 956 890 986 q 947 879 947 926 l 947 100 q 919 22 947 51 q 844 -8 890 -8 q 764 28 794 -8 l 299 624 l 299 100 q 272 22 299 51 q 199 -8 244 -8 q 125 22 153 -8 q 97 100 97 51 l 97 879 q 126 956 97 926 q 200 986 154 986 q 279 950 251 986 l 744 358 l 744 879 q 772 956 744 926 q 844 986 800 986 m 626 1085 q 559 1094 594 1085 q 518 1106 524 1104 q 419 1126 456 1126 q 394 1121 404 1126 q 374 1104 385 1115 q 352 1086 361 1092 q 328 1081 343 1081 q 297 1094 308 1081 q 285 1129 285 1107 q 302 1189 285 1158 q 350 1240 319 1219 q 418 1260 381 1260 q 485 1250 450 1260 q 526 1239 521 1240 q 625 1218 589 1218 q 649 1224 640 1218 q 671 1240 658 1229 q 692 1257 682 1251 q 717 1263 701 1263 q 749 1250 738 1263 q 760 1215 760 1238 q 742 1156 760 1186 q 694 1105 725 1125 q 626 1085 664 1085 z "},"O":{"ha":1093,"x_min":69,"x_max":1025,"o":"m 547 -12 q 294 49 401 -12 q 128 224 186 111 q 69 490 69 338 q 128 756 69 643 q 294 931 186 869 q 547 992 401 992 q 801 931 693 992 q 967 756 908 869 q 1025 490 1025 643 q 967 224 1025 338 q 801 49 908 111 q 547 -12 693 -12 m 547 156 q 740 242 669 156 q 810 490 810 328 q 740 738 810 653 q 547 824 671 824 q 355 738 424 824 q 286 490 286 653 q 356 242 286 328 q 547 156 425 156 z "},"Ó":{"ha":1093,"x_min":69,"x_max":1025,"o":"m 547 -12 q 294 49 401 -12 q 128 224 186 111 q 69 490 69 338 q 128 756 69 643 q 294 931 186 869 q 547 992 401 992 q 801 931 693 992 q 967 756 908 869 q 1025 490 1025 643 q 967 224 1025 338 q 801 49 908 111 q 547 -12 693 -12 m 547 156 q 740 242 669 156 q 810 490 810 328 q 740 738 810 653 q 547 824 671 824 q 355 738 424 824 q 286 490 286 653 q 356 242 286 328 q 547 156 425 156 m 571 1061 q 544 1056 560 1056 q 510 1069 525 1056 q 496 1100 496 1082 q 514 1136 496 1118 l 633 1254 q 701 1286 665 1286 q 755 1263 732 1286 q 778 1210 778 1240 q 764 1169 778 1189 q 722 1136 750 1150 l 571 1061 z "},"Ŏ":{"ha":1093,"x_min":69,"x_max":1025,"o":"m 547 -12 q 294 49 401 -12 q 128 224 186 111 q 69 490 69 338 q 128 756 69 643 q 294 931 186 869 q 547 992 401 992 q 801 931 693 992 q 967 756 908 869 q 1025 490 1025 643 q 967 224 1025 338 q 801 49 908 111 q 547 -12 693 -12 m 547 156 q 740 242 669 156 q 810 490 810 328 q 740 738 810 653 q 547 824 671 824 q 355 738 424 824 q 286 490 286 653 q 356 242 286 328 q 547 156 425 156 m 546 1074 q 403 1103 465 1074 q 315 1181 342 1132 q 304 1218 304 1203 q 320 1253 304 1239 q 358 1268 336 1268 q 411 1244 388 1268 q 469 1210 433 1222 q 546 1199 506 1199 q 622 1210 586 1199 q 681 1244 658 1222 q 733 1267 704 1267 q 772 1253 756 1267 q 788 1217 788 1239 q 776 1181 788 1203 q 688 1103 750 1132 q 546 1074 626 1074 z "},"Ô":{"ha":1093,"x_min":69,"x_max":1025,"o":"m 547 -12 q 294 49 401 -12 q 128 224 186 111 q 69 490 69 338 q 128 756 69 643 q 294 931 186 869 q 547 992 401 992 q 801 931 693 992 q 967 756 908 869 q 1025 490 1025 643 q 967 224 1025 338 q 801 49 908 111 q 547 -12 693 -12 m 547 156 q 740 242 669 156 q 810 490 810 328 q 740 738 810 653 q 547 824 671 824 q 355 738 424 824 q 286 490 286 653 q 356 242 286 328 q 547 156 425 156 m 450 1078 q 401 1057 429 1057 q 357 1074 375 1057 q 339 1115 339 1092 q 364 1163 339 1142 l 475 1257 q 546 1285 507 1285 q 617 1257 585 1285 l 728 1163 q 753 1115 753 1142 q 735 1074 753 1092 q 692 1057 717 1057 q 642 1078 664 1057 l 546 1171 l 450 1078 z "},"Ố":{"ha":1093,"x_min":69,"x_max":1025,"o":"m 547 -12 q 294 49 401 -12 q 128 224 186 111 q 69 490 69 338 q 128 756 69 643 q 294 931 186 869 q 547 992 401 992 q 801 931 693 992 q 967 756 908 869 q 1025 490 1025 643 q 967 224 1025 338 q 801 49 908 111 q 547 -12 693 -12 m 547 156 q 740 242 669 156 q 810 490 810 328 q 740 738 810 653 q 547 824 671 824 q 355 738 424 824 q 286 490 286 653 q 356 242 286 328 q 547 156 425 156 m 750 1210 q 726 1204 739 1204 q 693 1218 707 1204 q 679 1251 679 1232 q 692 1285 679 1268 l 768 1381 q 831 1415 794 1415 q 886 1390 863 1415 q 910 1333 910 1365 q 858 1263 910 1289 l 750 1210 m 440 1071 q 401 1057 422 1057 q 358 1074 376 1057 q 339 1115 339 1092 q 374 1169 339 1146 l 475 1239 q 546 1264 514 1264 q 617 1239 578 1264 l 718 1169 q 753 1114 753 1146 q 734 1073 753 1090 q 692 1056 715 1056 q 656 1068 672 1056 l 546 1151 l 440 1071 z "},"Ộ":{"ha":1093,"x_min":69,"x_max":1025,"o":"m 547 -12 q 294 49 401 -12 q 128 224 186 111 q 69 490 69 338 q 128 756 69 643 q 294 931 186 869 q 547 992 401 992 q 801 931 693 992 q 967 756 908 869 q 1025 490 1025 643 q 967 224 1025 338 q 801 49 908 111 q 547 -12 693 -12 m 547 156 q 740 242 669 156 q 810 490 810 328 q 740 738 810 653 q 547 824 671 824 q 355 738 424 824 q 286 490 286 653 q 356 242 286 328 q 547 156 425 156 m 547 -283 q 473 -256 501 -283 q 444 -183 444 -228 q 473 -112 444 -139 q 547 -86 501 -86 q 622 -112 593 -86 q 650 -183 650 -139 q 622 -256 650 -228 q 547 -283 593 -283 m 450 1078 q 401 1057 429 1057 q 357 1074 375 1057 q 339 1115 339 1092 q 364 1163 339 1142 l 475 1257 q 546 1285 507 1285 q 617 1257 585 1285 l 728 1163 q 753 1115 753 1142 q 735 1074 753 1092 q 692 1057 717 1057 q 642 1078 664 1057 l 546 1171 l 450 1078 z "},"Ồ":{"ha":1093,"x_min":69,"x_max":1025,"o":"m 547 -12 q 294 49 401 -12 q 128 224 186 111 q 69 490 69 338 q 128 756 69 643 q 294 931 186 869 q 547 992 401 992 q 801 931 693 992 q 967 756 908 869 q 1025 490 1025 643 q 967 224 1025 338 q 801 49 908 111 q 547 -12 693 -12 m 547 156 q 740 242 669 156 q 810 490 810 328 q 740 738 810 653 q 547 824 671 824 q 355 738 424 824 q 286 490 286 653 q 356 242 286 328 q 547 156 425 156 m 642 1268 q 596 1333 596 1293 q 622 1389 596 1364 q 679 1414 647 1414 q 740 1378 718 1414 l 808 1276 q 818 1246 818 1261 q 805 1215 818 1228 q 772 1203 792 1203 q 736 1214 756 1203 l 642 1268 m 440 1071 q 401 1057 422 1057 q 358 1074 376 1057 q 339 1115 339 1092 q 374 1169 339 1146 l 475 1239 q 546 1264 514 1264 q 617 1239 578 1264 l 718 1169 q 753 1114 753 1146 q 734 1073 753 1090 q 692 1056 715 1056 q 656 1068 672 1056 l 546 1151 l 440 1071 z "},"Ổ":{"ha":1093,"x_min":69,"x_max":1025,"o":"m 547 -12 q 294 49 401 -12 q 128 224 186 111 q 69 490 69 338 q 128 756 69 643 q 294 931 186 869 q 547 992 401 992 q 801 931 693 992 q 967 756 908 869 q 1025 490 1025 643 q 967 224 1025 338 q 801 49 908 111 q 547 -12 693 -12 m 547 156 q 740 242 669 156 q 810 490 810 328 q 740 738 810 653 q 547 824 671 824 q 355 738 424 824 q 286 490 286 653 q 356 242 286 328 q 547 156 425 156 m 781 1228 q 763 1210 778 1217 q 731 1204 749 1204 q 692 1214 708 1204 q 676 1242 676 1224 q 694 1280 676 1267 q 742 1303 713 1293 q 768 1318 768 1310 q 757 1330 768 1326 q 721 1333 746 1333 q 679 1331 710 1333 q 651 1328 660 1328 q 619 1340 632 1328 q 607 1367 607 1351 q 632 1397 607 1388 q 736 1414 676 1414 q 851 1390 810 1414 q 893 1331 893 1367 q 876 1290 893 1304 q 829 1264 860 1276 q 796 1248 808 1256 q 781 1228 783 1240 m 440 1071 q 401 1057 422 1057 q 358 1074 376 1057 q 339 1115 339 1092 q 374 1169 339 1146 l 475 1239 q 546 1264 514 1264 q 617 1239 578 1264 l 718 1169 q 753 1114 753 1146 q 734 1073 753 1090 q 692 1056 715 1056 q 656 1068 672 1056 l 546 1151 l 440 1071 z "},"Ỗ":{"ha":1093,"x_min":69,"x_max":1025,"o":"m 547 -12 q 294 49 401 -12 q 128 224 186 111 q 69 490 69 338 q 128 756 69 643 q 294 931 186 869 q 547 992 401 992 q 801 931 693 992 q 967 756 908 869 q 1025 490 1025 643 q 967 224 1025 338 q 801 49 908 111 q 547 -12 693 -12 m 547 156 q 740 242 669 156 q 810 490 810 328 q 740 738 810 653 q 547 824 671 824 q 355 738 424 824 q 286 490 286 653 q 356 242 286 328 q 547 156 425 156 m 650 1264 q 599 1269 625 1264 q 531 1288 572 1275 q 443 1306 468 1306 q 418 1300 428 1306 q 397 1283 408 1294 q 376 1267 385 1272 q 351 1261 367 1261 q 320 1272 332 1261 q 308 1303 308 1283 q 326 1348 308 1322 q 374 1392 343 1374 q 442 1410 404 1410 q 493 1404 467 1410 q 561 1386 519 1399 q 649 1368 624 1368 q 673 1374 664 1368 q 694 1392 682 1379 q 715 1408 706 1403 q 740 1414 725 1414 q 772 1402 761 1414 q 783 1371 783 1390 q 766 1326 783 1351 q 718 1282 749 1300 q 650 1264 688 1264 m 440 1071 q 401 1057 422 1057 q 358 1074 376 1057 q 339 1115 339 1092 q 374 1169 339 1146 l 475 1239 q 546 1264 514 1264 q 617 1239 578 1264 l 718 1169 q 753 1114 753 1146 q 734 1073 753 1090 q 692 1056 715 1056 q 656 1068 672 1056 l 546 1151 l 440 1071 z "},"Ȍ":{"ha":1093,"x_min":69,"x_max":1025,"o":"m 547 -12 q 294 49 401 -12 q 128 224 186 111 q 69 490 69 338 q 128 756 69 643 q 294 931 186 869 q 547 992 401 992 q 801 931 693 992 q 967 756 908 869 q 1025 490 1025 643 q 967 224 1025 338 q 801 49 908 111 q 547 -12 693 -12 m 547 156 q 740 242 669 156 q 810 490 810 328 q 740 738 810 653 q 547 824 671 824 q 355 738 424 824 q 286 490 286 653 q 356 242 286 328 q 547 156 425 156 m 322 1165 q 300 1214 300 1188 q 324 1264 300 1243 q 378 1285 349 1285 q 439 1240 419 1285 l 490 1125 q 494 1101 494 1113 q 481 1069 494 1082 q 450 1056 468 1056 q 411 1074 429 1056 l 322 1165 m 514 1165 q 492 1214 492 1188 q 516 1264 492 1243 q 569 1285 540 1285 q 631 1240 611 1285 l 682 1125 q 688 1101 688 1114 q 674 1069 688 1082 q 643 1056 661 1056 q 604 1074 622 1056 l 514 1165 z "},"Ö":{"ha":1093,"x_min":69,"x_max":1025,"o":"m 547 -12 q 294 49 401 -12 q 128 224 186 111 q 69 490 69 338 q 128 756 69 643 q 294 931 186 869 q 547 992 401 992 q 801 931 693 992 q 967 756 908 869 q 1025 490 1025 643 q 967 224 1025 338 q 801 49 908 111 q 547 -12 693 -12 m 547 156 q 740 242 669 156 q 810 490 810 328 q 740 738 810 653 q 547 824 671 824 q 355 738 424 824 q 286 490 286 653 q 356 242 286 328 q 547 156 425 156 m 414 1074 q 339 1101 368 1074 q 310 1172 310 1128 q 339 1243 310 1217 q 414 1269 368 1269 q 489 1243 460 1269 q 518 1172 518 1217 q 490 1101 518 1128 q 414 1074 461 1074 m 678 1074 q 603 1101 632 1074 q 575 1172 575 1128 q 603 1243 575 1217 q 678 1269 632 1269 q 753 1243 724 1269 q 782 1172 782 1217 q 753 1101 782 1128 q 678 1074 724 1074 z "},"Ȫ":{"ha":1093,"x_min":69,"x_max":1025,"o":"m 547 -12 q 294 49 401 -12 q 128 224 186 111 q 69 490 69 338 q 128 756 69 643 q 294 931 186 869 q 547 992 401 992 q 801 931 693 992 q 967 756 908 869 q 1025 490 1025 643 q 967 224 1025 338 q 801 49 908 111 q 547 -12 693 -12 m 547 156 q 740 242 669 156 q 810 490 810 328 q 740 738 810 653 q 547 824 671 824 q 355 738 424 824 q 286 490 286 653 q 356 242 286 328 q 547 156 425 156 m 414 1074 q 339 1101 368 1074 q 310 1172 310 1128 q 339 1243 310 1217 q 414 1269 368 1269 q 489 1243 460 1269 q 518 1172 518 1217 q 490 1101 518 1128 q 414 1074 461 1074 m 678 1074 q 603 1101 632 1074 q 575 1172 575 1128 q 603 1243 575 1217 q 678 1269 632 1269 q 753 1243 724 1269 q 782 1172 782 1217 q 753 1101 782 1128 q 678 1074 724 1074 m 378 1328 q 328 1345 347 1328 q 308 1393 308 1363 q 328 1441 308 1424 q 378 1458 347 1458 l 714 1458 q 764 1441 744 1458 q 783 1393 783 1424 q 764 1345 783 1363 q 714 1328 744 1328 l 378 1328 z "},"Ȱ":{"ha":1093,"x_min":69,"x_max":1025,"o":"m 547 -12 q 294 49 401 -12 q 128 224 186 111 q 69 490 69 338 q 128 756 69 643 q 294 931 186 869 q 547 992 401 992 q 801 931 693 992 q 967 756 908 869 q 1025 490 1025 643 q 967 224 1025 338 q 801 49 908 111 q 547 -12 693 -12 m 547 156 q 740 242 669 156 q 810 490 810 328 q 740 738 810 653 q 547 824 671 824 q 355 738 424 824 q 286 490 286 653 q 356 242 286 328 q 547 156 425 156 m 546 1067 q 458 1095 490 1067 q 426 1172 426 1124 q 458 1249 426 1221 q 546 1276 490 1276 q 633 1248 600 1276 q 665 1172 665 1219 q 633 1095 665 1124 q 546 1067 601 1067 m 378 1328 q 328 1345 347 1328 q 308 1393 308 1363 q 328 1441 308 1424 q 378 1458 347 1458 l 714 1458 q 764 1441 744 1458 q 783 1393 783 1424 q 764 1345 783 1363 q 714 1328 744 1328 l 378 1328 z "},"Ọ":{"ha":1093,"x_min":69,"x_max":1025,"o":"m 547 -12 q 294 49 401 -12 q 128 224 186 111 q 69 490 69 338 q 128 756 69 643 q 294 931 186 869 q 547 992 401 992 q 801 931 693 992 q 967 756 908 869 q 1025 490 1025 643 q 967 224 1025 338 q 801 49 908 111 q 547 -12 693 -12 m 547 156 q 740 242 669 156 q 810 490 810 328 q 740 738 810 653 q 547 824 671 824 q 355 738 424 824 q 286 490 286 653 q 356 242 286 328 q 547 156 425 156 m 547 -283 q 473 -256 501 -283 q 444 -183 444 -228 q 473 -112 444 -139 q 547 -86 501 -86 q 622 -112 593 -86 q 650 -183 650 -139 q 622 -256 650 -228 q 547 -283 593 -283 z "},"Ò":{"ha":1093,"x_min":69,"x_max":1025,"o":"m 547 -12 q 294 49 401 -12 q 128 224 186 111 q 69 490 69 338 q 128 756 69 643 q 294 931 186 869 q 547 992 401 992 q 801 931 693 992 q 967 756 908 869 q 1025 490 1025 643 q 967 224 1025 338 q 801 49 908 111 q 547 -12 693 -12 m 547 156 q 740 242 669 156 q 810 490 810 328 q 740 738 810 653 q 547 824 671 824 q 355 738 424 824 q 286 490 286 653 q 356 242 286 328 q 547 156 425 156 m 369 1136 q 314 1211 314 1163 q 336 1263 314 1240 q 390 1286 358 1286 q 458 1254 426 1286 l 578 1136 q 594 1100 594 1121 q 581 1068 594 1081 q 546 1056 567 1056 q 521 1061 532 1056 l 369 1136 z "},"Ỏ":{"ha":1093,"x_min":69,"x_max":1025,"o":"m 547 -12 q 294 49 401 -12 q 128 224 186 111 q 69 490 69 338 q 128 756 69 643 q 294 931 186 869 q 547 992 401 992 q 801 931 693 992 q 967 756 908 869 q 1025 490 1025 643 q 967 224 1025 338 q 801 49 908 111 q 547 -12 693 -12 m 547 156 q 740 242 669 156 q 810 490 810 328 q 740 738 810 653 q 547 824 671 824 q 355 738 424 824 q 286 490 286 653 q 356 242 286 328 q 547 156 425 156 m 600 1086 q 582 1063 596 1071 q 550 1056 568 1056 q 512 1067 528 1056 q 496 1097 496 1078 q 513 1137 496 1124 q 557 1160 529 1150 q 569 1165 560 1161 q 581 1172 578 1168 q 585 1179 585 1175 q 539 1203 585 1203 q 469 1192 514 1203 q 438 1201 451 1188 q 425 1232 425 1214 q 450 1268 425 1258 q 556 1285 494 1285 q 670 1260 628 1285 q 713 1197 713 1235 q 697 1155 713 1169 q 647 1124 681 1140 q 615 1107 626 1115 q 600 1086 604 1099 z "},"Ơ":{"ha":1093,"x_min":69,"x_max":1025,"o":"m 864 883 q 985 719 944 819 q 1025 490 1025 619 q 967 224 1025 338 q 801 49 908 111 q 547 -12 693 -12 q 294 49 401 -12 q 128 224 186 111 q 69 490 69 338 q 128 756 69 643 q 294 931 186 869 q 550 992 403 992 q 638 985 592 992 q 722 979 690 979 q 808 1001 783 979 q 838 1082 833 1024 q 938 1192 847 1192 q 1025 1086 1025 1192 q 981 957 1025 1014 q 864 883 938 900 m 547 156 q 740 242 669 156 q 810 490 810 328 q 740 738 810 653 q 547 824 671 824 q 355 738 424 824 q 286 490 286 653 q 356 242 286 328 q 547 156 425 156 z "},"Ớ":{"ha":1093,"x_min":69,"x_max":1025,"o":"m 864 883 q 985 719 944 819 q 1025 490 1025 619 q 967 224 1025 338 q 801 49 908 111 q 547 -12 693 -12 q 294 49 401 -12 q 128 224 186 111 q 69 490 69 338 q 128 756 69 643 q 294 931 186 869 q 550 992 403 992 q 638 985 592 992 q 722 979 690 979 q 808 1001 783 979 q 838 1082 833 1024 q 938 1192 847 1192 q 1025 1086 1025 1192 q 981 957 1025 1014 q 864 883 938 900 m 547 156 q 740 242 669 156 q 810 490 810 328 q 740 738 810 653 q 547 824 671 824 q 355 738 424 824 q 286 490 286 653 q 356 242 286 328 q 547 156 425 156 m 571 1061 q 544 1056 560 1056 q 510 1069 525 1056 q 496 1100 496 1082 q 514 1136 496 1118 l 633 1254 q 701 1286 665 1286 q 755 1263 732 1286 q 778 1210 778 1240 q 764 1169 778 1189 q 722 1136 750 1150 l 571 1061 z "},"Ợ":{"ha":1093,"x_min":69,"x_max":1025,"o":"m 864 883 q 985 719 944 819 q 1025 490 1025 619 q 967 224 1025 338 q 801 49 908 111 q 547 -12 693 -12 q 294 49 401 -12 q 128 224 186 111 q 69 490 69 338 q 128 756 69 643 q 294 931 186 869 q 550 992 403 992 q 638 985 592 992 q 722 979 690 979 q 808 1001 783 979 q 838 1082 833 1024 q 938 1192 847 1192 q 1025 1086 1025 1192 q 981 957 1025 1014 q 864 883 938 900 m 547 156 q 740 242 669 156 q 810 490 810 328 q 740 738 810 653 q 547 824 671 824 q 355 738 424 824 q 286 490 286 653 q 356 242 286 328 q 547 156 425 156 m 547 -283 q 473 -256 501 -283 q 444 -183 444 -228 q 473 -112 444 -139 q 547 -86 501 -86 q 622 -112 593 -86 q 650 -183 650 -139 q 622 -256 650 -228 q 547 -283 593 -283 z "},"Ờ":{"ha":1093,"x_min":69,"x_max":1025,"o":"m 864 883 q 985 719 944 819 q 1025 490 1025 619 q 967 224 1025 338 q 801 49 908 111 q 547 -12 693 -12 q 294 49 401 -12 q 128 224 186 111 q 69 490 69 338 q 128 756 69 643 q 294 931 186 869 q 550 992 403 992 q 638 985 592 992 q 722 979 690 979 q 808 1001 783 979 q 838 1082 833 1024 q 938 1192 847 1192 q 1025 1086 1025 1192 q 981 957 1025 1014 q 864 883 938 900 m 547 156 q 740 242 669 156 q 810 490 810 328 q 740 738 810 653 q 547 824 671 824 q 355 738 424 824 q 286 490 286 653 q 356 242 286 328 q 547 156 425 156 m 369 1136 q 314 1211 314 1163 q 336 1263 314 1240 q 390 1286 358 1286 q 458 1254 426 1286 l 578 1136 q 594 1100 594 1121 q 581 1068 594 1081 q 546 1056 567 1056 q 521 1061 532 1056 l 369 1136 z "},"Ở":{"ha":1093,"x_min":69,"x_max":1025,"o":"m 864 883 q 985 719 944 819 q 1025 490 1025 619 q 967 224 1025 338 q 801 49 908 111 q 547 -12 693 -12 q 294 49 401 -12 q 128 224 186 111 q 69 490 69 338 q 128 756 69 643 q 294 931 186 869 q 550 992 403 992 q 638 985 592 992 q 722 979 690 979 q 808 1001 783 979 q 838 1082 833 1024 q 938 1192 847 1192 q 1025 1086 1025 1192 q 981 957 1025 1014 q 864 883 938 900 m 547 156 q 740 242 669 156 q 810 490 810 328 q 740 738 810 653 q 547 824 671 824 q 355 738 424 824 q 286 490 286 653 q 356 242 286 328 q 547 156 425 156 m 600 1086 q 582 1063 596 1071 q 550 1056 568 1056 q 512 1067 528 1056 q 496 1097 496 1078 q 513 1137 496 1124 q 557 1160 529 1150 q 569 1165 560 1161 q 581 1172 578 1168 q 585 1179 585 1175 q 539 1203 585 1203 q 469 1192 514 1203 q 438 1201 451 1188 q 425 1232 425 1214 q 450 1268 425 1258 q 556 1285 494 1285 q 670 1260 628 1285 q 713 1197 713 1235 q 697 1155 713 1169 q 647 1124 681 1140 q 615 1107 626 1115 q 600 1086 604 1099 z "},"Ỡ":{"ha":1093,"x_min":69,"x_max":1025,"o":"m 864 883 q 985 719 944 819 q 1025 490 1025 619 q 967 224 1025 338 q 801 49 908 111 q 547 -12 693 -12 q 294 49 401 -12 q 128 224 186 111 q 69 490 69 338 q 128 756 69 643 q 294 931 186 869 q 550 992 403 992 q 638 985 592 992 q 722 979 690 979 q 808 1001 783 979 q 838 1082 833 1024 q 938 1192 847 1192 q 1025 1086 1025 1192 q 981 957 1025 1014 q 864 883 938 900 m 547 156 q 740 242 669 156 q 810 490 810 328 q 740 738 810 653 q 547 824 671 824 q 355 738 424 824 q 286 490 286 653 q 356 242 286 328 q 547 156 425 156 m 650 1085 q 583 1094 618 1085 q 542 1106 547 1104 q 443 1126 479 1126 q 418 1121 428 1126 q 397 1104 408 1115 q 376 1086 385 1092 q 351 1081 367 1081 q 320 1094 332 1081 q 308 1129 308 1107 q 326 1189 308 1158 q 374 1240 343 1219 q 442 1260 404 1260 q 509 1250 474 1260 q 550 1239 544 1240 q 649 1218 613 1218 q 673 1224 664 1218 q 694 1240 682 1229 q 715 1257 706 1251 q 740 1263 725 1263 q 772 1250 761 1263 q 783 1215 783 1238 q 766 1156 783 1186 q 718 1105 749 1125 q 650 1085 688 1085 z "},"Ő":{"ha":1093,"x_min":69,"x_max":1025,"o":"m 547 -12 q 294 49 401 -12 q 128 224 186 111 q 69 490 69 338 q 128 756 69 643 q 294 931 186 869 q 547 992 401 992 q 801 931 693 992 q 967 756 908 869 q 1025 490 1025 643 q 967 224 1025 338 q 801 49 908 111 q 547 -12 693 -12 m 547 156 q 740 242 669 156 q 810 490 810 328 q 740 738 810 653 q 547 824 671 824 q 355 738 424 824 q 286 490 286 653 q 356 242 286 328 q 547 156 425 156 m 488 1074 q 449 1056 469 1056 q 417 1068 431 1056 q 404 1100 404 1081 q 410 1125 404 1114 l 461 1240 q 522 1285 481 1285 q 576 1264 551 1285 q 600 1214 600 1243 q 578 1165 600 1189 l 488 1074 m 681 1074 q 642 1056 663 1056 q 610 1069 624 1056 q 597 1101 597 1082 q 601 1125 597 1113 l 653 1240 q 715 1285 672 1285 q 769 1264 744 1285 q 793 1214 793 1243 q 769 1165 793 1189 l 681 1074 z "},"Ȏ":{"ha":1093,"x_min":69,"x_max":1025,"o":"m 547 -12 q 294 49 401 -12 q 128 224 186 111 q 69 490 69 338 q 128 756 69 643 q 294 931 186 869 q 547 992 401 992 q 801 931 693 992 q 967 756 908 869 q 1025 490 1025 643 q 967 224 1025 338 q 801 49 908 111 q 547 -12 693 -12 m 547 156 q 740 242 669 156 q 810 490 810 328 q 740 738 810 653 q 547 824 671 824 q 355 738 424 824 q 286 490 286 653 q 356 242 286 328 q 547 156 425 156 m 411 1096 q 360 1074 388 1074 q 321 1088 338 1074 q 304 1125 304 1103 q 315 1161 304 1142 q 403 1239 342 1210 q 546 1268 465 1268 q 688 1239 626 1268 q 776 1161 750 1210 q 788 1124 788 1139 q 772 1088 788 1101 q 733 1074 756 1074 q 681 1096 704 1074 q 621 1131 657 1118 q 546 1143 585 1143 q 471 1131 507 1143 q 411 1096 435 1118 z "},"Ō":{"ha":1093,"x_min":69,"x_max":1025,"o":"m 547 -12 q 294 49 401 -12 q 128 224 186 111 q 69 490 69 338 q 128 756 69 643 q 294 931 186 869 q 547 992 401 992 q 801 931 693 992 q 967 756 908 869 q 1025 490 1025 643 q 967 224 1025 338 q 801 49 908 111 q 547 -12 693 -12 m 547 156 q 740 242 669 156 q 810 490 810 328 q 740 738 810 653 q 547 824 671 824 q 355 738 424 824 q 286 490 286 653 q 356 242 286 328 q 547 156 425 156 m 378 1106 q 328 1123 347 1106 q 308 1171 308 1140 q 328 1219 308 1201 q 378 1236 347 1236 l 714 1236 q 764 1219 744 1236 q 783 1171 783 1201 q 764 1123 783 1140 q 714 1106 744 1106 l 378 1106 z "},"Ṓ":{"ha":1093,"x_min":69,"x_max":1025,"o":"m 547 -12 q 294 49 401 -12 q 128 224 186 111 q 69 490 69 338 q 128 756 69 643 q 294 931 186 869 q 547 992 401 992 q 801 931 693 992 q 967 756 908 869 q 1025 490 1025 643 q 967 224 1025 338 q 801 49 908 111 q 547 -12 693 -12 m 547 156 q 740 242 669 156 q 810 490 810 328 q 740 738 810 653 q 547 824 671 824 q 355 738 424 824 q 286 490 286 653 q 356 242 286 328 q 547 156 425 156 m 378 1106 q 328 1123 347 1106 q 308 1171 308 1140 q 328 1219 308 1201 q 378 1236 347 1236 l 714 1236 q 764 1219 744 1236 q 783 1171 783 1201 q 764 1123 783 1140 q 714 1106 744 1106 l 378 1106 m 571 1283 q 544 1278 560 1278 q 510 1291 525 1278 q 496 1322 496 1304 q 514 1358 496 1340 l 633 1476 q 701 1508 665 1508 q 755 1485 732 1508 q 778 1432 778 1463 q 764 1392 778 1411 q 722 1358 750 1372 l 571 1283 z "},"Ṑ":{"ha":1093,"x_min":69,"x_max":1025,"o":"m 547 -12 q 294 49 401 -12 q 128 224 186 111 q 69 490 69 338 q 128 756 69 643 q 294 931 186 869 q 547 992 401 992 q 801 931 693 992 q 967 756 908 869 q 1025 490 1025 643 q 967 224 1025 338 q 801 49 908 111 q 547 -12 693 -12 m 547 156 q 740 242 669 156 q 810 490 810 328 q 740 738 810 653 q 547 824 671 824 q 355 738 424 824 q 286 490 286 653 q 356 242 286 328 q 547 156 425 156 m 378 1106 q 328 1123 347 1106 q 308 1171 308 1140 q 328 1219 308 1201 q 378 1236 347 1236 l 714 1236 q 764 1219 744 1236 q 783 1171 783 1201 q 764 1123 783 1140 q 714 1106 744 1106 l 378 1106 m 369 1358 q 314 1433 314 1385 q 336 1485 314 1463 q 390 1508 358 1508 q 458 1476 426 1508 l 578 1358 q 594 1322 594 1343 q 581 1290 594 1303 q 546 1278 567 1278 q 521 1283 532 1278 l 369 1358 z "},"Ǫ":{"ha":1093,"x_min":69,"x_max":1025,"o":"m 701 7 q 613 -90 613 -18 q 633 -144 613 -124 q 686 -165 654 -165 q 725 -160 703 -165 q 753 -153 747 -154 q 765 -151 757 -151 q 792 -165 782 -151 q 803 -197 803 -179 q 778 -242 803 -228 q 656 -274 724 -274 q 528 -231 578 -274 q 479 -121 479 -187 q 519 -12 479 -60 q 281 56 382 -7 q 124 231 179 119 q 69 490 69 342 q 128 756 69 643 q 294 931 186 869 q 547 992 401 992 q 801 931 693 992 q 967 756 908 869 q 1025 490 1025 643 q 940 178 1025 304 q 701 7 856 53 m 547 156 q 740 242 669 156 q 810 490 810 328 q 740 738 810 653 q 547 824 671 824 q 355 738 424 824 q 286 490 286 653 q 356 242 286 328 q 547 156 425 156 z "},"Ø":{"ha":1093,"x_min":69,"x_max":1025,"o":"m 868 883 q 985 717 944 817 q 1025 490 1025 617 q 967 224 1025 338 q 801 49 908 111 q 547 -12 693 -12 q 364 17 447 -12 l 342 -22 q 260 -76 311 -76 q 208 -55 229 -76 q 186 0 186 -33 q 203 57 186 29 l 226 97 q 110 264 150 164 q 69 490 69 364 q 128 756 69 643 q 294 931 186 869 q 547 992 401 992 q 729 963 649 992 l 751 1001 q 789 1042 767 1029 q 833 1056 811 1056 q 886 1034 864 1056 q 908 981 908 1013 q 890 922 908 953 l 868 883 m 286 490 q 331 278 286 360 l 640 810 q 547 824 592 824 q 355 738 424 824 q 286 490 286 653 m 547 156 q 740 242 669 156 q 810 490 810 328 q 764 704 810 619 l 454 171 q 547 156 497 156 z "},"Ǿ":{"ha":1093,"x_min":69,"x_max":1025,"o":"m 868 883 q 985 717 944 817 q 1025 490 1025 617 q 967 224 1025 338 q 801 49 908 111 q 547 -12 693 -12 q 364 17 447 -12 l 342 -22 q 260 -76 311 -76 q 208 -55 229 -76 q 186 0 186 -33 q 203 57 186 29 l 226 97 q 110 264 150 164 q 69 490 69 364 q 128 756 69 643 q 294 931 186 869 q 547 992 401 992 q 729 963 649 992 l 751 1001 q 789 1042 767 1029 q 833 1056 811 1056 q 886 1034 864 1056 q 908 981 908 1013 q 890 922 908 953 l 868 883 m 286 490 q 331 278 286 360 l 640 810 q 547 824 592 824 q 355 738 424 824 q 286 490 286 653 m 547 156 q 740 242 669 156 q 810 490 810 328 q 764 704 810 619 l 454 171 q 547 156 497 156 m 571 1061 q 544 1056 560 1056 q 510 1069 525 1056 q 496 1100 496 1082 q 514 1136 496 1118 l 633 1254 q 701 1286 665 1286 q 755 1263 732 1286 q 778 1210 778 1240 q 764 1169 778 1189 q 722 1136 750 1150 l 571 1061 z "},"Õ":{"ha":1093,"x_min":69,"x_max":1025,"o":"m 547 -12 q 294 49 401 -12 q 128 224 186 111 q 69 490 69 338 q 128 756 69 643 q 294 931 186 869 q 547 992 401 992 q 801 931 693 992 q 967 756 908 869 q 1025 490 1025 643 q 967 224 1025 338 q 801 49 908 111 q 547 -12 693 -12 m 547 156 q 740 242 669 156 q 810 490 810 328 q 740 738 810 653 q 547 824 671 824 q 355 738 424 824 q 286 490 286 653 q 356 242 286 328 q 547 156 425 156 m 650 1085 q 583 1094 618 1085 q 542 1106 547 1104 q 443 1126 479 1126 q 418 1121 428 1126 q 397 1104 408 1115 q 376 1086 385 1092 q 351 1081 367 1081 q 320 1094 332 1081 q 308 1129 308 1107 q 326 1189 308 1158 q 374 1240 343 1219 q 442 1260 404 1260 q 509 1250 474 1260 q 550 1239 544 1240 q 649 1218 613 1218 q 673 1224 664 1218 q 694 1240 682 1229 q 715 1257 706 1251 q 740 1263 725 1263 q 772 1250 761 1263 q 783 1215 783 1238 q 766 1156 783 1186 q 718 1105 749 1125 q 650 1085 688 1085 z "},"Ṍ":{"ha":1093,"x_min":69,"x_max":1025,"o":"m 547 -12 q 294 49 401 -12 q 128 224 186 111 q 69 490 69 338 q 128 756 69 643 q 294 931 186 869 q 547 992 401 992 q 801 931 693 992 q 967 756 908 869 q 1025 490 1025 643 q 967 224 1025 338 q 801 49 908 111 q 547 -12 693 -12 m 547 156 q 740 242 669 156 q 810 490 810 328 q 740 738 810 653 q 547 824 671 824 q 355 738 424 824 q 286 490 286 653 q 356 242 286 328 q 547 156 425 156 m 650 1085 q 583 1094 618 1085 q 542 1106 547 1104 q 443 1126 479 1126 q 418 1121 428 1126 q 397 1104 408 1115 q 376 1086 385 1092 q 351 1081 367 1081 q 320 1094 332 1081 q 308 1129 308 1107 q 326 1189 308 1158 q 374 1240 343 1219 q 442 1260 404 1260 q 509 1250 474 1260 q 550 1239 544 1240 q 649 1218 613 1218 q 673 1224 664 1218 q 694 1240 682 1229 q 715 1257 706 1251 q 740 1263 725 1263 q 772 1250 761 1263 q 783 1215 783 1238 q 766 1156 783 1186 q 718 1105 749 1125 q 650 1085 688 1085 m 571 1283 q 544 1278 560 1278 q 510 1291 525 1278 q 496 1322 496 1304 q 514 1358 496 1340 l 633 1476 q 701 1508 665 1508 q 755 1485 732 1508 q 778 1432 778 1463 q 764 1392 778 1411 q 722 1358 750 1372 l 571 1283 z "},"Ṏ":{"ha":1093,"x_min":69,"x_max":1025,"o":"m 547 -12 q 294 49 401 -12 q 128 224 186 111 q 69 490 69 338 q 128 756 69 643 q 294 931 186 869 q 547 992 401 992 q 801 931 693 992 q 967 756 908 869 q 1025 490 1025 643 q 967 224 1025 338 q 801 49 908 111 q 547 -12 693 -12 m 547 156 q 740 242 669 156 q 810 490 810 328 q 740 738 810 653 q 547 824 671 824 q 355 738 424 824 q 286 490 286 653 q 356 242 286 328 q 547 156 425 156 m 650 1085 q 583 1094 618 1085 q 542 1106 547 1104 q 443 1126 479 1126 q 418 1121 428 1126 q 397 1104 408 1115 q 376 1086 385 1092 q 351 1081 367 1081 q 320 1094 332 1081 q 308 1129 308 1107 q 326 1189 308 1158 q 374 1240 343 1219 q 442 1260 404 1260 q 509 1250 474 1260 q 550 1239 544 1240 q 649 1218 613 1218 q 673 1224 664 1218 q 694 1240 682 1229 q 715 1257 706 1251 q 740 1263 725 1263 q 772 1250 761 1263 q 783 1215 783 1238 q 766 1156 783 1186 q 718 1105 749 1125 q 650 1085 688 1085 m 414 1296 q 339 1323 368 1296 q 310 1394 310 1350 q 339 1465 310 1439 q 414 1492 368 1492 q 489 1465 460 1492 q 518 1394 518 1439 q 490 1323 518 1350 q 414 1296 461 1296 m 678 1296 q 603 1323 632 1296 q 575 1394 575 1350 q 603 1465 575 1439 q 678 1492 632 1492 q 753 1465 724 1492 q 782 1394 782 1439 q 753 1323 782 1350 q 678 1296 724 1296 z "},"Ȭ":{"ha":1093,"x_min":69,"x_max":1025,"o":"m 547 -12 q 294 49 401 -12 q 128 224 186 111 q 69 490 69 338 q 128 756 69 643 q 294 931 186 869 q 547 992 401 992 q 801 931 693 992 q 967 756 908 869 q 1025 490 1025 643 q 967 224 1025 338 q 801 49 908 111 q 547 -12 693 -12 m 547 156 q 740 242 669 156 q 810 490 810 328 q 740 738 810 653 q 547 824 671 824 q 355 738 424 824 q 286 490 286 653 q 356 242 286 328 q 547 156 425 156 m 650 1085 q 583 1094 618 1085 q 542 1106 547 1104 q 443 1126 479 1126 q 418 1121 428 1126 q 397 1104 408 1115 q 376 1086 385 1092 q 351 1081 367 1081 q 320 1094 332 1081 q 308 1129 308 1107 q 326 1189 308 1158 q 374 1240 343 1219 q 442 1260 404 1260 q 509 1250 474 1260 q 550 1239 544 1240 q 649 1218 613 1218 q 673 1224 664 1218 q 694 1240 682 1229 q 715 1257 706 1251 q 740 1263 725 1263 q 772 1250 761 1263 q 783 1215 783 1238 q 766 1156 783 1186 q 718 1105 749 1125 q 650 1085 688 1085 m 378 1328 q 328 1345 347 1328 q 308 1393 308 1363 q 328 1441 308 1424 q 378 1458 347 1458 l 714 1458 q 764 1441 744 1458 q 783 1393 783 1424 q 764 1345 783 1363 q 714 1328 744 1328 l 378 1328 z "},"Œ":{"ha":1450,"x_min":69,"x_max":1419,"o":"m 583 0 q 306 58 422 0 q 130 227 190 117 q 69 490 69 338 q 131 753 69 643 q 307 921 192 863 q 583 979 422 979 l 1319 979 q 1394 958 1368 979 q 1419 896 1419 936 q 1317 811 1419 811 l 933 811 l 933 582 l 1289 582 q 1392 497 1392 582 q 1289 414 1392 414 l 933 414 l 933 168 l 1317 168 q 1419 83 1419 168 q 1394 22 1419 43 q 1318 0 1368 0 l 583 0 m 722 168 l 722 811 l 597 811 q 286 490 286 811 q 597 168 286 168 l 722 168 z "},"P":{"ha":928,"x_min":97,"x_max":885,"o":"m 206 -8 q 126 21 156 -8 q 97 100 97 50 l 97 878 q 124 953 97 926 q 199 979 150 979 l 547 979 q 796 899 707 979 q 885 674 885 818 q 796 449 885 529 q 547 368 707 368 l 314 368 l 314 100 q 285 21 314 50 q 206 -8 256 -8 m 519 532 q 682 672 682 532 q 519 814 682 814 l 314 814 l 314 532 l 519 532 z "},"Þ":{"ha":929,"x_min":97,"x_max":885,"o":"m 549 782 q 797 707 708 782 q 885 497 885 632 q 795 289 885 365 q 549 213 706 213 l 310 213 l 310 100 q 281 22 310 51 q 204 -8 251 -8 q 126 21 156 -8 q 97 100 97 50 l 97 879 q 126 957 97 928 q 204 986 156 986 q 281 957 253 986 q 310 879 310 928 l 310 782 l 549 782 m 514 378 q 642 406 601 378 q 682 497 682 435 q 642 588 682 560 q 514 617 601 617 l 310 617 l 310 378 l 514 378 z "},"Q":{"ha":1093,"x_min":69,"x_max":1025,"o":"m 931 -111 q 950 -171 950 -142 q 919 -233 950 -208 q 846 -258 888 -258 q 791 -244 817 -258 q 750 -204 765 -231 l 667 -65 q 622 -25 650 -37 q 547 -12 594 -12 q 294 49 401 -12 q 128 224 186 111 q 69 490 69 338 q 128 756 69 643 q 294 931 186 869 q 547 992 401 992 q 801 931 693 992 q 967 756 908 869 q 1025 490 1025 643 q 962 215 1025 331 q 782 42 899 99 q 892 -47 850 21 l 931 -111 m 547 156 q 740 242 669 156 q 810 490 810 328 q 740 738 810 653 q 547 824 671 824 q 355 738 424 824 q 286 490 286 653 q 356 242 286 328 q 547 156 425 156 z "},"R":{"ha":974,"x_min":97,"x_max":921,"o":"m 900 138 q 921 78 921 107 q 890 14 921 39 q 817 -11 858 -11 q 765 1 790 -11 q 724 40 740 14 l 540 313 q 490 365 517 349 q 424 381 464 381 l 311 381 l 311 100 q 283 21 311 50 q 206 -8 254 -8 q 126 21 156 -8 q 97 100 97 50 l 97 878 q 124 953 97 926 q 199 979 150 979 l 547 979 q 808 903 719 979 q 896 685 896 828 q 833 497 896 572 q 657 399 771 422 q 731 366 699 390 q 794 296 764 342 l 900 138 m 515 544 q 650 577 608 544 q 692 679 692 610 q 650 782 692 750 q 515 814 608 814 l 308 814 l 308 544 l 515 544 z "},"Ŕ":{"ha":974,"x_min":97,"x_max":921,"o":"m 900 138 q 921 78 921 107 q 890 14 921 39 q 817 -11 858 -11 q 765 1 790 -11 q 724 40 740 14 l 540 313 q 490 365 517 349 q 424 381 464 381 l 311 381 l 311 100 q 283 21 311 50 q 206 -8 254 -8 q 126 21 156 -8 q 97 100 97 50 l 97 878 q 124 953 97 926 q 199 979 150 979 l 547 979 q 808 903 719 979 q 896 685 896 828 q 833 497 896 572 q 657 399 771 422 q 731 366 699 390 q 794 296 764 342 l 900 138 m 515 544 q 650 577 608 544 q 692 679 692 610 q 650 782 692 750 q 515 814 608 814 l 308 814 l 308 544 l 515 544 m 514 1061 q 488 1056 503 1056 q 453 1069 468 1056 q 439 1100 439 1082 q 457 1136 439 1118 l 576 1254 q 644 1286 608 1286 q 698 1263 675 1286 q 721 1210 721 1240 q 707 1169 721 1189 q 665 1136 693 1150 l 514 1061 z "},"Ř":{"ha":974,"x_min":97,"x_max":921,"o":"m 900 138 q 921 78 921 107 q 890 14 921 39 q 817 -11 858 -11 q 765 1 790 -11 q 724 40 740 14 l 540 313 q 490 365 517 349 q 424 381 464 381 l 311 381 l 311 100 q 283 21 311 50 q 206 -8 254 -8 q 126 21 156 -8 q 97 100 97 50 l 97 878 q 124 953 97 926 q 199 979 150 979 l 547 979 q 808 903 719 979 q 896 685 896 828 q 833 497 896 572 q 657 399 771 422 q 731 366 699 390 q 794 296 764 342 l 900 138 m 515 544 q 650 577 608 544 q 692 679 692 610 q 650 782 692 750 q 515 814 608 814 l 308 814 l 308 544 l 515 544 m 489 1056 q 418 1083 450 1056 l 307 1176 q 282 1225 282 1197 q 300 1266 282 1249 q 343 1283 318 1283 q 393 1263 371 1283 l 489 1169 l 585 1263 q 633 1283 606 1283 q 678 1266 660 1283 q 696 1225 696 1249 q 671 1176 696 1200 l 560 1083 q 489 1056 528 1056 z "},"Ŗ":{"ha":974,"x_min":97,"x_max":921,"o":"m 900 138 q 921 78 921 107 q 890 14 921 39 q 817 -11 858 -11 q 765 1 790 -11 q 724 40 740 14 l 540 313 q 490 365 517 349 q 424 381 464 381 l 311 381 l 311 100 q 283 21 311 50 q 206 -8 254 -8 q 126 21 156 -8 q 97 100 97 50 l 97 878 q 124 953 97 926 q 199 979 150 979 l 547 979 q 808 903 719 979 q 896 685 896 828 q 833 497 896 572 q 657 399 771 422 q 731 366 699 390 q 794 296 764 342 l 900 138 m 515 544 q 650 577 608 544 q 692 679 692 610 q 650 782 692 750 q 515 814 608 814 l 308 814 l 308 544 l 515 544 m 488 -83 q 572 -115 540 -83 q 603 -208 603 -147 q 589 -290 603 -253 q 553 -353 575 -328 q 526 -372 542 -365 q 497 -379 511 -379 q 463 -369 476 -379 q 450 -343 450 -360 q 461 -315 450 -328 q 489 -257 483 -282 l 482 -257 q 415 -235 443 -257 q 388 -176 388 -214 q 416 -109 388 -135 q 488 -83 444 -83 z "},"Ȑ":{"ha":974,"x_min":97,"x_max":921,"o":"m 900 138 q 921 78 921 107 q 890 14 921 39 q 817 -11 858 -11 q 765 1 790 -11 q 724 40 740 14 l 540 313 q 490 365 517 349 q 424 381 464 381 l 311 381 l 311 100 q 283 21 311 50 q 206 -8 254 -8 q 126 21 156 -8 q 97 100 97 50 l 97 878 q 124 953 97 926 q 199 979 150 979 l 547 979 q 808 903 719 979 q 896 685 896 828 q 833 497 896 572 q 657 399 771 422 q 731 366 699 390 q 794 296 764 342 l 900 138 m 515 544 q 650 577 608 544 q 692 679 692 610 q 650 782 692 750 q 515 814 608 814 l 308 814 l 308 544 l 515 544 m 265 1165 q 243 1214 243 1188 q 267 1264 243 1243 q 321 1285 292 1285 q 382 1240 363 1285 l 433 1125 q 438 1101 438 1113 q 424 1069 438 1082 q 393 1056 411 1056 q 354 1074 372 1056 l 265 1165 m 457 1165 q 435 1214 435 1188 q 459 1264 435 1243 q 513 1285 483 1285 q 574 1240 554 1285 l 625 1125 q 631 1101 631 1114 q 617 1069 631 1082 q 586 1056 604 1056 q 547 1074 565 1056 l 457 1165 z "},"Ṛ":{"ha":974,"x_min":97,"x_max":921,"o":"m 900 138 q 921 78 921 107 q 890 14 921 39 q 817 -11 858 -11 q 765 1 790 -11 q 724 40 740 14 l 540 313 q 490 365 517 349 q 424 381 464 381 l 311 381 l 311 100 q 283 21 311 50 q 206 -8 254 -8 q 126 21 156 -8 q 97 100 97 50 l 97 878 q 124 953 97 926 q 199 979 150 979 l 547 979 q 808 903 719 979 q 896 685 896 828 q 833 497 896 572 q 657 399 771 422 q 731 366 699 390 q 794 296 764 342 l 900 138 m 515 544 q 650 577 608 544 q 692 679 692 610 q 650 782 692 750 q 515 814 608 814 l 308 814 l 308 544 l 515 544 m 490 -283 q 416 -256 444 -283 q 388 -183 388 -228 q 416 -112 388 -139 q 490 -86 444 -86 q 565 -112 536 -86 q 593 -183 593 -139 q 565 -256 593 -228 q 490 -283 536 -283 z "},"Ȓ":{"ha":974,"x_min":97,"x_max":921,"o":"m 900 138 q 921 78 921 107 q 890 14 921 39 q 817 -11 858 -11 q 765 1 790 -11 q 724 40 740 14 l 540 313 q 490 365 517 349 q 424 381 464 381 l 311 381 l 311 100 q 283 21 311 50 q 206 -8 254 -8 q 126 21 156 -8 q 97 100 97 50 l 97 878 q 124 953 97 926 q 199 979 150 979 l 547 979 q 808 903 719 979 q 896 685 896 828 q 833 497 896 572 q 657 399 771 422 q 731 366 699 390 q 794 296 764 342 l 900 138 m 515 544 q 650 577 608 544 q 692 679 692 610 q 650 782 692 750 q 515 814 608 814 l 308 814 l 308 544 l 515 544 m 354 1096 q 303 1074 331 1074 q 264 1088 281 1074 q 247 1125 247 1103 q 258 1161 247 1142 q 347 1239 285 1210 q 489 1268 408 1268 q 631 1239 569 1268 q 719 1161 693 1210 q 731 1124 731 1139 q 715 1088 731 1101 q 676 1074 699 1074 q 624 1096 647 1074 q 564 1131 600 1118 q 489 1143 528 1143 q 414 1131 450 1143 q 354 1096 378 1118 z "},"Ṟ":{"ha":974,"x_min":97,"x_max":921,"o":"m 900 138 q 921 78 921 107 q 890 14 921 39 q 817 -11 858 -11 q 765 1 790 -11 q 724 40 740 14 l 540 313 q 490 365 517 349 q 424 381 464 381 l 311 381 l 311 100 q 283 21 311 50 q 206 -8 254 -8 q 126 21 156 -8 q 97 100 97 50 l 97 878 q 124 953 97 926 q 199 979 150 979 l 547 979 q 808 903 719 979 q 896 685 896 828 q 833 497 896 572 q 657 399 771 422 q 731 366 699 390 q 794 296 764 342 l 900 138 m 515 544 q 650 577 608 544 q 692 679 692 610 q 650 782 692 750 q 515 814 608 814 l 308 814 l 308 544 l 515 544 m 322 -246 q 272 -230 292 -246 q 253 -185 253 -214 q 272 -140 253 -157 q 322 -124 292 -124 l 658 -124 q 708 -140 689 -124 q 728 -185 728 -157 q 708 -230 728 -214 q 658 -246 689 -246 l 322 -246 z "},"S":{"ha":904,"x_min":53,"x_max":846,"o":"m 450 -12 q 246 13 340 -12 q 92 86 151 39 q 62 119 71 101 q 53 163 53 136 q 74 224 53 197 q 124 250 96 250 q 153 245 139 250 q 189 228 168 240 q 310 173 249 190 q 444 156 371 156 q 585 186 536 156 q 633 274 633 217 q 588 343 633 317 q 428 393 543 369 q 222 457 299 419 q 109 550 144 494 q 74 685 74 606 q 124 842 74 772 q 265 952 175 913 q 467 992 354 992 q 792 893 664 992 q 822 859 813 876 q 831 817 831 842 q 809 756 831 782 q 760 729 788 729 q 731 733 744 729 q 694 751 718 738 q 590 806 638 788 q 468 824 542 824 q 335 791 383 824 q 286 701 286 758 q 305 647 286 668 q 367 608 324 625 q 492 574 411 592 q 763 467 681 532 q 846 288 846 401 q 797 131 846 199 q 658 25 747 63 q 450 -12 568 -12 z "},"Ś":{"ha":904,"x_min":53,"x_max":846,"o":"m 450 -12 q 246 13 340 -12 q 92 86 151 39 q 62 119 71 101 q 53 163 53 136 q 74 224 53 197 q 124 250 96 250 q 153 245 139 250 q 189 228 168 240 q 310 173 249 190 q 444 156 371 156 q 585 186 536 156 q 633 274 633 217 q 588 343 633 317 q 428 393 543 369 q 222 457 299 419 q 109 550 144 494 q 74 685 74 606 q 124 842 74 772 q 265 952 175 913 q 467 992 354 992 q 792 893 664 992 q 822 859 813 876 q 831 817 831 842 q 809 756 831 782 q 760 729 788 729 q 731 733 744 729 q 694 751 718 738 q 590 806 638 788 q 468 824 542 824 q 335 791 383 824 q 286 701 286 758 q 305 647 286 668 q 367 608 324 625 q 492 574 411 592 q 763 467 681 532 q 846 288 846 401 q 797 131 846 199 q 658 25 747 63 q 450 -12 568 -12 m 482 1061 q 456 1056 471 1056 q 422 1069 436 1056 q 407 1100 407 1082 q 425 1136 407 1118 l 544 1254 q 613 1286 576 1286 q 666 1263 643 1286 q 689 1210 689 1240 q 675 1169 689 1189 q 633 1136 661 1150 l 482 1061 z "},"Ṥ":{"ha":904,"x_min":53,"x_max":846,"o":"m 450 -12 q 246 13 340 -12 q 92 86 151 39 q 62 119 71 101 q 53 163 53 136 q 74 224 53 197 q 124 250 96 250 q 153 245 139 250 q 189 228 168 240 q 310 173 249 190 q 444 156 371 156 q 585 186 536 156 q 633 274 633 217 q 588 343 633 317 q 428 393 543 369 q 222 457 299 419 q 109 550 144 494 q 74 685 74 606 q 124 842 74 772 q 265 952 175 913 q 467 992 354 992 q 792 893 664 992 q 822 859 813 876 q 831 817 831 842 q 809 756 831 782 q 760 729 788 729 q 731 733 744 729 q 694 751 718 738 q 590 806 638 788 q 468 824 542 824 q 335 791 383 824 q 286 701 286 758 q 305 647 286 668 q 367 608 324 625 q 492 574 411 592 q 763 467 681 532 q 846 288 846 401 q 797 131 846 199 q 658 25 747 63 q 450 -12 568 -12 m 517 1061 q 490 1056 506 1056 q 456 1069 471 1056 q 442 1100 442 1082 q 460 1136 442 1118 l 579 1254 q 647 1286 611 1286 q 701 1263 678 1286 q 724 1210 724 1240 q 710 1169 724 1189 q 668 1136 696 1150 l 517 1061 m 286 1075 q 199 1103 231 1075 q 167 1181 167 1132 q 199 1257 167 1229 q 286 1285 231 1285 q 373 1256 340 1285 q 406 1181 406 1228 q 374 1103 406 1132 q 286 1075 342 1075 z "},"Š":{"ha":904,"x_min":53,"x_max":846,"o":"m 450 -12 q 246 13 340 -12 q 92 86 151 39 q 62 119 71 101 q 53 163 53 136 q 74 224 53 197 q 124 250 96 250 q 153 245 139 250 q 189 228 168 240 q 310 173 249 190 q 444 156 371 156 q 585 186 536 156 q 633 274 633 217 q 588 343 633 317 q 428 393 543 369 q 222 457 299 419 q 109 550 144 494 q 74 685 74 606 q 124 842 74 772 q 265 952 175 913 q 467 992 354 992 q 792 893 664 992 q 822 859 813 876 q 831 817 831 842 q 809 756 831 782 q 760 729 788 729 q 731 733 744 729 q 694 751 718 738 q 590 806 638 788 q 468 824 542 824 q 335 791 383 824 q 286 701 286 758 q 305 647 286 668 q 367 608 324 625 q 492 574 411 592 q 763 467 681 532 q 846 288 846 401 q 797 131 846 199 q 658 25 747 63 q 450 -12 568 -12 m 457 1056 q 386 1083 418 1056 l 275 1176 q 250 1225 250 1197 q 268 1266 250 1249 q 311 1283 286 1283 q 361 1263 339 1283 l 457 1169 l 553 1263 q 601 1283 574 1283 q 646 1266 628 1283 q 664 1225 664 1249 q 639 1176 664 1200 l 528 1083 q 457 1056 496 1056 z "},"Ṧ":{"ha":904,"x_min":53,"x_max":846,"o":"m 450 -12 q 246 13 340 -12 q 92 86 151 39 q 62 119 71 101 q 53 163 53 136 q 74 224 53 197 q 124 250 96 250 q 153 245 139 250 q 189 228 168 240 q 310 173 249 190 q 444 156 371 156 q 585 186 536 156 q 633 274 633 217 q 588 343 633 317 q 428 393 543 369 q 222 457 299 419 q 109 550 144 494 q 74 685 74 606 q 124 842 74 772 q 265 952 175 913 q 467 992 354 992 q 792 893 664 992 q 822 859 813 876 q 831 817 831 842 q 809 756 831 782 q 760 729 788 729 q 731 733 744 729 q 694 751 718 738 q 590 806 638 788 q 468 824 542 824 q 335 791 383 824 q 286 701 286 758 q 305 647 286 668 q 367 608 324 625 q 492 574 411 592 q 763 467 681 532 q 846 288 846 401 q 797 131 846 199 q 658 25 747 63 q 450 -12 568 -12 m 457 1056 q 386 1083 418 1056 l 275 1176 q 250 1225 250 1197 q 268 1266 250 1249 q 311 1283 286 1283 q 361 1263 339 1283 l 457 1169 l 553 1263 q 601 1283 574 1283 q 646 1266 628 1283 q 664 1225 664 1249 q 639 1176 664 1200 l 528 1083 q 457 1056 496 1056 m 457 1289 q 369 1317 401 1289 q 338 1394 338 1346 q 369 1471 338 1443 q 457 1499 401 1499 q 544 1470 511 1499 q 576 1394 576 1442 q 544 1317 576 1346 q 457 1289 513 1289 z "},"Ş":{"ha":904,"x_min":53,"x_max":846,"o":"m 846 288 q 802 139 846 204 q 678 34 758 74 q 490 -11 597 -6 l 485 -58 q 515 -56 507 -56 q 588 -82 558 -56 q 618 -151 618 -108 q 569 -240 618 -206 q 431 -274 521 -274 q 332 -260 372 -274 q 304 -218 304 -250 q 317 -185 304 -199 q 347 -176 329 -171 q 425 -187 394 -187 q 489 -151 489 -187 q 480 -132 489 -139 q 456 -125 471 -125 q 424 -129 443 -125 q 394 -133 404 -133 q 373 -126 381 -133 q 367 -104 365 -118 l 379 -10 q 216 22 290 -3 q 92 86 142 47 q 62 119 71 101 q 53 163 53 136 q 74 224 53 197 q 124 250 96 250 q 153 245 139 250 q 189 228 168 240 q 310 173 249 190 q 444 156 371 156 q 585 186 536 156 q 633 274 633 217 q 588 343 633 317 q 428 393 543 369 q 222 457 299 419 q 109 550 144 494 q 74 685 74 606 q 124 842 74 772 q 265 952 175 913 q 467 992 354 992 q 792 893 664 992 q 822 859 813 876 q 831 817 831 842 q 809 756 831 782 q 760 729 788 729 q 731 733 744 729 q 694 751 718 738 q 590 806 638 788 q 468 824 542 824 q 335 791 383 824 q 286 701 286 758 q 305 647 286 668 q 367 608 324 625 q 492 574 411 592 q 763 467 681 532 q 846 288 846 401 z "},"Ŝ":{"ha":904,"x_min":53,"x_max":846,"o":"m 450 -12 q 246 13 340 -12 q 92 86 151 39 q 62 119 71 101 q 53 163 53 136 q 74 224 53 197 q 124 250 96 250 q 153 245 139 250 q 189 228 168 240 q 310 173 249 190 q 444 156 371 156 q 585 186 536 156 q 633 274 633 217 q 588 343 633 317 q 428 393 543 369 q 222 457 299 419 q 109 550 144 494 q 74 685 74 606 q 124 842 74 772 q 265 952 175 913 q 467 992 354 992 q 792 893 664 992 q 822 859 813 876 q 831 817 831 842 q 809 756 831 782 q 760 729 788 729 q 731 733 744 729 q 694 751 718 738 q 590 806 638 788 q 468 824 542 824 q 335 791 383 824 q 286 701 286 758 q 305 647 286 668 q 367 608 324 625 q 492 574 411 592 q 763 467 681 532 q 846 288 846 401 q 797 131 846 199 q 658 25 747 63 q 450 -12 568 -12 m 361 1078 q 313 1057 340 1057 q 268 1074 286 1057 q 250 1115 250 1092 q 275 1163 250 1142 l 386 1257 q 457 1285 418 1285 q 528 1257 496 1285 l 639 1163 q 664 1115 664 1142 q 646 1074 664 1092 q 603 1057 628 1057 q 553 1078 575 1057 l 457 1171 l 361 1078 z "},"Ș":{"ha":904,"x_min":53,"x_max":846,"o":"m 450 -12 q 246 13 340 -12 q 92 86 151 39 q 62 119 71 101 q 53 163 53 136 q 74 224 53 197 q 124 250 96 250 q 153 245 139 250 q 189 228 168 240 q 310 173 249 190 q 444 156 371 156 q 585 186 536 156 q 633 274 633 217 q 588 343 633 317 q 428 393 543 369 q 222 457 299 419 q 109 550 144 494 q 74 685 74 606 q 124 842 74 772 q 265 952 175 913 q 467 992 354 992 q 792 893 664 992 q 822 859 813 876 q 831 817 831 842 q 809 756 831 782 q 760 729 788 729 q 731 733 744 729 q 694 751 718 738 q 590 806 638 788 q 468 824 542 824 q 335 791 383 824 q 286 701 286 758 q 305 647 286 668 q 367 608 324 625 q 492 574 411 592 q 763 467 681 532 q 846 288 846 401 q 797 131 846 199 q 658 25 747 63 q 450 -12 568 -12 m 447 -83 q 531 -115 500 -83 q 563 -208 563 -147 q 549 -290 563 -253 q 513 -353 535 -328 q 486 -372 501 -365 q 457 -379 471 -379 q 423 -369 436 -379 q 410 -343 410 -360 q 421 -315 410 -328 q 449 -257 443 -282 l 442 -257 q 375 -235 403 -257 q 347 -176 347 -214 q 376 -109 347 -135 q 447 -83 404 -83 z "},"Ṡ":{"ha":904,"x_min":53,"x_max":846,"o":"m 450 -12 q 246 13 340 -12 q 92 86 151 39 q 62 119 71 101 q 53 163 53 136 q 74 224 53 197 q 124 250 96 250 q 153 245 139 250 q 189 228 168 240 q 310 173 249 190 q 444 156 371 156 q 585 186 536 156 q 633 274 633 217 q 588 343 633 317 q 428 393 543 369 q 222 457 299 419 q 109 550 144 494 q 74 685 74 606 q 124 842 74 772 q 265 952 175 913 q 467 992 354 992 q 792 893 664 992 q 822 859 813 876 q 831 817 831 842 q 809 756 831 782 q 760 729 788 729 q 731 733 744 729 q 694 751 718 738 q 590 806 638 788 q 468 824 542 824 q 335 791 383 824 q 286 701 286 758 q 305 647 286 668 q 367 608 324 625 q 492 574 411 592 q 763 467 681 532 q 846 288 846 401 q 797 131 846 199 q 658 25 747 63 q 450 -12 568 -12 m 457 1067 q 369 1095 401 1067 q 338 1172 338 1124 q 369 1249 338 1221 q 457 1276 401 1276 q 544 1248 511 1276 q 576 1172 576 1219 q 544 1095 576 1124 q 457 1067 513 1067 z "},"Ṣ":{"ha":904,"x_min":53,"x_max":846,"o":"m 450 -12 q 246 13 340 -12 q 92 86 151 39 q 62 119 71 101 q 53 163 53 136 q 74 224 53 197 q 124 250 96 250 q 153 245 139 250 q 189 228 168 240 q 310 173 249 190 q 444 156 371 156 q 585 186 536 156 q 633 274 633 217 q 588 343 633 317 q 428 393 543 369 q 222 457 299 419 q 109 550 144 494 q 74 685 74 606 q 124 842 74 772 q 265 952 175 913 q 467 992 354 992 q 792 893 664 992 q 822 859 813 876 q 831 817 831 842 q 809 756 831 782 q 760 729 788 729 q 731 733 744 729 q 694 751 718 738 q 590 806 638 788 q 468 824 542 824 q 335 791 383 824 q 286 701 286 758 q 305 647 286 668 q 367 608 324 625 q 492 574 411 592 q 763 467 681 532 q 846 288 846 401 q 797 131 846 199 q 658 25 747 63 q 450 -12 568 -12 m 450 -283 q 376 -256 404 -283 q 347 -183 347 -228 q 376 -112 347 -139 q 450 -86 404 -86 q 524 -112 496 -86 q 553 -183 553 -139 q 524 -256 553 -228 q 450 -283 496 -283 z "},"Ṩ":{"ha":904,"x_min":53,"x_max":846,"o":"m 450 -12 q 246 13 340 -12 q 92 86 151 39 q 62 119 71 101 q 53 163 53 136 q 74 224 53 197 q 124 250 96 250 q 153 245 139 250 q 189 228 168 240 q 310 173 249 190 q 444 156 371 156 q 585 186 536 156 q 633 274 633 217 q 588 343 633 317 q 428 393 543 369 q 222 457 299 419 q 109 550 144 494 q 74 685 74 606 q 124 842 74 772 q 265 952 175 913 q 467 992 354 992 q 792 893 664 992 q 822 859 813 876 q 831 817 831 842 q 809 756 831 782 q 760 729 788 729 q 731 733 744 729 q 694 751 718 738 q 590 806 638 788 q 468 824 542 824 q 335 791 383 824 q 286 701 286 758 q 305 647 286 668 q 367 608 324 625 q 492 574 411 592 q 763 467 681 532 q 846 288 846 401 q 797 131 846 199 q 658 25 747 63 q 450 -12 568 -12 m 450 -283 q 376 -256 404 -283 q 347 -183 347 -228 q 376 -112 347 -139 q 450 -86 404 -86 q 524 -112 496 -86 q 553 -183 553 -139 q 524 -256 553 -228 q 450 -283 496 -283 m 457 1067 q 369 1095 401 1067 q 338 1172 338 1124 q 369 1249 338 1221 q 457 1276 401 1276 q 544 1248 511 1276 q 576 1172 576 1219 q 544 1095 576 1124 q 457 1067 513 1067 z "},"ẞ":{"ha":986,"x_min":97,"x_max":935,"o":"m 732 511 q 881 428 828 492 q 935 274 935 365 q 894 129 935 193 q 783 28 854 65 q 624 -8 713 -8 q 408 50 493 -8 q 364 126 364 76 q 381 186 364 163 q 426 210 399 210 q 488 190 449 210 q 519 176 496 186 q 564 159 542 165 q 610 153 586 153 q 698 188 665 153 q 731 282 731 222 q 688 381 731 350 q 544 411 644 411 l 469 411 q 407 436 429 411 q 385 496 385 461 q 407 554 385 529 q 469 579 429 579 l 518 579 q 624 609 588 579 q 660 696 660 639 q 618 788 660 754 q 506 821 576 821 q 360 769 411 821 q 310 618 310 717 l 310 97 q 281 19 310 49 q 204 -10 251 -10 q 126 19 156 -10 q 97 97 97 49 l 97 614 q 206 891 97 793 q 511 989 314 989 q 696 956 617 989 q 818 860 775 922 q 861 715 861 799 q 827 592 861 646 q 732 511 793 539 z "},"Ə":{"ha":1065,"x_min":69,"x_max":996,"o":"m 500 992 q 763 931 650 992 q 935 756 875 869 q 996 490 996 643 q 939 229 996 343 q 778 51 882 115 q 538 -12 675 -12 q 289 47 394 -12 q 126 217 183 106 q 69 486 69 329 q 92 553 69 529 q 157 578 115 578 l 775 578 q 684 758 757 697 q 488 819 611 819 q 263 751 378 819 q 227 734 240 739 q 196 729 214 729 q 147 755 167 729 q 126 817 126 781 q 135 859 126 842 q 164 892 144 876 q 311 966 224 940 q 500 992 399 992 m 538 156 q 778 413 750 156 l 289 413 q 365 221 300 286 q 538 156 429 156 z "},"T":{"ha":864,"x_min":-4,"x_max":868,"o":"m 432 -7 q 353 22 383 -7 q 324 100 324 51 l 324 803 l 99 803 q -4 892 -4 803 q 99 979 -4 979 l 765 979 q 868 892 868 979 q 765 803 868 803 l 540 803 l 540 100 q 511 22 540 51 q 432 -7 482 -7 z "},"Ŧ":{"ha":864,"x_min":-4,"x_max":868,"o":"m 765 979 q 868 892 868 979 q 765 803 868 803 l 540 803 l 540 576 l 653 576 q 724 555 699 576 q 749 494 749 533 q 724 434 749 456 q 653 413 699 413 l 540 413 l 540 100 q 511 22 540 51 q 432 -7 482 -7 q 353 22 383 -7 q 324 100 324 51 l 324 413 l 211 413 q 140 434 165 413 q 115 494 115 456 q 140 555 115 533 q 211 576 165 576 l 324 576 l 324 803 l 99 803 q -4 892 -4 803 q 99 979 -4 979 l 765 979 z "},"Ť":{"ha":864,"x_min":-4,"x_max":868,"o":"m 432 -7 q 353 22 383 -7 q 324 100 324 51 l 324 803 l 99 803 q -4 892 -4 803 q 99 979 -4 979 l 765 979 q 868 892 868 979 q 765 803 868 803 l 540 803 l 540 100 q 511 22 540 51 q 432 -7 482 -7 m 432 1056 q 361 1083 393 1056 l 250 1176 q 225 1225 225 1197 q 243 1266 225 1249 q 286 1283 261 1283 q 336 1263 314 1283 l 432 1169 l 528 1263 q 576 1283 549 1283 q 621 1266 603 1283 q 639 1225 639 1249 q 614 1176 639 1200 l 503 1083 q 432 1056 471 1056 z "},"Ţ":{"ha":864,"x_min":-4,"x_max":868,"o":"m 765 979 q 868 892 868 979 q 765 803 868 803 l 540 803 l 540 100 q 523 37 540 63 q 474 0 506 11 l 467 -58 q 497 -56 489 -56 q 570 -82 540 -56 q 600 -151 600 -108 q 551 -240 600 -206 q 413 -274 503 -274 q 314 -260 354 -274 q 286 -218 286 -250 q 299 -185 286 -199 q 329 -176 311 -171 q 407 -187 376 -187 q 471 -151 471 -187 q 462 -132 471 -139 q 438 -125 453 -125 q 406 -129 425 -125 q 376 -133 386 -133 q 355 -126 363 -133 q 349 -104 347 -118 l 364 14 q 324 100 324 43 l 324 803 l 99 803 q -4 892 -4 803 q 99 979 -4 979 l 765 979 z "},"Ț":{"ha":864,"x_min":-4,"x_max":868,"o":"m 432 -7 q 353 22 383 -7 q 324 100 324 51 l 324 803 l 99 803 q -4 892 -4 803 q 99 979 -4 979 l 765 979 q 868 892 868 979 q 765 803 868 803 l 540 803 l 540 100 q 511 22 540 51 q 432 -7 482 -7 m 429 -83 q 513 -115 482 -83 q 544 -208 544 -147 q 531 -290 544 -253 q 494 -353 517 -328 q 468 -372 483 -365 q 439 -379 453 -379 q 405 -369 418 -379 q 392 -343 392 -360 q 403 -315 392 -328 q 431 -257 425 -282 l 424 -257 q 357 -235 385 -257 q 329 -176 329 -214 q 358 -109 329 -135 q 429 -83 386 -83 z "},"Ṭ":{"ha":864,"x_min":-4,"x_max":868,"o":"m 432 -7 q 353 22 383 -7 q 324 100 324 51 l 324 803 l 99 803 q -4 892 -4 803 q 99 979 -4 979 l 765 979 q 868 892 868 979 q 765 803 868 803 l 540 803 l 540 100 q 511 22 540 51 q 432 -7 482 -7 m 432 -283 q 358 -256 386 -283 q 329 -183 329 -228 q 358 -112 329 -139 q 432 -86 386 -86 q 506 -112 478 -86 q 535 -183 535 -139 q 506 -256 535 -228 q 432 -283 478 -283 z "},"Ṯ":{"ha":864,"x_min":-4,"x_max":868,"o":"m 432 -7 q 353 22 383 -7 q 324 100 324 51 l 324 803 l 99 803 q -4 892 -4 803 q 99 979 -4 979 l 765 979 q 868 892 868 979 q 765 803 868 803 l 540 803 l 540 100 q 511 22 540 51 q 432 -7 482 -7 m 264 -246 q 214 -230 233 -246 q 194 -185 194 -214 q 214 -140 194 -157 q 264 -124 233 -124 l 600 -124 q 650 -140 631 -124 q 669 -185 669 -157 q 650 -230 669 -214 q 600 -246 631 -246 l 264 -246 z "},"U":{"ha":1026,"x_min":92,"x_max":935,"o":"m 513 -12 q 199 94 307 -12 q 92 404 92 200 l 92 879 q 121 957 92 928 q 199 986 150 986 q 276 957 247 986 q 304 879 304 928 l 304 394 q 358 217 304 278 q 513 156 411 156 q 668 217 614 156 q 722 394 722 279 l 722 879 q 751 957 722 928 q 828 986 779 986 q 906 957 876 986 q 935 879 935 928 l 935 404 q 826 94 935 201 q 513 -12 718 -12 z "},"Ú":{"ha":1026,"x_min":92,"x_max":935,"o":"m 513 -12 q 199 94 307 -12 q 92 404 92 200 l 92 879 q 121 957 92 928 q 199 986 150 986 q 276 957 247 986 q 304 879 304 928 l 304 394 q 358 217 304 278 q 513 156 411 156 q 668 217 614 156 q 722 394 722 279 l 722 879 q 751 957 722 928 q 828 986 779 986 q 906 957 876 986 q 935 879 935 928 l 935 404 q 826 94 935 201 q 513 -12 718 -12 m 538 1061 q 511 1056 526 1056 q 477 1069 492 1056 q 463 1100 463 1082 q 481 1136 463 1118 l 600 1254 q 668 1286 632 1286 q 722 1263 699 1286 q 744 1210 744 1240 q 731 1169 744 1189 q 689 1136 717 1150 l 538 1061 z "},"Ŭ":{"ha":1026,"x_min":92,"x_max":935,"o":"m 513 -12 q 199 94 307 -12 q 92 404 92 200 l 92 879 q 121 957 92 928 q 199 986 150 986 q 276 957 247 986 q 304 879 304 928 l 304 394 q 358 217 304 278 q 513 156 411 156 q 668 217 614 156 q 722 394 722 279 l 722 879 q 751 957 722 928 q 828 986 779 986 q 906 957 876 986 q 935 879 935 928 l 935 404 q 826 94 935 201 q 513 -12 718 -12 m 513 1074 q 370 1103 432 1074 q 282 1181 308 1132 q 271 1218 271 1203 q 287 1253 271 1239 q 325 1268 303 1268 q 378 1244 354 1268 q 436 1210 400 1222 q 513 1199 472 1199 q 589 1210 553 1199 q 647 1244 625 1222 q 700 1267 671 1267 q 738 1253 722 1267 q 754 1217 754 1239 q 743 1181 754 1203 q 655 1103 717 1132 q 513 1074 593 1074 z "},"Û":{"ha":1026,"x_min":92,"x_max":935,"o":"m 513 -12 q 199 94 307 -12 q 92 404 92 200 l 92 879 q 121 957 92 928 q 199 986 150 986 q 276 957 247 986 q 304 879 304 928 l 304 394 q 358 217 304 278 q 513 156 411 156 q 668 217 614 156 q 722 394 722 279 l 722 879 q 751 957 722 928 q 828 986 779 986 q 906 957 876 986 q 935 879 935 928 l 935 404 q 826 94 935 201 q 513 -12 718 -12 m 417 1078 q 368 1057 396 1057 q 324 1074 342 1057 q 306 1115 306 1092 q 331 1163 306 1142 l 442 1257 q 513 1285 474 1285 q 583 1257 551 1285 l 694 1163 q 719 1115 719 1142 q 701 1074 719 1092 q 658 1057 683 1057 q 608 1078 631 1057 l 513 1171 l 417 1078 z "},"Ȕ":{"ha":1026,"x_min":92,"x_max":935,"o":"m 513 -12 q 199 94 307 -12 q 92 404 92 200 l 92 879 q 121 957 92 928 q 199 986 150 986 q 276 957 247 986 q 304 879 304 928 l 304 394 q 358 217 304 278 q 513 156 411 156 q 668 217 614 156 q 722 394 722 279 l 722 879 q 751 957 722 928 q 828 986 779 986 q 906 957 876 986 q 935 879 935 928 l 935 404 q 826 94 935 201 q 513 -12 718 -12 m 289 1165 q 267 1214 267 1188 q 291 1264 267 1243 q 344 1285 315 1285 q 406 1240 386 1285 l 457 1125 q 461 1101 461 1113 q 448 1069 461 1082 q 417 1056 435 1056 q 378 1074 396 1056 l 289 1165 m 481 1165 q 458 1214 458 1188 q 483 1264 458 1243 q 536 1285 507 1285 q 597 1240 578 1285 l 649 1125 q 654 1101 654 1114 q 641 1069 654 1082 q 610 1056 628 1056 q 571 1074 589 1056 l 481 1165 z "},"Ü":{"ha":1026,"x_min":92,"x_max":935,"o":"m 513 -12 q 199 94 307 -12 q 92 404 92 200 l 92 879 q 121 957 92 928 q 199 986 150 986 q 276 957 247 986 q 304 879 304 928 l 304 394 q 358 217 304 278 q 513 156 411 156 q 668 217 614 156 q 722 394 722 279 l 722 879 q 751 957 722 928 q 828 986 779 986 q 906 957 876 986 q 935 879 935 928 l 935 404 q 826 94 935 201 q 513 -12 718 -12 m 381 1074 q 306 1101 335 1074 q 276 1172 276 1128 q 306 1243 276 1217 q 381 1269 335 1269 q 456 1243 426 1269 q 485 1172 485 1217 q 456 1101 485 1128 q 381 1074 428 1074 m 644 1074 q 570 1101 599 1074 q 542 1172 542 1128 q 570 1243 542 1217 q 644 1269 599 1269 q 719 1243 690 1269 q 749 1172 749 1217 q 719 1101 749 1128 q 644 1074 690 1074 z "},"Ụ":{"ha":1026,"x_min":92,"x_max":935,"o":"m 513 -12 q 199 94 307 -12 q 92 404 92 200 l 92 879 q 121 957 92 928 q 199 986 150 986 q 276 957 247 986 q 304 879 304 928 l 304 394 q 358 217 304 278 q 513 156 411 156 q 668 217 614 156 q 722 394 722 279 l 722 879 q 751 957 722 928 q 828 986 779 986 q 906 957 876 986 q 935 879 935 928 l 935 404 q 826 94 935 201 q 513 -12 718 -12 m 513 -283 q 438 -256 467 -283 q 410 -183 410 -228 q 438 -112 410 -139 q 513 -86 467 -86 q 587 -112 558 -86 q 615 -183 615 -139 q 587 -256 615 -228 q 513 -283 558 -283 z "},"Ù":{"ha":1026,"x_min":92,"x_max":935,"o":"m 513 -12 q 199 94 307 -12 q 92 404 92 200 l 92 879 q 121 957 92 928 q 199 986 150 986 q 276 957 247 986 q 304 879 304 928 l 304 394 q 358 217 304 278 q 513 156 411 156 q 668 217 614 156 q 722 394 722 279 l 722 879 q 751 957 722 928 q 828 986 779 986 q 906 957 876 986 q 935 879 935 928 l 935 404 q 826 94 935 201 q 513 -12 718 -12 m 336 1136 q 281 1211 281 1163 q 303 1263 281 1240 q 357 1286 325 1286 q 425 1254 393 1286 l 544 1136 q 561 1100 561 1121 q 547 1068 561 1081 q 513 1056 533 1056 q 488 1061 499 1056 l 336 1136 z "},"Ủ":{"ha":1026,"x_min":92,"x_max":935,"o":"m 513 -12 q 199 94 307 -12 q 92 404 92 200 l 92 879 q 121 957 92 928 q 199 986 150 986 q 276 957 247 986 q 304 879 304 928 l 304 394 q 358 217 304 278 q 513 156 411 156 q 668 217 614 156 q 722 394 722 279 l 722 879 q 751 957 722 928 q 828 986 779 986 q 906 957 876 986 q 935 879 935 928 l 935 404 q 826 94 935 201 q 513 -12 718 -12 m 567 1086 q 549 1063 563 1071 q 517 1056 535 1056 q 478 1067 494 1056 q 463 1097 463 1078 q 479 1137 463 1124 q 524 1160 496 1150 q 535 1165 526 1161 q 548 1172 544 1168 q 551 1179 551 1175 q 506 1203 551 1203 q 436 1192 481 1203 q 405 1201 418 1188 q 392 1232 392 1214 q 417 1268 392 1258 q 522 1285 461 1285 q 637 1260 594 1285 q 679 1197 679 1235 q 663 1155 679 1169 q 614 1124 647 1140 q 582 1107 593 1115 q 567 1086 571 1099 z "},"Ư":{"ha":1026,"x_min":92,"x_max":1092,"o":"m 1092 1086 q 1049 958 1092 1015 q 935 883 1006 900 l 935 404 q 826 94 935 201 q 513 -12 718 -12 q 199 94 307 -12 q 92 404 92 200 l 92 879 q 121 957 92 928 q 199 986 150 986 q 276 957 247 986 q 304 879 304 928 l 304 394 q 358 217 304 278 q 513 156 411 156 q 668 217 614 156 q 722 394 722 279 l 722 879 q 749 956 722 926 q 822 988 776 986 q 881 1008 863 989 q 904 1082 899 1028 q 1006 1192 914 1192 q 1092 1086 1092 1192 z "},"Ứ":{"ha":1026,"x_min":92,"x_max":1092,"o":"m 1092 1086 q 1049 958 1092 1015 q 935 883 1006 900 l 935 404 q 826 94 935 201 q 513 -12 718 -12 q 199 94 307 -12 q 92 404 92 200 l 92 879 q 121 957 92 928 q 199 986 150 986 q 276 957 247 986 q 304 879 304 928 l 304 394 q 358 217 304 278 q 513 156 411 156 q 668 217 614 156 q 722 394 722 279 l 722 879 q 749 956 722 926 q 822 988 776 986 q 881 1008 863 989 q 904 1082 899 1028 q 1006 1192 914 1192 q 1092 1086 1092 1192 m 538 1061 q 511 1056 526 1056 q 477 1069 492 1056 q 463 1100 463 1082 q 481 1136 463 1118 l 600 1254 q 668 1286 632 1286 q 722 1263 699 1286 q 744 1210 744 1240 q 731 1169 744 1189 q 689 1136 717 1150 l 538 1061 z "},"Ự":{"ha":1026,"x_min":92,"x_max":1092,"o":"m 1092 1086 q 1049 958 1092 1015 q 935 883 1006 900 l 935 404 q 826 94 935 201 q 513 -12 718 -12 q 199 94 307 -12 q 92 404 92 200 l 92 879 q 121 957 92 928 q 199 986 150 986 q 276 957 247 986 q 304 879 304 928 l 304 394 q 358 217 304 278 q 513 156 411 156 q 668 217 614 156 q 722 394 722 279 l 722 879 q 749 956 722 926 q 822 988 776 986 q 881 1008 863 989 q 904 1082 899 1028 q 1006 1192 914 1192 q 1092 1086 1092 1192 m 513 -283 q 438 -256 467 -283 q 410 -183 410 -228 q 438 -112 410 -139 q 513 -86 467 -86 q 587 -112 558 -86 q 615 -183 615 -139 q 587 -256 615 -228 q 513 -283 558 -283 z "},"Ừ":{"ha":1026,"x_min":92,"x_max":1092,"o":"m 1092 1086 q 1049 958 1092 1015 q 935 883 1006 900 l 935 404 q 826 94 935 201 q 513 -12 718 -12 q 199 94 307 -12 q 92 404 92 200 l 92 879 q 121 957 92 928 q 199 986 150 986 q 276 957 247 986 q 304 879 304 928 l 304 394 q 358 217 304 278 q 513 156 411 156 q 668 217 614 156 q 722 394 722 279 l 722 879 q 749 956 722 926 q 822 988 776 986 q 881 1008 863 989 q 904 1082 899 1028 q 1006 1192 914 1192 q 1092 1086 1092 1192 m 336 1136 q 281 1211 281 1163 q 303 1263 281 1240 q 357 1286 325 1286 q 425 1254 393 1286 l 544 1136 q 561 1100 561 1121 q 547 1068 561 1081 q 513 1056 533 1056 q 488 1061 499 1056 l 336 1136 z "},"Ử":{"ha":1026,"x_min":92,"x_max":1092,"o":"m 1092 1086 q 1049 958 1092 1015 q 935 883 1006 900 l 935 404 q 826 94 935 201 q 513 -12 718 -12 q 199 94 307 -12 q 92 404 92 200 l 92 879 q 121 957 92 928 q 199 986 150 986 q 276 957 247 986 q 304 879 304 928 l 304 394 q 358 217 304 278 q 513 156 411 156 q 668 217 614 156 q 722 394 722 279 l 722 879 q 749 956 722 926 q 822 988 776 986 q 881 1008 863 989 q 904 1082 899 1028 q 1006 1192 914 1192 q 1092 1086 1092 1192 m 567 1086 q 549 1063 563 1071 q 517 1056 535 1056 q 478 1067 494 1056 q 463 1097 463 1078 q 479 1137 463 1124 q 524 1160 496 1150 q 535 1165 526 1161 q 548 1172 544 1168 q 551 1179 551 1175 q 506 1203 551 1203 q 436 1192 481 1203 q 405 1201 418 1188 q 392 1232 392 1214 q 417 1268 392 1258 q 522 1285 461 1285 q 637 1260 594 1285 q 679 1197 679 1235 q 663 1155 679 1169 q 614 1124 647 1140 q 582 1107 593 1115 q 567 1086 571 1099 z "},"Ữ":{"ha":1026,"x_min":92,"x_max":1092,"o":"m 1092 1086 q 1049 958 1092 1015 q 935 883 1006 900 l 935 404 q 826 94 935 201 q 513 -12 718 -12 q 199 94 307 -12 q 92 404 92 200 l 92 879 q 121 957 92 928 q 199 986 150 986 q 276 957 247 986 q 304 879 304 928 l 304 394 q 358 217 304 278 q 513 156 411 156 q 668 217 614 156 q 722 394 722 279 l 722 879 q 749 956 722 926 q 822 988 776 986 q 881 1008 863 989 q 904 1082 899 1028 q 1006 1192 914 1192 q 1092 1086 1092 1192 m 617 1085 q 549 1094 585 1085 q 508 1106 514 1104 q 410 1126 446 1126 q 385 1121 394 1126 q 364 1104 375 1115 q 342 1086 351 1092 q 318 1081 333 1081 q 287 1094 299 1081 q 275 1129 275 1107 q 292 1189 275 1158 q 340 1240 310 1219 q 408 1260 371 1260 q 476 1250 440 1260 q 517 1239 511 1240 q 615 1218 579 1218 q 640 1224 631 1218 q 661 1240 649 1229 q 682 1257 672 1251 q 707 1263 692 1263 q 739 1250 728 1263 q 750 1215 750 1238 q 733 1156 750 1186 q 685 1105 715 1125 q 617 1085 654 1085 z "},"Ű":{"ha":1026,"x_min":92,"x_max":935,"o":"m 513 -12 q 199 94 307 -12 q 92 404 92 200 l 92 879 q 121 957 92 928 q 199 986 150 986 q 276 957 247 986 q 304 879 304 928 l 304 394 q 358 217 304 278 q 513 156 411 156 q 668 217 614 156 q 722 394 722 279 l 722 879 q 751 957 722 928 q 828 986 779 986 q 906 957 876 986 q 935 879 935 928 l 935 404 q 826 94 935 201 q 513 -12 718 -12 m 454 1074 q 415 1056 436 1056 q 384 1068 397 1056 q 371 1100 371 1081 q 376 1125 371 1114 l 428 1240 q 489 1285 447 1285 q 542 1264 518 1285 q 567 1214 567 1243 q 544 1165 567 1189 l 454 1074 m 647 1074 q 608 1056 629 1056 q 577 1069 590 1056 q 564 1101 564 1082 q 568 1125 564 1113 l 619 1240 q 682 1285 639 1285 q 735 1264 711 1285 q 760 1214 760 1243 q 736 1165 760 1189 l 647 1074 z "},"Ȗ":{"ha":1026,"x_min":92,"x_max":935,"o":"m 513 -12 q 199 94 307 -12 q 92 404 92 200 l 92 879 q 121 957 92 928 q 199 986 150 986 q 276 957 247 986 q 304 879 304 928 l 304 394 q 358 217 304 278 q 513 156 411 156 q 668 217 614 156 q 722 394 722 279 l 722 879 q 751 957 722 928 q 828 986 779 986 q 906 957 876 986 q 935 879 935 928 l 935 404 q 826 94 935 201 q 513 -12 718 -12 m 378 1096 q 326 1074 354 1074 q 288 1088 304 1074 q 271 1125 271 1103 q 282 1161 271 1142 q 370 1239 308 1210 q 513 1268 432 1268 q 655 1239 593 1268 q 743 1161 717 1210 q 754 1124 754 1139 q 738 1088 754 1101 q 700 1074 722 1074 q 647 1096 671 1074 q 588 1131 624 1118 q 513 1143 551 1143 q 438 1131 474 1143 q 378 1096 401 1118 z "},"Ū":{"ha":1026,"x_min":92,"x_max":935,"o":"m 513 -12 q 199 94 307 -12 q 92 404 92 200 l 92 879 q 121 957 92 928 q 199 986 150 986 q 276 957 247 986 q 304 879 304 928 l 304 394 q 358 217 304 278 q 513 156 411 156 q 668 217 614 156 q 722 394 722 279 l 722 879 q 751 957 722 928 q 828 986 779 986 q 906 957 876 986 q 935 879 935 928 l 935 404 q 826 94 935 201 q 513 -12 718 -12 m 344 1106 q 294 1123 314 1106 q 275 1171 275 1140 q 294 1219 275 1201 q 344 1236 314 1236 l 681 1236 q 731 1219 711 1236 q 750 1171 750 1201 q 731 1123 750 1140 q 681 1106 711 1106 l 344 1106 z "},"Ṻ":{"ha":1026,"x_min":92,"x_max":935,"o":"m 513 -12 q 199 94 307 -12 q 92 404 92 200 l 92 879 q 121 957 92 928 q 199 986 150 986 q 276 957 247 986 q 304 879 304 928 l 304 394 q 358 217 304 278 q 513 156 411 156 q 668 217 614 156 q 722 394 722 279 l 722 879 q 751 957 722 928 q 828 986 779 986 q 906 957 876 986 q 935 879 935 928 l 935 404 q 826 94 935 201 q 513 -12 718 -12 m 344 1106 q 294 1123 314 1106 q 275 1171 275 1140 q 294 1219 275 1201 q 344 1236 314 1236 l 681 1236 q 731 1219 711 1236 q 750 1171 750 1201 q 731 1123 750 1140 q 681 1106 711 1106 l 344 1106 m 381 1296 q 306 1323 335 1296 q 276 1394 276 1350 q 306 1465 276 1439 q 381 1492 335 1492 q 456 1465 426 1492 q 485 1394 485 1439 q 456 1323 485 1350 q 381 1296 428 1296 m 644 1296 q 570 1323 599 1296 q 542 1394 542 1350 q 570 1465 542 1439 q 644 1492 599 1492 q 719 1465 690 1492 q 749 1394 749 1439 q 719 1323 749 1350 q 644 1296 690 1296 z "},"Ų":{"ha":1026,"x_min":92,"x_max":935,"o":"m 828 986 q 906 957 876 986 q 935 879 935 928 l 935 404 q 867 144 935 244 q 672 8 800 43 q 585 -90 585 -15 q 605 -144 585 -124 q 658 -165 625 -165 q 725 -153 686 -165 q 738 -151 729 -151 q 764 -165 754 -151 q 774 -197 774 -179 q 750 -242 774 -228 q 628 -274 696 -274 q 500 -231 550 -274 q 450 -121 450 -187 q 496 -12 450 -58 q 194 99 297 -7 q 92 404 92 204 l 92 879 q 121 957 92 928 q 199 986 150 986 q 276 957 247 986 q 304 879 304 928 l 304 394 q 358 217 304 278 q 513 156 411 156 q 668 217 614 156 q 722 394 722 279 l 722 879 q 751 957 722 928 q 828 986 779 986 z "},"Ů":{"ha":1026,"x_min":92,"x_max":935,"o":"m 513 -12 q 199 94 307 -12 q 92 404 92 200 l 92 879 q 121 957 92 928 q 199 986 150 986 q 276 957 247 986 q 304 879 304 928 l 304 394 q 358 217 304 278 q 513 156 411 156 q 668 217 614 156 q 722 394 722 279 l 722 879 q 751 957 722 928 q 828 986 779 986 q 906 957 876 986 q 935 879 935 928 l 935 404 q 826 94 935 201 q 513 -12 718 -12 m 513 1056 q 405 1099 449 1056 q 361 1204 361 1142 q 405 1311 361 1268 q 513 1354 449 1354 q 620 1311 576 1354 q 664 1204 664 1268 q 620 1099 664 1142 q 513 1056 576 1056 m 513 1142 q 556 1160 539 1142 q 572 1204 572 1178 q 556 1250 572 1232 q 513 1268 539 1268 q 469 1250 486 1268 q 453 1204 453 1232 q 469 1160 453 1178 q 513 1142 486 1142 z "},"Ũ":{"ha":1026,"x_min":92,"x_max":935,"o":"m 513 -12 q 199 94 307 -12 q 92 404 92 200 l 92 879 q 121 957 92 928 q 199 986 150 986 q 276 957 247 986 q 304 879 304 928 l 304 394 q 358 217 304 278 q 513 156 411 156 q 668 217 614 156 q 722 394 722 279 l 722 879 q 751 957 722 928 q 828 986 779 986 q 906 957 876 986 q 935 879 935 928 l 935 404 q 826 94 935 201 q 513 -12 718 -12 m 617 1085 q 549 1094 585 1085 q 508 1106 514 1104 q 410 1126 446 1126 q 385 1121 394 1126 q 364 1104 375 1115 q 342 1086 351 1092 q 318 1081 333 1081 q 287 1094 299 1081 q 275 1129 275 1107 q 292 1189 275 1158 q 340 1240 310 1219 q 408 1260 371 1260 q 476 1250 440 1260 q 517 1239 511 1240 q 615 1218 579 1218 q 640 1224 631 1218 q 661 1240 649 1229 q 682 1257 672 1251 q 707 1263 692 1263 q 739 1250 728 1263 q 750 1215 750 1238 q 733 1156 750 1186 q 685 1105 715 1125 q 617 1085 654 1085 z "},"Ṹ":{"ha":1026,"x_min":92,"x_max":935,"o":"m 513 -12 q 199 94 307 -12 q 92 404 92 200 l 92 879 q 121 957 92 928 q 199 986 150 986 q 276 957 247 986 q 304 879 304 928 l 304 394 q 358 217 304 278 q 513 156 411 156 q 668 217 614 156 q 722 394 722 279 l 722 879 q 751 957 722 928 q 828 986 779 986 q 906 957 876 986 q 935 879 935 928 l 935 404 q 826 94 935 201 q 513 -12 718 -12 m 617 1085 q 549 1094 585 1085 q 508 1106 514 1104 q 410 1126 446 1126 q 385 1121 394 1126 q 364 1104 375 1115 q 342 1086 351 1092 q 318 1081 333 1081 q 287 1094 299 1081 q 275 1129 275 1107 q 292 1189 275 1158 q 340 1240 310 1219 q 408 1260 371 1260 q 476 1250 440 1260 q 517 1239 511 1240 q 615 1218 579 1218 q 640 1224 631 1218 q 661 1240 649 1229 q 682 1257 672 1251 q 707 1263 692 1263 q 739 1250 728 1263 q 750 1215 750 1238 q 733 1156 750 1186 q 685 1105 715 1125 q 617 1085 654 1085 m 538 1283 q 511 1278 526 1278 q 477 1291 492 1278 q 463 1322 463 1304 q 481 1358 463 1340 l 600 1476 q 668 1508 632 1508 q 722 1485 699 1508 q 744 1432 744 1463 q 731 1392 744 1411 q 689 1358 717 1372 l 538 1283 z "},"V":{"ha":1011,"x_min":8,"x_max":1003,"o":"m 806 929 q 842 973 818 958 q 894 988 865 988 q 969 960 936 988 q 1003 892 1003 932 q 993 850 1003 871 l 618 58 q 572 9 603 26 q 506 -8 542 -8 q 439 9 469 -8 q 393 58 408 26 l 18 850 q 8 890 8 869 q 43 960 8 932 q 121 988 78 988 q 174 973 150 988 q 211 929 199 958 l 508 279 l 806 929 z "},"W":{"ha":1549,"x_min":44,"x_max":1504,"o":"m 1311 921 q 1349 972 1324 954 q 1407 989 1375 989 q 1476 964 1447 989 q 1504 896 1504 939 q 1496 850 1504 875 l 1207 60 q 1163 8 1194 26 q 1094 -11 1132 -11 q 1026 8 1057 -11 q 983 60 996 26 l 776 644 l 564 60 q 521 8 551 26 q 453 -11 490 -11 q 385 8 417 -11 q 342 60 354 26 l 53 850 q 44 894 44 874 q 75 963 44 938 q 147 989 106 989 q 208 972 181 989 q 247 921 235 954 l 461 306 l 683 918 q 723 969 696 951 q 781 988 750 988 q 839 969 813 988 q 878 917 865 951 l 1090 294 l 1311 921 z "},"Ẃ":{"ha":1549,"x_min":44,"x_max":1504,"o":"m 1311 921 q 1349 972 1324 954 q 1407 989 1375 989 q 1476 964 1447 989 q 1504 896 1504 939 q 1496 850 1504 875 l 1207 60 q 1163 8 1194 26 q 1094 -11 1132 -11 q 1026 8 1057 -11 q 983 60 996 26 l 776 644 l 564 60 q 521 8 551 26 q 453 -11 490 -11 q 385 8 417 -11 q 342 60 354 26 l 53 850 q 44 894 44 874 q 75 963 44 938 q 147 989 106 989 q 208 972 181 989 q 247 921 235 954 l 461 306 l 683 918 q 723 969 696 951 q 781 988 750 988 q 839 969 813 988 q 878 917 865 951 l 1090 294 l 1311 921 m 799 1061 q 772 1056 788 1056 q 738 1069 753 1056 q 724 1100 724 1082 q 742 1136 724 1118 l 861 1254 q 929 1286 893 1286 q 983 1263 960 1286 q 1006 1210 1006 1240 q 992 1169 1006 1189 q 950 1136 978 1150 l 799 1061 z "},"Ŵ":{"ha":1549,"x_min":44,"x_max":1504,"o":"m 1311 921 q 1349 972 1324 954 q 1407 989 1375 989 q 1476 964 1447 989 q 1504 896 1504 939 q 1496 850 1504 875 l 1207 60 q 1163 8 1194 26 q 1094 -11 1132 -11 q 1026 8 1057 -11 q 983 60 996 26 l 776 644 l 564 60 q 521 8 551 26 q 453 -11 490 -11 q 385 8 417 -11 q 342 60 354 26 l 53 850 q 44 894 44 874 q 75 963 44 938 q 147 989 106 989 q 208 972 181 989 q 247 921 235 954 l 461 306 l 683 918 q 723 969 696 951 q 781 988 750 988 q 839 969 813 988 q 878 917 865 951 l 1090 294 l 1311 921 m 678 1078 q 629 1057 657 1057 q 585 1074 603 1057 q 567 1115 567 1092 q 592 1163 567 1142 l 703 1257 q 774 1285 735 1285 q 844 1257 813 1285 l 956 1163 q 981 1115 981 1142 q 963 1074 981 1092 q 919 1057 944 1057 q 869 1078 892 1057 l 774 1171 l 678 1078 z "},"Ẅ":{"ha":1549,"x_min":44,"x_max":1504,"o":"m 1311 921 q 1349 972 1324 954 q 1407 989 1375 989 q 1476 964 1447 989 q 1504 896 1504 939 q 1496 850 1504 875 l 1207 60 q 1163 8 1194 26 q 1094 -11 1132 -11 q 1026 8 1057 -11 q 983 60 996 26 l 776 644 l 564 60 q 521 8 551 26 q 453 -11 490 -11 q 385 8 417 -11 q 342 60 354 26 l 53 850 q 44 894 44 874 q 75 963 44 938 q 147 989 106 989 q 208 972 181 989 q 247 921 235 954 l 461 306 l 683 918 q 723 969 696 951 q 781 988 750 988 q 839 969 813 988 q 878 917 865 951 l 1090 294 l 1311 921 m 642 1074 q 567 1101 596 1074 q 538 1172 538 1128 q 567 1243 538 1217 q 642 1269 596 1269 q 717 1243 688 1269 q 746 1172 746 1217 q 717 1101 746 1128 q 642 1074 689 1074 m 906 1074 q 831 1101 860 1074 q 803 1172 803 1128 q 831 1243 803 1217 q 906 1269 860 1269 q 981 1243 951 1269 q 1010 1172 1010 1217 q 981 1101 1010 1128 q 906 1074 951 1074 z "},"Ẁ":{"ha":1549,"x_min":44,"x_max":1504,"o":"m 1311 921 q 1349 972 1324 954 q 1407 989 1375 989 q 1476 964 1447 989 q 1504 896 1504 939 q 1496 850 1504 875 l 1207 60 q 1163 8 1194 26 q 1094 -11 1132 -11 q 1026 8 1057 -11 q 983 60 996 26 l 776 644 l 564 60 q 521 8 551 26 q 453 -11 490 -11 q 385 8 417 -11 q 342 60 354 26 l 53 850 q 44 894 44 874 q 75 963 44 938 q 147 989 106 989 q 208 972 181 989 q 247 921 235 954 l 461 306 l 683 918 q 723 969 696 951 q 781 988 750 988 q 839 969 813 988 q 878 917 865 951 l 1090 294 l 1311 921 m 597 1136 q 542 1211 542 1163 q 564 1263 542 1240 q 618 1286 586 1286 q 686 1254 654 1286 l 806 1136 q 822 1100 822 1121 q 808 1068 822 1081 q 774 1056 794 1056 q 749 1061 760 1056 l 597 1136 z "},"X":{"ha":938,"x_min":33,"x_max":904,"o":"m 878 156 q 904 92 904 125 q 873 22 904 51 q 801 -8 842 -8 q 731 26 760 -8 l 469 346 l 206 26 q 135 -8 175 -8 q 65 22 96 -8 q 33 92 33 51 q 58 156 33 126 l 343 494 l 68 824 q 42 888 42 854 q 73 958 42 928 q 143 988 104 988 q 215 951 185 988 l 469 644 l 721 951 q 793 988 751 988 q 863 958 832 988 q 894 888 894 928 q 869 824 894 853 l 594 494 l 878 156 z "},"Y":{"ha":883,"x_min":6,"x_max":881,"o":"m 707 951 q 779 988 738 988 q 849 958 818 988 q 881 889 881 928 q 854 824 881 854 l 550 463 l 550 100 q 519 19 550 47 q 443 -8 489 -8 q 364 19 394 -8 q 333 100 333 47 l 333 463 l 32 824 q 6 889 6 851 q 35 958 6 928 q 104 988 65 988 q 176 951 146 988 l 442 628 l 707 951 z "},"Ý":{"ha":883,"x_min":6,"x_max":881,"o":"m 707 951 q 779 988 738 988 q 849 958 818 988 q 881 889 881 928 q 854 824 881 854 l 550 463 l 550 100 q 519 19 550 47 q 443 -8 489 -8 q 364 19 394 -8 q 333 100 333 47 l 333 463 l 32 824 q 6 889 6 851 q 35 958 6 928 q 104 988 65 988 q 176 951 146 988 l 442 628 l 707 951 m 467 1061 q 440 1056 456 1056 q 406 1069 421 1056 q 392 1100 392 1082 q 410 1136 392 1118 l 529 1254 q 597 1286 561 1286 q 651 1263 628 1286 q 674 1210 674 1240 q 660 1169 674 1189 q 618 1136 646 1150 l 467 1061 z "},"Ŷ":{"ha":883,"x_min":6,"x_max":881,"o":"m 707 951 q 779 988 738 988 q 849 958 818 988 q 881 889 881 928 q 854 824 881 854 l 550 463 l 550 100 q 519 19 550 47 q 443 -8 489 -8 q 364 19 394 -8 q 333 100 333 47 l 333 463 l 32 824 q 6 889 6 851 q 35 958 6 928 q 104 988 65 988 q 176 951 146 988 l 442 628 l 707 951 m 346 1078 q 297 1057 325 1057 q 253 1074 271 1057 q 235 1115 235 1092 q 260 1163 235 1142 l 371 1257 q 442 1285 403 1285 q 513 1257 481 1285 l 624 1163 q 649 1115 649 1142 q 631 1074 649 1092 q 588 1057 613 1057 q 538 1078 560 1057 l 442 1171 l 346 1078 z "},"Ÿ":{"ha":883,"x_min":6,"x_max":881,"o":"m 707 951 q 779 988 738 988 q 849 958 818 988 q 881 889 881 928 q 854 824 881 854 l 550 463 l 550 100 q 519 19 550 47 q 443 -8 489 -8 q 364 19 394 -8 q 333 100 333 47 l 333 463 l 32 824 q 6 889 6 851 q 35 958 6 928 q 104 988 65 988 q 176 951 146 988 l 442 628 l 707 951 m 310 1074 q 235 1101 264 1074 q 206 1172 206 1128 q 235 1243 206 1217 q 310 1269 264 1269 q 385 1243 356 1269 q 414 1172 414 1217 q 385 1101 414 1128 q 310 1074 357 1074 m 574 1074 q 499 1101 528 1074 q 471 1172 471 1128 q 499 1243 471 1217 q 574 1269 528 1269 q 649 1243 619 1269 q 678 1172 678 1217 q 649 1101 678 1128 q 574 1074 619 1074 z "},"Ẏ":{"ha":883,"x_min":6,"x_max":881,"o":"m 707 951 q 779 988 738 988 q 849 958 818 988 q 881 889 881 928 q 854 824 881 854 l 550 463 l 550 100 q 519 19 550 47 q 443 -8 489 -8 q 364 19 394 -8 q 333 100 333 47 l 333 463 l 32 824 q 6 889 6 851 q 35 958 6 928 q 104 988 65 988 q 176 951 146 988 l 442 628 l 707 951 m 442 1067 q 354 1095 386 1067 q 322 1172 322 1124 q 354 1249 322 1221 q 442 1276 386 1276 q 528 1248 496 1276 q 561 1172 561 1219 q 529 1095 561 1124 q 442 1067 497 1067 z "},"Ỵ":{"ha":883,"x_min":6,"x_max":881,"o":"m 707 951 q 779 988 738 988 q 849 958 818 988 q 881 889 881 928 q 854 824 881 854 l 550 463 l 550 100 q 519 19 550 47 q 443 -8 489 -8 q 364 19 394 -8 q 333 100 333 47 l 333 463 l 32 824 q 6 889 6 851 q 35 958 6 928 q 104 988 65 988 q 176 951 146 988 l 442 628 l 707 951 m 443 -283 q 369 -256 397 -283 q 340 -183 340 -228 q 369 -112 340 -139 q 443 -86 397 -86 q 517 -112 489 -86 q 546 -183 546 -139 q 517 -256 546 -228 q 443 -283 489 -283 z "},"Ỳ":{"ha":883,"x_min":6,"x_max":881,"o":"m 707 951 q 779 988 738 988 q 849 958 818 988 q 881 889 881 928 q 854 824 881 854 l 550 463 l 550 100 q 519 19 550 47 q 443 -8 489 -8 q 364 19 394 -8 q 333 100 333 47 l 333 463 l 32 824 q 6 889 6 851 q 35 958 6 928 q 104 988 65 988 q 176 951 146 988 l 442 628 l 707 951 m 265 1136 q 210 1211 210 1163 q 232 1263 210 1240 q 286 1286 254 1286 q 354 1254 322 1286 l 474 1136 q 490 1100 490 1121 q 476 1068 490 1081 q 442 1056 463 1056 q 417 1061 428 1056 l 265 1136 z "},"Ỷ":{"ha":883,"x_min":6,"x_max":881,"o":"m 707 951 q 779 988 738 988 q 849 958 818 988 q 881 889 881 928 q 854 824 881 854 l 550 463 l 550 100 q 519 19 550 47 q 443 -8 489 -8 q 364 19 394 -8 q 333 100 333 47 l 333 463 l 32 824 q 6 889 6 851 q 35 958 6 928 q 104 988 65 988 q 176 951 146 988 l 442 628 l 707 951 m 496 1086 q 478 1063 492 1071 q 446 1056 464 1056 q 408 1067 424 1056 q 392 1097 392 1078 q 408 1137 392 1124 q 453 1160 425 1150 q 465 1165 456 1161 q 477 1172 474 1168 q 481 1179 481 1175 q 435 1203 481 1203 q 365 1192 410 1203 q 334 1201 347 1188 q 321 1232 321 1214 q 346 1268 321 1258 q 451 1285 390 1285 q 566 1260 524 1285 q 608 1197 608 1235 q 592 1155 608 1169 q 543 1124 576 1140 q 511 1107 522 1115 q 496 1086 500 1099 z "},"Ȳ":{"ha":883,"x_min":6,"x_max":881,"o":"m 707 951 q 779 988 738 988 q 849 958 818 988 q 881 889 881 928 q 854 824 881 854 l 550 463 l 550 100 q 519 19 550 47 q 443 -8 489 -8 q 364 19 394 -8 q 333 100 333 47 l 333 463 l 32 824 q 6 889 6 851 q 35 958 6 928 q 104 988 65 988 q 176 951 146 988 l 442 628 l 707 951 m 274 1106 q 224 1123 243 1106 q 204 1171 204 1140 q 224 1219 204 1201 q 274 1236 243 1236 l 610 1236 q 660 1219 640 1236 q 679 1171 679 1201 q 660 1123 679 1140 q 610 1106 640 1106 l 274 1106 z "},"Ỹ":{"ha":883,"x_min":6,"x_max":881,"o":"m 707 951 q 779 988 738 988 q 849 958 818 988 q 881 889 881 928 q 854 824 881 854 l 550 463 l 550 100 q 519 19 550 47 q 443 -8 489 -8 q 364 19 394 -8 q 333 100 333 47 l 333 463 l 32 824 q 6 889 6 851 q 35 958 6 928 q 104 988 65 988 q 176 951 146 988 l 442 628 l 707 951 m 546 1085 q 478 1094 514 1085 q 438 1106 443 1104 q 339 1126 375 1126 q 314 1121 324 1126 q 293 1104 304 1115 q 272 1086 281 1092 q 247 1081 263 1081 q 216 1094 228 1081 q 204 1129 204 1107 q 222 1189 204 1158 q 269 1240 239 1219 q 338 1260 300 1260 q 405 1250 369 1260 q 446 1239 440 1240 q 544 1218 508 1218 q 569 1224 560 1218 q 590 1240 578 1229 q 611 1257 601 1251 q 636 1263 621 1263 q 668 1250 657 1263 q 679 1215 679 1238 q 662 1156 679 1186 q 614 1105 644 1125 q 546 1085 583 1085 z "},"Z":{"ha":847,"x_min":49,"x_max":819,"o":"m 717 171 q 794 150 769 171 q 819 86 819 129 q 794 21 819 42 q 717 0 769 0 l 143 0 q 74 26 100 0 q 49 90 49 51 q 76 168 49 131 l 539 808 l 153 808 q 75 829 100 808 q 50 893 50 850 q 75 958 50 938 q 153 979 100 979 l 706 979 q 774 953 749 979 q 800 889 800 928 q 774 811 800 847 l 310 171 l 717 171 z "},"Ź":{"ha":847,"x_min":49,"x_max":819,"o":"m 717 171 q 794 150 769 171 q 819 86 819 129 q 794 21 819 42 q 717 0 769 0 l 143 0 q 74 26 100 0 q 49 90 49 51 q 76 168 49 131 l 539 808 l 153 808 q 75 829 100 808 q 50 893 50 850 q 75 958 50 938 q 153 979 100 979 l 706 979 q 774 953 749 979 q 800 889 800 928 q 774 811 800 847 l 310 171 l 717 171 m 450 1061 q 424 1056 439 1056 q 390 1069 404 1056 q 375 1100 375 1082 q 393 1136 375 1118 l 513 1254 q 581 1286 544 1286 q 634 1263 611 1286 q 657 1210 657 1240 q 643 1169 657 1189 q 601 1136 629 1150 l 450 1061 z "},"Ž":{"ha":847,"x_min":49,"x_max":819,"o":"m 717 171 q 794 150 769 171 q 819 86 819 129 q 794 21 819 42 q 717 0 769 0 l 143 0 q 74 26 100 0 q 49 90 49 51 q 76 168 49 131 l 539 808 l 153 808 q 75 829 100 808 q 50 893 50 850 q 75 958 50 938 q 153 979 100 979 l 706 979 q 774 953 749 979 q 800 889 800 928 q 774 811 800 847 l 310 171 l 717 171 m 425 1056 q 354 1083 386 1056 l 243 1176 q 218 1225 218 1197 q 236 1266 218 1249 q 279 1283 254 1283 q 329 1263 307 1283 l 425 1169 l 521 1263 q 569 1283 542 1283 q 614 1266 596 1283 q 632 1225 632 1249 q 607 1176 632 1200 l 496 1083 q 425 1056 464 1056 z "},"Ż":{"ha":847,"x_min":49,"x_max":819,"o":"m 717 171 q 794 150 769 171 q 819 86 819 129 q 794 21 819 42 q 717 0 769 0 l 143 0 q 74 26 100 0 q 49 90 49 51 q 76 168 49 131 l 539 808 l 153 808 q 75 829 100 808 q 50 893 50 850 q 75 958 50 938 q 153 979 100 979 l 706 979 q 774 953 749 979 q 800 889 800 928 q 774 811 800 847 l 310 171 l 717 171 m 425 1067 q 338 1095 369 1067 q 306 1172 306 1124 q 338 1249 306 1221 q 425 1276 369 1276 q 512 1248 479 1276 q 544 1172 544 1219 q 513 1095 544 1124 q 425 1067 481 1067 z "},"Ẓ":{"ha":847,"x_min":49,"x_max":819,"o":"m 717 171 q 794 150 769 171 q 819 86 819 129 q 794 21 819 42 q 717 0 769 0 l 143 0 q 74 26 100 0 q 49 90 49 51 q 76 168 49 131 l 539 808 l 153 808 q 75 829 100 808 q 50 893 50 850 q 75 958 50 938 q 153 979 100 979 l 706 979 q 774 953 749 979 q 800 889 800 928 q 774 811 800 847 l 310 171 l 717 171 m 421 -283 q 347 -256 375 -283 q 318 -183 318 -228 q 347 -112 318 -139 q 421 -86 375 -86 q 495 -112 467 -86 q 524 -183 524 -139 q 495 -256 524 -228 q 421 -283 467 -283 z "},"a":{"ha":758,"x_min":53,"x_max":682,"o":"m 388 699 q 610 626 538 699 q 682 403 682 553 l 682 89 q 656 17 682 43 q 582 -8 629 -8 q 510 19 538 -8 q 483 89 483 46 l 483 99 q 414 18 463 47 q 300 -11 365 -11 q 174 17 231 -11 q 85 94 118 44 q 53 206 53 144 q 91 324 53 281 q 214 386 129 367 q 446 406 299 406 l 482 406 l 482 431 q 456 515 482 489 q 371 542 431 542 q 199 500 311 542 q 144 485 167 485 q 96 506 114 485 q 78 563 78 528 q 90 608 78 590 q 131 642 103 626 q 249 683 179 668 q 388 699 319 699 m 346 133 q 444 174 407 133 q 482 281 482 215 l 482 304 l 458 304 q 301 286 346 304 q 256 221 256 268 q 281 158 256 182 q 346 133 307 133 z "},"á":{"ha":758,"x_min":53,"x_max":682,"o":"m 388 699 q 610 626 538 699 q 682 403 682 553 l 682 89 q 656 17 682 43 q 582 -8 629 -8 q 510 19 538 -8 q 483 89 483 46 l 483 99 q 414 18 463 47 q 300 -11 365 -11 q 174 17 231 -11 q 85 94 118 44 q 53 206 53 144 q 91 324 53 281 q 214 386 129 367 q 446 406 299 406 l 482 406 l 482 431 q 456 515 482 489 q 371 542 431 542 q 199 500 311 542 q 144 485 167 485 q 96 506 114 485 q 78 563 78 528 q 90 608 78 590 q 131 642 103 626 q 249 683 179 668 q 388 699 319 699 m 346 133 q 444 174 407 133 q 482 281 482 215 l 482 304 l 458 304 q 301 286 346 304 q 256 221 256 268 q 281 158 256 182 q 346 133 307 133 m 428 776 q 392 764 411 764 q 354 779 369 764 q 339 815 339 794 q 351 851 339 833 l 471 1011 q 554 1058 506 1058 q 615 1033 589 1058 q 642 975 642 1008 q 597 900 642 933 l 428 776 z "},"ă":{"ha":758,"x_min":53,"x_max":682,"o":"m 388 699 q 610 626 538 699 q 682 403 682 553 l 682 89 q 656 17 682 43 q 582 -8 629 -8 q 510 19 538 -8 q 483 89 483 46 l 483 99 q 414 18 463 47 q 300 -11 365 -11 q 174 17 231 -11 q 85 94 118 44 q 53 206 53 144 q 91 324 53 281 q 214 386 129 367 q 446 406 299 406 l 482 406 l 482 431 q 456 515 482 489 q 371 542 431 542 q 199 500 311 542 q 144 485 167 485 q 96 506 114 485 q 78 563 78 528 q 90 608 78 590 q 131 642 103 626 q 249 683 179 668 q 388 699 319 699 m 346 133 q 444 174 407 133 q 482 281 482 215 l 482 304 l 458 304 q 301 286 346 304 q 256 221 256 268 q 281 158 256 182 q 346 133 307 133 m 388 796 q 240 839 307 796 q 147 951 172 882 q 143 976 143 964 q 160 1017 143 1001 q 201 1033 178 1033 q 254 1003 233 1033 q 388 931 300 931 q 521 1003 475 931 q 545 1026 531 1018 q 574 1033 560 1033 q 615 1017 597 1033 q 633 976 633 1001 q 628 951 633 968 q 535 839 603 882 q 388 796 468 796 z "},"ắ":{"ha":758,"x_min":53,"x_max":682,"o":"m 388 699 q 610 626 538 699 q 682 403 682 553 l 682 89 q 656 17 682 43 q 582 -8 629 -8 q 510 19 538 -8 q 483 89 483 46 l 483 99 q 414 18 463 47 q 300 -11 365 -11 q 174 17 231 -11 q 85 94 118 44 q 53 206 53 144 q 91 324 53 281 q 214 386 129 367 q 446 406 299 406 l 482 406 l 482 431 q 456 515 482 489 q 371 542 431 542 q 199 500 311 542 q 144 485 167 485 q 96 506 114 485 q 78 563 78 528 q 90 608 78 590 q 131 642 103 626 q 249 683 179 668 q 388 699 319 699 m 346 133 q 444 174 407 133 q 482 281 482 215 l 482 304 l 458 304 q 301 286 346 304 q 256 221 256 268 q 281 158 256 182 q 346 133 307 133 m 406 917 q 385 911 396 911 q 352 924 365 911 q 339 954 339 936 q 363 997 339 975 l 474 1094 q 536 1121 504 1121 q 583 1101 564 1121 q 601 1054 601 1081 q 553 988 601 1011 l 406 917 m 388 764 q 245 793 307 764 q 157 869 183 822 q 146 908 146 888 q 158 941 146 929 q 190 953 171 953 q 239 932 217 953 q 304 888 267 906 q 388 869 342 869 q 471 888 433 869 q 536 932 508 906 q 585 953 558 953 q 617 940 604 953 q 631 908 631 928 q 618 869 631 890 q 530 793 592 822 q 388 764 468 764 z "},"ặ":{"ha":758,"x_min":53,"x_max":682,"o":"m 388 699 q 610 626 538 699 q 682 403 682 553 l 682 89 q 656 17 682 43 q 582 -8 629 -8 q 510 19 538 -8 q 483 89 483 46 l 483 99 q 414 18 463 47 q 300 -11 365 -11 q 174 17 231 -11 q 85 94 118 44 q 53 206 53 144 q 91 324 53 281 q 214 386 129 367 q 446 406 299 406 l 482 406 l 482 431 q 456 515 482 489 q 371 542 431 542 q 199 500 311 542 q 144 485 167 485 q 96 506 114 485 q 78 563 78 528 q 90 608 78 590 q 131 642 103 626 q 249 683 179 668 q 388 699 319 699 m 346 133 q 444 174 407 133 q 482 281 482 215 l 482 304 l 458 304 q 301 286 346 304 q 256 221 256 268 q 281 158 256 182 q 346 133 307 133 m 382 -283 q 308 -256 336 -283 q 279 -183 279 -228 q 308 -112 279 -139 q 382 -86 336 -86 q 456 -112 428 -86 q 485 -183 485 -139 q 456 -256 485 -228 q 382 -283 428 -283 m 388 796 q 240 839 307 796 q 147 951 172 882 q 143 976 143 964 q 160 1017 143 1001 q 201 1033 178 1033 q 254 1003 233 1033 q 388 931 300 931 q 521 1003 475 931 q 545 1026 531 1018 q 574 1033 560 1033 q 615 1017 597 1033 q 633 976 633 1001 q 628 951 633 968 q 535 839 603 882 q 388 796 468 796 z "},"ằ":{"ha":758,"x_min":53,"x_max":682,"o":"m 388 699 q 610 626 538 699 q 682 403 682 553 l 682 89 q 656 17 682 43 q 582 -8 629 -8 q 510 19 538 -8 q 483 89 483 46 l 483 99 q 414 18 463 47 q 300 -11 365 -11 q 174 17 231 -11 q 85 94 118 44 q 53 206 53 144 q 91 324 53 281 q 214 386 129 367 q 446 406 299 406 l 482 406 l 482 431 q 456 515 482 489 q 371 542 431 542 q 199 500 311 542 q 144 485 167 485 q 96 506 114 485 q 78 563 78 528 q 90 608 78 590 q 131 642 103 626 q 249 683 179 668 q 388 699 319 699 m 346 133 q 444 174 407 133 q 482 281 482 215 l 482 304 l 458 304 q 301 286 346 304 q 256 221 256 268 q 281 158 256 182 q 346 133 307 133 m 222 988 q 174 1054 174 1011 q 192 1101 174 1081 q 239 1121 211 1121 q 301 1094 271 1121 l 413 997 q 436 954 436 978 q 423 924 436 936 q 390 911 410 911 q 369 917 383 911 l 222 988 m 388 764 q 245 793 307 764 q 157 869 183 822 q 146 908 146 888 q 158 940 146 928 q 190 953 171 953 q 239 932 217 953 q 304 888 267 906 q 388 869 342 869 q 471 888 433 869 q 536 932 508 906 q 585 954 560 954 q 617 942 604 954 q 631 908 631 929 q 618 869 631 890 q 530 793 592 822 q 388 764 468 764 z "},"ẳ":{"ha":758,"x_min":53,"x_max":682,"o":"m 388 699 q 610 626 538 699 q 682 403 682 553 l 682 89 q 656 17 682 43 q 582 -8 629 -8 q 510 19 538 -8 q 483 89 483 46 l 483 99 q 414 18 463 47 q 300 -11 365 -11 q 174 17 231 -11 q 85 94 118 44 q 53 206 53 144 q 91 324 53 281 q 214 386 129 367 q 446 406 299 406 l 482 406 l 482 431 q 456 515 482 489 q 371 542 431 542 q 199 500 311 542 q 144 485 167 485 q 96 506 114 485 q 78 563 78 528 q 90 608 78 590 q 131 642 103 626 q 249 683 179 668 q 388 699 319 699 m 346 133 q 444 174 407 133 q 482 281 482 215 l 482 304 l 458 304 q 301 286 346 304 q 256 221 256 268 q 281 158 256 182 q 346 133 307 133 m 440 936 q 423 919 438 925 q 390 913 408 913 q 353 922 368 913 q 338 950 338 932 q 355 988 338 975 q 401 1011 372 1000 q 421 1019 413 1015 q 429 1028 429 1024 q 381 1043 429 1043 q 349 1040 371 1043 q 311 1038 324 1038 q 279 1049 292 1038 q 267 1075 267 1061 q 273 1093 267 1085 q 292 1106 279 1101 q 397 1122 336 1122 q 513 1099 471 1122 q 554 1039 554 1075 q 538 999 554 1013 q 490 972 521 985 q 456 956 467 963 q 440 936 444 949 m 388 764 q 245 793 307 764 q 157 869 183 822 q 146 908 146 888 q 158 940 146 928 q 190 953 171 953 q 239 932 217 953 q 304 888 267 906 q 388 869 342 869 q 471 888 433 869 q 536 932 508 906 q 585 954 560 954 q 617 942 604 954 q 631 908 631 929 q 618 869 631 890 q 530 793 592 822 q 388 764 468 764 z "},"ẵ":{"ha":758,"x_min":53,"x_max":682,"o":"m 388 699 q 610 626 538 699 q 682 403 682 553 l 682 89 q 656 17 682 43 q 582 -8 629 -8 q 510 19 538 -8 q 483 89 483 46 l 483 99 q 414 18 463 47 q 300 -11 365 -11 q 174 17 231 -11 q 85 94 118 44 q 53 206 53 144 q 91 324 53 281 q 214 386 129 367 q 446 406 299 406 l 482 406 l 482 431 q 456 515 482 489 q 371 542 431 542 q 199 500 311 542 q 144 485 167 485 q 96 506 114 485 q 78 563 78 528 q 90 608 78 590 q 131 642 103 626 q 249 683 179 668 q 388 699 319 699 m 346 133 q 444 174 407 133 q 482 281 482 215 l 482 304 l 458 304 q 301 286 346 304 q 256 221 256 268 q 281 158 256 182 q 346 133 307 133 m 492 972 q 440 978 467 972 q 372 996 414 983 q 285 1014 310 1014 q 260 1008 269 1014 q 239 992 250 1003 q 217 974 226 979 q 193 968 208 968 q 162 980 174 968 q 150 1011 150 992 q 167 1056 150 1031 q 215 1100 185 1082 q 283 1118 246 1118 q 335 1113 308 1118 q 403 1094 361 1107 q 490 1076 465 1076 q 515 1082 506 1076 q 536 1099 524 1088 q 557 1115 547 1110 q 582 1121 567 1121 q 614 1110 603 1121 q 625 1079 625 1099 q 608 1034 625 1060 q 560 990 590 1008 q 492 972 529 972 m 388 764 q 245 793 307 764 q 157 869 183 822 q 147 903 147 888 q 163 935 147 922 q 199 947 178 947 q 239 932 221 947 q 304 888 267 906 q 388 869 342 869 q 471 888 433 869 q 536 932 508 906 q 578 949 556 949 q 614 936 599 949 q 629 904 629 924 q 618 869 629 889 q 530 793 592 822 q 388 764 468 764 z "},"ǎ":{"ha":758,"x_min":53,"x_max":682,"o":"m 388 699 q 610 626 538 699 q 682 403 682 553 l 682 89 q 656 17 682 43 q 582 -8 629 -8 q 510 19 538 -8 q 483 89 483 46 l 483 99 q 414 18 463 47 q 300 -11 365 -11 q 174 17 231 -11 q 85 94 118 44 q 53 206 53 144 q 91 324 53 281 q 214 386 129 367 q 446 406 299 406 l 482 406 l 482 431 q 456 515 482 489 q 371 542 431 542 q 199 500 311 542 q 144 485 167 485 q 96 506 114 485 q 78 563 78 528 q 90 608 78 590 q 131 642 103 626 q 249 683 179 668 q 388 699 319 699 m 346 133 q 444 174 407 133 q 482 281 482 215 l 482 304 l 458 304 q 301 286 346 304 q 256 221 256 268 q 281 158 256 182 q 346 133 307 133 m 388 764 q 344 774 361 764 q 307 810 328 785 l 190 958 q 175 1000 175 978 q 194 1043 175 1025 q 240 1061 214 1061 q 296 1029 275 1061 l 388 894 l 479 1029 q 535 1061 500 1061 q 581 1043 561 1061 q 600 1000 600 1025 q 585 958 600 978 l 468 808 q 431 774 449 785 q 388 764 413 764 z "},"â":{"ha":758,"x_min":53,"x_max":682,"o":"m 388 699 q 610 626 538 699 q 682 403 682 553 l 682 89 q 656 17 682 43 q 582 -8 629 -8 q 510 19 538 -8 q 483 89 483 46 l 483 99 q 414 18 463 47 q 300 -11 365 -11 q 174 17 231 -11 q 85 94 118 44 q 53 206 53 144 q 91 324 53 281 q 214 386 129 367 q 446 406 299 406 l 482 406 l 482 431 q 456 515 482 489 q 371 542 431 542 q 199 500 311 542 q 144 485 167 485 q 96 506 114 485 q 78 563 78 528 q 90 608 78 590 q 131 642 103 626 q 249 683 179 668 q 388 699 319 699 m 346 133 q 444 174 407 133 q 482 281 482 215 l 482 304 l 458 304 q 301 286 346 304 q 256 221 256 268 q 281 158 256 182 q 346 133 307 133 m 296 796 q 240 764 274 764 q 194 782 214 764 q 175 825 175 800 q 190 867 175 847 l 307 1017 q 344 1051 326 1040 q 388 1061 361 1061 q 431 1051 414 1061 q 468 1015 449 1040 l 585 867 q 600 826 600 847 q 580 783 600 801 q 535 764 560 764 q 479 796 501 764 l 388 932 l 296 796 z "},"ấ":{"ha":758,"x_min":53,"x_max":751,"o":"m 388 699 q 610 626 538 699 q 682 403 682 553 l 682 89 q 656 17 682 43 q 582 -8 629 -8 q 510 19 538 -8 q 483 89 483 46 l 483 99 q 414 18 463 47 q 300 -11 365 -11 q 174 17 231 -11 q 85 94 118 44 q 53 206 53 144 q 91 324 53 281 q 214 386 129 367 q 446 406 299 406 l 482 406 l 482 431 q 456 515 482 489 q 371 542 431 542 q 199 500 311 542 q 144 485 167 485 q 96 506 114 485 q 78 563 78 528 q 90 608 78 590 q 131 642 103 626 q 249 683 179 668 q 388 699 319 699 m 346 133 q 444 174 407 133 q 482 281 482 215 l 482 304 l 458 304 q 301 286 346 304 q 256 221 256 268 q 281 158 256 182 q 346 133 307 133 m 592 917 q 568 911 581 911 q 535 925 549 911 q 521 958 521 939 q 533 992 521 975 l 610 1088 q 672 1122 636 1122 q 728 1097 704 1122 q 751 1040 751 1072 q 700 969 751 996 l 592 917 m 282 778 q 243 764 264 764 q 199 781 218 764 q 181 822 181 799 q 215 876 181 853 l 317 946 q 388 969 353 969 q 458 946 418 969 l 560 876 q 594 822 594 853 q 575 781 594 799 q 532 763 556 763 q 497 775 514 763 l 388 858 l 282 778 z "},"ậ":{"ha":758,"x_min":53,"x_max":682,"o":"m 388 699 q 610 626 538 699 q 682 403 682 553 l 682 89 q 656 17 682 43 q 582 -8 629 -8 q 510 19 538 -8 q 483 89 483 46 l 483 99 q 414 18 463 47 q 300 -11 365 -11 q 174 17 231 -11 q 85 94 118 44 q 53 206 53 144 q 91 324 53 281 q 214 386 129 367 q 446 406 299 406 l 482 406 l 482 431 q 456 515 482 489 q 371 542 431 542 q 199 500 311 542 q 144 485 167 485 q 96 506 114 485 q 78 563 78 528 q 90 608 78 590 q 131 642 103 626 q 249 683 179 668 q 388 699 319 699 m 346 133 q 444 174 407 133 q 482 281 482 215 l 482 304 l 458 304 q 301 286 346 304 q 256 221 256 268 q 281 158 256 182 q 346 133 307 133 m 382 -283 q 308 -256 336 -283 q 279 -183 279 -228 q 308 -112 279 -139 q 382 -86 336 -86 q 456 -112 428 -86 q 485 -183 485 -139 q 456 -256 485 -228 q 382 -283 428 -283 m 296 796 q 240 764 274 764 q 194 782 214 764 q 175 825 175 800 q 190 867 175 847 l 307 1017 q 344 1051 326 1040 q 388 1061 361 1061 q 431 1051 414 1061 q 468 1015 449 1040 l 585 867 q 600 826 600 847 q 580 783 600 801 q 535 764 560 764 q 479 796 501 764 l 388 932 l 296 796 z "},"ầ":{"ha":758,"x_min":53,"x_max":682,"o":"m 388 699 q 610 626 538 699 q 682 403 682 553 l 682 89 q 656 17 682 43 q 582 -8 629 -8 q 510 19 538 -8 q 483 89 483 46 l 483 99 q 414 18 463 47 q 300 -11 365 -11 q 174 17 231 -11 q 85 94 118 44 q 53 206 53 144 q 91 324 53 281 q 214 386 129 367 q 446 406 299 406 l 482 406 l 482 431 q 456 515 482 489 q 371 542 431 542 q 199 500 311 542 q 144 485 167 485 q 96 506 114 485 q 78 563 78 528 q 90 608 78 590 q 131 642 103 626 q 249 683 179 668 q 388 699 319 699 m 346 133 q 444 174 407 133 q 482 281 482 215 l 482 304 l 458 304 q 301 286 346 304 q 256 221 256 268 q 281 158 256 182 q 346 133 307 133 m 504 1004 q 482 1053 482 1025 q 508 1103 482 1082 q 565 1125 535 1125 q 629 1076 611 1125 l 667 975 q 671 953 671 965 q 658 923 671 935 q 626 911 646 911 q 581 931 601 911 l 504 1004 m 282 778 q 243 764 264 764 q 199 781 218 764 q 181 822 181 799 q 215 876 181 853 l 317 946 q 388 969 353 969 q 458 946 418 969 l 560 876 q 594 822 594 853 q 575 781 594 799 q 532 763 556 763 q 497 775 514 763 l 388 858 l 282 778 z "},"ẩ":{"ha":758,"x_min":53,"x_max":735,"o":"m 388 699 q 610 626 538 699 q 682 403 682 553 l 682 89 q 656 17 682 43 q 582 -8 629 -8 q 510 19 538 -8 q 483 89 483 46 l 483 99 q 414 18 463 47 q 300 -11 365 -11 q 174 17 231 -11 q 85 94 118 44 q 53 206 53 144 q 91 324 53 281 q 214 386 129 367 q 446 406 299 406 l 482 406 l 482 431 q 456 515 482 489 q 371 542 431 542 q 199 500 311 542 q 144 485 167 485 q 96 506 114 485 q 78 563 78 528 q 90 608 78 590 q 131 642 103 626 q 249 683 179 668 q 388 699 319 699 m 346 133 q 444 174 407 133 q 482 281 482 215 l 482 304 l 458 304 q 301 286 346 304 q 256 221 256 268 q 281 158 256 182 q 346 133 307 133 m 622 935 q 605 917 619 924 q 572 911 590 911 q 534 920 550 911 q 518 947 518 929 q 535 985 518 972 q 582 1008 553 997 q 601 1017 593 1013 q 610 1025 610 1021 q 599 1037 610 1033 q 563 1040 588 1040 q 531 1038 553 1040 q 493 1035 506 1035 q 461 1047 474 1035 q 449 1074 449 1058 q 474 1104 449 1094 q 578 1121 518 1121 q 693 1097 651 1121 q 735 1038 735 1074 q 718 997 735 1011 q 669 971 701 983 q 636 954 647 961 q 622 935 625 947 m 282 778 q 243 764 264 764 q 199 781 218 764 q 181 822 181 799 q 215 876 181 853 l 317 946 q 388 969 353 969 q 458 946 418 969 l 560 876 q 594 822 594 853 q 575 781 594 799 q 532 763 556 763 q 497 775 514 763 l 388 858 l 282 778 z "},"ẫ":{"ha":758,"x_min":53,"x_max":682,"o":"m 388 699 q 610 626 538 699 q 682 403 682 553 l 682 89 q 656 17 682 43 q 582 -8 629 -8 q 510 19 538 -8 q 483 89 483 46 l 483 99 q 414 18 463 47 q 300 -11 365 -11 q 174 17 231 -11 q 85 94 118 44 q 53 206 53 144 q 91 324 53 281 q 214 386 129 367 q 446 406 299 406 l 482 406 l 482 431 q 456 515 482 489 q 371 542 431 542 q 199 500 311 542 q 144 485 167 485 q 96 506 114 485 q 78 563 78 528 q 90 608 78 590 q 131 642 103 626 q 249 683 179 668 q 388 699 319 699 m 346 133 q 444 174 407 133 q 482 281 482 215 l 482 304 l 458 304 q 301 286 346 304 q 256 221 256 268 q 281 158 256 182 q 346 133 307 133 m 492 986 q 394 1006 464 986 q 337 1020 367 1014 q 285 1026 307 1026 q 260 1021 269 1026 q 239 1004 250 1015 q 217 988 226 993 q 193 982 208 982 q 162 993 174 982 q 150 1024 150 1004 q 167 1069 150 1043 q 215 1113 185 1094 q 283 1131 246 1131 q 335 1125 308 1131 q 403 1107 361 1119 q 490 1089 465 1089 q 515 1094 506 1089 q 536 1113 524 1100 q 557 1129 547 1124 q 582 1135 567 1135 q 614 1123 603 1135 q 625 1092 625 1111 q 608 1047 625 1072 q 560 1004 590 1022 q 492 986 529 986 m 282 778 q 243 764 264 764 q 199 781 218 764 q 181 822 181 799 q 215 876 181 853 l 317 946 q 388 968 351 968 q 458 946 421 968 l 560 876 q 594 822 594 853 q 575 781 594 799 q 532 763 556 763 q 497 775 514 763 l 388 858 l 282 778 z "},"ȁ":{"ha":758,"x_min":53,"x_max":682,"o":"m 388 699 q 610 626 538 699 q 682 403 682 553 l 682 89 q 656 17 682 43 q 582 -8 629 -8 q 510 19 538 -8 q 483 89 483 46 l 483 99 q 414 18 463 47 q 300 -11 365 -11 q 174 17 231 -11 q 85 94 118 44 q 53 206 53 144 q 91 324 53 281 q 214 386 129 367 q 446 406 299 406 l 482 406 l 482 431 q 456 515 482 489 q 371 542 431 542 q 199 500 311 542 q 144 485 167 485 q 96 506 114 485 q 78 563 78 528 q 90 608 78 590 q 131 642 103 626 q 249 683 179 668 q 388 699 319 699 m 346 133 q 444 174 407 133 q 482 281 482 215 l 482 304 l 458 304 q 301 286 346 304 q 256 221 256 268 q 281 158 256 182 q 346 133 307 133 m 161 947 q 147 996 147 974 q 169 1045 147 1026 q 221 1064 192 1064 q 270 1045 249 1064 q 300 989 292 1026 l 336 821 q 338 810 338 817 q 324 776 338 789 q 292 763 310 763 q 249 789 265 763 l 161 947 m 354 947 q 340 996 340 974 q 363 1045 340 1026 q 414 1064 385 1064 q 463 1045 442 1064 q 493 989 485 1026 l 528 821 q 529 808 529 817 q 515 776 529 789 q 483 763 501 763 q 440 789 457 763 l 354 947 z "},"ä":{"ha":758,"x_min":53,"x_max":682,"o":"m 388 699 q 610 626 538 699 q 682 403 682 553 l 682 89 q 656 17 682 43 q 582 -8 629 -8 q 510 19 538 -8 q 483 89 483 46 l 483 99 q 414 18 463 47 q 300 -11 365 -11 q 174 17 231 -11 q 85 94 118 44 q 53 206 53 144 q 91 324 53 281 q 214 386 129 367 q 446 406 299 406 l 482 406 l 482 431 q 456 515 482 489 q 371 542 431 542 q 199 500 311 542 q 144 485 167 485 q 96 506 114 485 q 78 563 78 528 q 90 608 78 590 q 131 642 103 626 q 249 683 179 668 q 388 699 319 699 m 346 133 q 444 174 407 133 q 482 281 482 215 l 482 304 l 458 304 q 301 286 346 304 q 256 221 256 268 q 281 158 256 182 q 346 133 307 133 m 256 813 q 181 840 210 813 q 151 913 151 868 q 181 983 151 957 q 256 1010 210 1010 q 331 983 301 1010 q 360 913 360 957 q 331 840 360 868 q 256 813 303 813 m 519 813 q 445 840 474 813 q 417 913 417 868 q 445 983 417 957 q 519 1010 474 1010 q 594 983 565 1010 q 624 913 624 957 q 594 840 624 868 q 519 813 565 813 z "},"ȧ":{"ha":758,"x_min":53,"x_max":682,"o":"m 388 699 q 610 626 538 699 q 682 403 682 553 l 682 89 q 656 17 682 43 q 582 -8 629 -8 q 510 19 538 -8 q 483 89 483 46 l 483 99 q 414 18 463 47 q 300 -11 365 -11 q 174 17 231 -11 q 85 94 118 44 q 53 206 53 144 q 91 324 53 281 q 214 386 129 367 q 446 406 299 406 l 482 406 l 482 431 q 456 515 482 489 q 371 542 431 542 q 199 500 311 542 q 144 485 167 485 q 96 506 114 485 q 78 563 78 528 q 90 608 78 590 q 131 642 103 626 q 249 683 179 668 q 388 699 319 699 m 346 133 q 444 174 407 133 q 482 281 482 215 l 482 304 l 458 304 q 301 286 346 304 q 256 221 256 268 q 281 158 256 182 q 346 133 307 133 m 388 807 q 300 835 332 807 q 268 913 268 864 q 300 989 268 961 q 388 1017 332 1017 q 474 988 442 1017 q 507 913 507 960 q 475 835 507 864 q 388 807 443 807 z "},"ạ":{"ha":758,"x_min":53,"x_max":682,"o":"m 388 699 q 610 626 538 699 q 682 403 682 553 l 682 89 q 656 17 682 43 q 582 -8 629 -8 q 510 19 538 -8 q 483 89 483 46 l 483 99 q 414 18 463 47 q 300 -11 365 -11 q 174 17 231 -11 q 85 94 118 44 q 53 206 53 144 q 91 324 53 281 q 214 386 129 367 q 446 406 299 406 l 482 406 l 482 431 q 456 515 482 489 q 371 542 431 542 q 199 500 311 542 q 144 485 167 485 q 96 506 114 485 q 78 563 78 528 q 90 608 78 590 q 131 642 103 626 q 249 683 179 668 q 388 699 319 699 m 346 133 q 444 174 407 133 q 482 281 482 215 l 482 304 l 458 304 q 301 286 346 304 q 256 221 256 268 q 281 158 256 182 q 346 133 307 133 m 382 -283 q 308 -256 336 -283 q 279 -183 279 -228 q 308 -112 279 -139 q 382 -86 336 -86 q 456 -112 428 -86 q 485 -183 485 -139 q 456 -256 485 -228 q 382 -283 428 -283 z "},"à":{"ha":758,"x_min":53,"x_max":682,"o":"m 388 699 q 610 626 538 699 q 682 403 682 553 l 682 89 q 656 17 682 43 q 582 -8 629 -8 q 510 19 538 -8 q 483 89 483 46 l 483 99 q 414 18 463 47 q 300 -11 365 -11 q 174 17 231 -11 q 85 94 118 44 q 53 206 53 144 q 91 324 53 281 q 214 386 129 367 q 446 406 299 406 l 482 406 l 482 431 q 456 515 482 489 q 371 542 431 542 q 199 500 311 542 q 144 485 167 485 q 96 506 114 485 q 78 563 78 528 q 90 608 78 590 q 131 642 103 626 q 249 683 179 668 q 388 699 319 699 m 346 133 q 444 174 407 133 q 482 281 482 215 l 482 304 l 458 304 q 301 286 346 304 q 256 221 256 268 q 281 158 256 182 q 346 133 307 133 m 178 900 q 133 975 133 933 q 159 1034 133 1010 q 221 1058 185 1058 q 304 1011 271 1058 l 424 851 q 436 815 436 833 q 421 778 436 793 q 383 763 406 763 q 347 776 365 763 l 178 900 z "},"ả":{"ha":758,"x_min":53,"x_max":682,"o":"m 388 699 q 610 626 538 699 q 682 403 682 553 l 682 89 q 656 17 682 43 q 582 -8 629 -8 q 510 19 538 -8 q 483 89 483 46 l 483 99 q 414 18 463 47 q 300 -11 365 -11 q 174 17 231 -11 q 85 94 118 44 q 53 206 53 144 q 91 324 53 281 q 214 386 129 367 q 446 406 299 406 l 482 406 l 482 431 q 456 515 482 489 q 371 542 431 542 q 199 500 311 542 q 144 485 167 485 q 96 506 114 485 q 78 563 78 528 q 90 608 78 590 q 131 642 103 626 q 249 683 179 668 q 388 699 319 699 m 346 133 q 444 174 407 133 q 482 281 482 215 l 482 304 l 458 304 q 301 286 346 304 q 256 221 256 268 q 281 158 256 182 q 346 133 307 133 m 442 803 q 423 772 439 783 q 388 760 407 760 q 352 773 367 760 q 338 808 338 786 q 351 854 338 836 q 388 893 364 872 q 410 915 403 906 q 418 935 418 925 q 375 967 418 967 q 335 962 354 967 q 311 956 315 957 q 281 965 293 950 q 268 1000 268 979 q 275 1025 268 1014 q 296 1042 282 1036 q 393 1058 343 1058 q 512 1028 469 1058 q 554 954 554 999 q 538 901 554 921 q 490 858 522 882 q 456 831 468 843 q 442 803 444 818 z "},"ȃ":{"ha":758,"x_min":53,"x_max":682,"o":"m 388 699 q 610 626 538 699 q 682 403 682 553 l 682 89 q 656 17 682 43 q 582 -8 629 -8 q 510 19 538 -8 q 483 89 483 46 l 483 99 q 414 18 463 47 q 300 -11 365 -11 q 174 17 231 -11 q 85 94 118 44 q 53 206 53 144 q 91 324 53 281 q 214 386 129 367 q 446 406 299 406 l 482 406 l 482 431 q 456 515 482 489 q 371 542 431 542 q 199 500 311 542 q 144 485 167 485 q 96 506 114 485 q 78 563 78 528 q 90 608 78 590 q 131 642 103 626 q 249 683 179 668 q 388 699 319 699 m 346 133 q 444 174 407 133 q 482 281 482 215 l 482 304 l 458 304 q 301 286 346 304 q 256 221 256 268 q 281 158 256 182 q 346 133 307 133 m 254 831 q 230 808 244 815 q 201 800 215 800 q 160 816 178 800 q 142 857 142 832 q 147 882 142 865 q 240 995 172 951 q 388 1039 307 1039 q 535 995 468 1039 q 628 882 603 951 q 632 857 632 869 q 615 816 632 832 q 574 800 597 800 q 521 831 542 800 q 388 903 475 903 q 254 831 300 903 z "},"ā":{"ha":758,"x_min":53,"x_max":682,"o":"m 388 699 q 610 626 538 699 q 682 403 682 553 l 682 89 q 656 17 682 43 q 582 -8 629 -8 q 510 19 538 -8 q 483 89 483 46 l 483 99 q 414 18 463 47 q 300 -11 365 -11 q 174 17 231 -11 q 85 94 118 44 q 53 206 53 144 q 91 324 53 281 q 214 386 129 367 q 446 406 299 406 l 482 406 l 482 431 q 456 515 482 489 q 371 542 431 542 q 199 500 311 542 q 144 485 167 485 q 96 506 114 485 q 78 563 78 528 q 90 608 78 590 q 131 642 103 626 q 249 683 179 668 q 388 699 319 699 m 346 133 q 444 174 407 133 q 482 281 482 215 l 482 304 l 458 304 q 301 286 346 304 q 256 221 256 268 q 281 158 256 182 q 346 133 307 133 m 219 846 q 169 863 189 846 q 150 911 150 881 q 169 959 150 942 q 219 976 189 976 l 556 976 q 606 959 586 976 q 625 911 625 942 q 606 863 625 881 q 556 846 586 846 l 219 846 z "},"ą":{"ha":758,"x_min":53,"x_max":742,"o":"m 692 -153 q 704 -151 696 -151 q 731 -165 721 -151 q 742 -197 742 -179 q 717 -242 742 -228 q 594 -274 663 -274 q 467 -230 517 -274 q 418 -117 418 -186 q 440 -36 418 -74 q 503 28 463 1 q 483 89 483 54 l 483 99 q 415 18 463 47 q 303 -11 367 -11 q 175 17 232 -11 q 85 94 118 44 q 53 206 53 144 q 91 324 53 281 q 215 386 129 367 q 446 406 300 406 l 482 406 l 482 431 q 456 515 482 489 q 371 542 431 542 q 199 500 311 542 q 144 485 167 485 q 96 506 114 485 q 78 563 78 528 q 90 608 78 590 q 131 642 103 626 q 249 683 179 668 q 388 699 319 699 q 610 626 538 699 q 682 403 682 553 l 682 89 q 632 3 682 24 q 571 -40 590 -18 q 551 -90 551 -61 q 572 -144 551 -124 q 625 -165 593 -165 q 664 -160 642 -165 q 692 -153 686 -154 m 346 133 q 444 174 407 133 q 482 281 482 215 l 482 304 l 458 304 q 301 285 346 304 q 256 221 256 267 q 281 158 256 182 q 346 133 307 133 z "},"å":{"ha":758,"x_min":53,"x_max":682,"o":"m 388 699 q 610 626 538 699 q 682 403 682 553 l 682 89 q 656 17 682 43 q 582 -8 629 -8 q 510 19 538 -8 q 483 89 483 46 l 483 99 q 414 18 463 47 q 300 -11 365 -11 q 174 17 231 -11 q 85 94 118 44 q 53 206 53 144 q 91 324 53 281 q 214 386 129 367 q 446 406 299 406 l 482 406 l 482 431 q 456 515 482 489 q 371 542 431 542 q 199 500 311 542 q 144 485 167 485 q 96 506 114 485 q 78 563 78 528 q 90 608 78 590 q 131 642 103 626 q 249 683 179 668 q 388 699 319 699 m 346 133 q 444 174 407 133 q 482 281 482 215 l 482 304 l 458 304 q 301 286 346 304 q 256 221 256 268 q 281 158 256 182 q 346 133 307 133 m 388 764 q 280 807 324 764 q 236 914 236 850 q 280 1019 236 976 q 388 1063 324 1063 q 495 1019 451 1063 q 539 914 539 976 q 495 807 539 850 q 388 764 451 764 m 388 850 q 431 868 414 850 q 447 914 447 886 q 431 958 447 940 q 388 976 414 976 q 344 958 361 976 q 328 914 328 940 q 344 868 328 886 q 388 850 361 850 z "},"ǻ":{"ha":758,"x_min":53,"x_max":715,"o":"m 571 1161 q 639 1193 603 1193 q 692 1170 669 1193 q 715 1117 715 1147 q 661 1043 715 1071 l 525 976 q 539 914 539 944 q 494 808 539 851 q 388 764 450 764 q 279 807 324 764 q 235 914 235 850 q 279 1019 235 976 q 388 1063 324 1063 q 456 1047 422 1063 l 571 1161 m 388 850 q 431 868 414 850 q 447 914 447 886 q 431 958 447 940 q 388 976 414 976 q 344 958 361 976 q 326 914 326 940 q 344 868 326 886 q 388 850 361 850 m 388 699 q 610 626 538 699 q 682 403 682 553 l 682 89 q 656 17 682 43 q 582 -8 629 -8 q 510 19 538 -8 q 483 89 483 46 l 483 99 q 414 18 463 47 q 300 -11 365 -11 q 174 17 231 -11 q 85 94 118 44 q 53 206 53 144 q 91 324 53 281 q 214 386 129 367 q 446 406 299 406 l 482 406 l 482 431 q 456 515 482 489 q 371 542 431 542 q 199 500 311 542 q 144 485 167 485 q 96 506 114 485 q 78 563 78 528 q 90 608 78 590 q 131 642 103 626 q 249 683 179 668 q 388 699 319 699 m 346 133 q 444 174 407 133 q 482 281 482 215 l 482 304 l 458 304 q 301 286 346 304 q 256 221 256 268 q 281 158 256 182 q 346 133 307 133 z "},"ã":{"ha":758,"x_min":53,"x_max":682,"o":"m 388 699 q 610 626 538 699 q 682 403 682 553 l 682 89 q 656 17 682 43 q 582 -8 629 -8 q 510 19 538 -8 q 483 89 483 46 l 483 99 q 414 18 463 47 q 300 -11 365 -11 q 174 17 231 -11 q 85 94 118 44 q 53 206 53 144 q 91 324 53 281 q 214 386 129 367 q 446 406 299 406 l 482 406 l 482 431 q 456 515 482 489 q 371 542 431 542 q 199 500 311 542 q 144 485 167 485 q 96 506 114 485 q 78 563 78 528 q 90 608 78 590 q 131 642 103 626 q 249 683 179 668 q 388 699 319 699 m 346 133 q 444 174 407 133 q 482 281 482 215 l 482 304 l 458 304 q 301 286 346 304 q 256 221 256 268 q 281 158 256 182 q 346 133 307 133 m 492 807 q 440 818 465 807 q 381 849 414 829 q 332 873 350 865 q 299 881 314 881 q 265 871 278 881 q 236 840 253 861 q 215 816 224 824 q 190 808 206 808 q 161 824 172 808 q 150 863 150 839 q 167 928 150 892 q 215 990 185 964 q 283 1015 246 1015 q 333 1005 308 1015 q 394 974 357 994 q 441 949 422 957 q 476 940 460 940 q 510 950 497 940 q 539 981 522 960 q 560 1006 551 999 q 585 1014 569 1014 q 614 999 603 1014 q 625 960 625 983 q 608 894 625 931 q 560 833 590 858 q 492 807 529 807 z "},"æ":{"ha":1163,"x_min":53,"x_max":1117,"o":"m 1051 203 q 1096 181 1079 203 q 1113 124 1113 158 q 1099 80 1113 100 q 1060 46 1085 60 q 952 5 1014 21 q 839 -11 890 -11 q 672 24 743 -11 q 561 124 601 58 q 467 24 529 58 q 325 -11 406 -11 q 185 17 247 -11 q 88 94 124 44 q 53 206 53 143 q 91 324 53 281 q 214 386 129 367 q 444 406 299 406 l 481 406 l 481 431 q 454 515 481 489 q 371 542 428 542 q 283 531 321 542 q 207 504 246 521 q 140 485 164 485 q 95 506 113 485 q 78 563 78 528 q 131 642 78 613 q 245 684 179 669 q 382 699 311 699 q 604 611 539 699 q 701 676 646 653 q 824 699 757 699 q 976 657 910 699 q 1080 539 1043 615 q 1117 364 1117 463 q 1063 301 1117 301 l 682 301 q 731 183 693 221 q 843 146 769 146 q 909 154 881 146 q 981 181 938 163 q 1051 203 1028 203 m 819 554 q 724 516 760 554 q 682 406 689 478 l 940 406 q 906 515 938 476 q 819 554 874 554 m 353 133 q 444 176 407 133 q 481 281 481 218 l 481 304 l 456 304 q 300 286 344 304 q 256 221 256 268 q 283 158 256 182 q 353 133 310 133 z "},"ǽ":{"ha":1163,"x_min":53,"x_max":1117,"o":"m 1051 203 q 1096 181 1079 203 q 1113 124 1113 158 q 1099 80 1113 100 q 1060 46 1085 60 q 952 5 1014 21 q 839 -11 890 -11 q 672 24 743 -11 q 561 124 601 58 q 467 24 529 58 q 325 -11 406 -11 q 185 17 247 -11 q 88 94 124 44 q 53 206 53 143 q 91 324 53 281 q 214 386 129 367 q 444 406 299 406 l 481 406 l 481 431 q 454 515 481 489 q 371 542 428 542 q 283 531 321 542 q 207 504 246 521 q 140 485 164 485 q 95 506 113 485 q 78 563 78 528 q 131 642 78 613 q 245 684 179 669 q 382 699 311 699 q 604 611 539 699 q 701 676 646 653 q 824 699 757 699 q 976 657 910 699 q 1080 539 1043 615 q 1117 364 1117 463 q 1063 301 1117 301 l 682 301 q 731 183 693 221 q 843 146 769 146 q 909 154 881 146 q 981 181 938 163 q 1051 203 1028 203 m 819 554 q 724 516 760 554 q 682 406 689 478 l 940 406 q 906 515 938 476 q 819 554 874 554 m 353 133 q 444 176 407 133 q 481 281 481 218 l 481 304 l 456 304 q 300 286 344 304 q 256 221 256 268 q 283 158 256 182 q 353 133 310 133 m 619 776 q 583 764 603 764 q 546 779 561 764 q 531 815 531 794 q 543 851 531 833 l 663 1011 q 746 1058 697 1058 q 807 1033 781 1058 q 833 975 833 1008 q 789 900 833 933 l 619 776 z "},"b":{"ha":851,"x_min":81,"x_max":804,"o":"m 503 699 q 660 656 592 699 q 766 533 728 613 q 804 347 804 453 q 766 160 804 242 q 659 34 728 79 q 503 -11 590 -11 q 375 19 432 -11 q 288 101 318 49 l 288 90 q 260 19 288 46 q 185 -8 232 -8 q 109 19 138 -8 q 81 90 81 46 l 81 890 q 110 960 81 933 q 189 986 140 986 q 263 961 235 986 q 290 894 290 936 l 290 590 q 377 670 321 642 q 503 699 433 699 m 442 149 q 556 201 515 149 q 596 347 596 253 q 556 490 596 440 q 442 539 515 539 q 328 488 368 539 q 288 344 288 438 q 328 199 288 250 q 442 149 368 149 z "},"c":{"ha":686,"x_min":47,"x_max":664,"o":"m 396 -11 q 211 32 290 -11 q 90 154 132 75 q 47 340 47 233 q 92 528 47 447 q 219 654 138 610 q 408 699 301 699 q 520 683 464 699 q 621 640 576 668 q 664 563 664 614 q 647 503 664 526 q 603 481 631 481 q 569 487 585 481 q 526 506 553 493 q 474 529 497 521 q 422 538 451 538 q 303 488 344 538 q 263 344 263 439 q 303 200 263 250 q 422 150 344 150 q 474 158 451 150 q 528 182 496 165 q 569 201 554 194 q 603 207 585 207 q 647 183 629 207 q 664 124 664 160 q 621 47 664 72 q 518 4 576 19 q 396 -11 460 -11 z "},"ć":{"ha":686,"x_min":47,"x_max":664,"o":"m 396 -11 q 211 32 290 -11 q 90 154 132 75 q 47 340 47 233 q 92 528 47 447 q 219 654 138 610 q 408 699 301 699 q 520 683 464 699 q 621 640 576 668 q 664 563 664 614 q 647 503 664 526 q 603 481 631 481 q 569 487 585 481 q 526 506 553 493 q 474 529 497 521 q 422 538 451 538 q 303 488 344 538 q 263 344 263 439 q 303 200 263 250 q 422 150 344 150 q 474 158 451 150 q 528 182 496 165 q 569 201 554 194 q 603 207 585 207 q 647 183 629 207 q 664 124 664 160 q 621 47 664 72 q 518 4 576 19 q 396 -11 460 -11 m 449 776 q 413 764 432 764 q 375 779 390 764 q 360 815 360 794 q 372 851 360 833 l 492 1011 q 575 1058 526 1058 q 636 1033 610 1058 q 663 975 663 1008 q 618 900 663 933 l 449 776 z "},"č":{"ha":686,"x_min":47,"x_max":664,"o":"m 396 -11 q 211 32 290 -11 q 90 154 132 75 q 47 340 47 233 q 92 528 47 447 q 219 654 138 610 q 408 699 301 699 q 520 683 464 699 q 621 640 576 668 q 664 563 664 614 q 647 503 664 526 q 603 481 631 481 q 569 487 585 481 q 526 506 553 493 q 474 529 497 521 q 422 538 451 538 q 303 488 344 538 q 263 344 263 439 q 303 200 263 250 q 422 150 344 150 q 474 158 451 150 q 528 182 496 165 q 569 201 554 194 q 603 207 585 207 q 647 183 629 207 q 664 124 664 160 q 621 47 664 72 q 518 4 576 19 q 396 -11 460 -11 m 408 764 q 365 774 382 764 q 328 810 349 785 l 211 958 q 196 1000 196 978 q 215 1043 196 1025 q 261 1061 235 1061 q 317 1029 296 1061 l 408 894 l 500 1029 q 556 1061 521 1061 q 601 1043 582 1061 q 621 1000 621 1025 q 606 958 621 978 l 489 808 q 451 774 469 785 q 408 764 433 764 z "},"ç":{"ha":686,"x_min":47,"x_max":664,"o":"m 603 207 q 647 183 629 207 q 664 124 664 160 q 621 47 664 72 q 436 -10 546 -1 l 431 -58 q 461 -56 453 -56 q 534 -82 504 -56 q 564 -151 564 -108 q 515 -240 564 -206 q 376 -274 467 -274 q 278 -260 318 -274 q 250 -218 250 -250 q 263 -185 250 -199 q 293 -176 275 -171 q 371 -187 340 -187 q 435 -151 435 -187 q 426 -132 435 -139 q 401 -125 417 -125 q 369 -129 389 -125 q 340 -133 350 -133 q 319 -126 326 -133 q 313 -104 311 -118 l 325 -6 q 122 106 196 14 q 47 340 47 199 q 92 528 47 447 q 219 654 138 610 q 408 699 301 699 q 520 683 464 699 q 621 640 576 668 q 664 563 664 614 q 647 503 664 526 q 603 481 631 481 q 569 487 585 481 q 526 506 553 493 q 474 529 497 521 q 422 538 451 538 q 303 488 344 538 q 263 344 263 439 q 303 200 263 250 q 422 150 344 150 q 474 158 451 150 q 528 182 496 165 q 569 201 554 194 q 603 207 585 207 z "},"ḉ":{"ha":686,"x_min":47,"x_max":664,"o":"m 449 776 q 413 764 432 764 q 375 779 390 764 q 360 815 360 794 q 372 851 360 833 l 492 1011 q 575 1058 528 1058 q 636 1033 610 1058 q 663 975 663 1008 q 618 900 663 933 l 449 776 m 603 207 q 647 183 629 207 q 664 124 664 160 q 621 47 664 72 q 436 -10 546 -1 l 431 -58 q 461 -56 453 -56 q 534 -82 504 -56 q 564 -151 564 -108 q 515 -240 564 -206 q 376 -274 467 -274 q 278 -260 318 -274 q 250 -218 250 -250 q 263 -185 250 -199 q 293 -176 275 -171 q 371 -187 340 -187 q 435 -151 435 -187 q 426 -132 435 -139 q 401 -125 417 -125 q 369 -129 389 -125 q 340 -133 350 -133 q 319 -126 326 -133 q 313 -104 311 -118 l 325 -6 q 122 106 196 14 q 47 340 47 199 q 92 528 47 447 q 219 654 138 610 q 408 699 301 699 q 520 683 464 699 q 621 640 576 668 q 664 563 664 614 q 647 503 664 526 q 603 481 631 481 q 569 487 585 481 q 526 506 553 493 q 474 529 497 521 q 422 538 451 538 q 303 488 344 538 q 263 344 263 439 q 303 200 263 250 q 422 150 344 150 q 474 158 451 150 q 528 182 496 165 q 569 201 554 194 q 603 207 585 207 z "},"ĉ":{"ha":686,"x_min":47,"x_max":664,"o":"m 396 -11 q 211 32 290 -11 q 90 154 132 75 q 47 340 47 233 q 92 528 47 447 q 219 654 138 610 q 408 699 301 699 q 520 683 464 699 q 621 640 576 668 q 664 563 664 614 q 647 503 664 526 q 603 481 631 481 q 569 487 585 481 q 526 506 553 493 q 474 529 497 521 q 422 538 451 538 q 303 488 344 538 q 263 344 263 439 q 303 200 263 250 q 422 150 344 150 q 474 158 451 150 q 528 182 496 165 q 569 201 554 194 q 603 207 585 207 q 647 183 629 207 q 664 124 664 160 q 621 47 664 72 q 518 4 576 19 q 396 -11 460 -11 m 317 796 q 261 764 294 764 q 215 782 235 764 q 196 825 196 800 q 211 867 196 847 l 328 1017 q 365 1051 347 1040 q 408 1061 382 1061 q 452 1051 435 1061 q 489 1015 469 1040 l 606 867 q 621 826 621 847 q 601 783 621 801 q 556 764 581 764 q 500 796 522 764 l 408 932 l 317 796 z "},"ċ":{"ha":686,"x_min":47,"x_max":664,"o":"m 396 -11 q 211 32 290 -11 q 90 154 132 75 q 47 340 47 233 q 92 528 47 447 q 219 654 138 610 q 408 699 301 699 q 520 683 464 699 q 621 640 576 668 q 664 563 664 614 q 647 503 664 526 q 603 481 631 481 q 569 487 585 481 q 526 506 553 493 q 474 529 497 521 q 422 538 451 538 q 303 488 344 538 q 263 344 263 439 q 303 200 263 250 q 422 150 344 150 q 474 158 451 150 q 528 182 496 165 q 569 201 554 194 q 603 207 585 207 q 647 183 629 207 q 664 124 664 160 q 621 47 664 72 q 518 4 576 19 q 396 -11 460 -11 m 408 807 q 321 835 353 807 q 289 913 289 864 q 321 989 289 961 q 408 1017 353 1017 q 495 988 463 1017 q 528 913 528 960 q 496 835 528 864 q 408 807 464 807 z "}}}
